<svg xmlns="http://www.w3.org/2000/svg" xmlns:xlink="http://www.w3.org/1999/xlink" width="538.078" height="404.973" viewBox="0 0 538.078 404.973">
  <defs>
    <linearGradient id="linear-gradient" y1="0.5" x2="1" y2="0.5" gradientUnits="objectBoundingBox">
      <stop offset="0" stop-color="#fecb4a"/>
      <stop offset="1" stop-color="#f8b126"/>
    </linearGradient>
    <linearGradient id="linear-gradient-2" y1="0.5" x2="1" y2="0.5" gradientUnits="objectBoundingBox">
      <stop offset="0.795" stop-color="#fecb4a"/>
      <stop offset="1" stop-color="#f8b126"/>
    </linearGradient>
  </defs>
  <g id="Group_141" data-name="Group 141" transform="translate(-22.749 -33.496)">
    <path id="Path_1" data-name="Path 1" d="M558.037,518.284c-.809-15.729-19.164-26.51-34.835-31-20.953-6.006-43.849-4.452-65.558-6.294a242.108,242.108,0,0,1-33.9-5.085c-10.946-2.524-21.484-6.131-32.013-9.7A364.86,364.86,0,0,0,328.5,450.489c-43.107-6.456-87.316-5.391-130.546-.394-20.182,2.332-41.662,4.628-59.457,13.8-7.891,4.065-14.751,9.36-22.016,14.175-13.564,6.387-29.109,8.546-44.175,11.088-15.751,2.658-32.334,5.923-44.536,15.52-2.352,1.849-5.992,4.478-4.784,7.6,1.188,3.063,5.865,4.424,8.86,5.734,9.493,4.154,19.166,8.178,29.424,10.74,10.561,2.637,21.159,2.965,32.082,2.551,5.747-.218,11.5-.515,17.256-.345a123.148,123.148,0,0,1,17.741,2c11.062,1.948,21.96,4.269,33.182,5.484a248.743,248.743,0,0,0,66.989-1.845c10.422-1.715,20.3-4.266,28.972-9.684,4.113-2.569,7.984-5.431,12.3-7.757a49.607,49.607,0,0,1,15.065-4.993c10.811-1.892,22.208-1.853,33.2-2.246,11.457-.41,22.95-.569,34.4.124,11.833.716,23.288,2.8,34.88,4.843a166.9,166.9,0,0,0,33.494,2.714,168.386,168.386,0,0,1,17.213.1,81.763,81.763,0,0,1,16.347,3.195c10.607,3.068,20.789,6.967,31.654,9.384a182.1,182.1,0,0,0,32.353,4.187C533.284,537.041,558.969,536.429,558.037,518.284Z" transform="translate(0 -101.401)" fill="#edfbff"/>
    <g id="Group_3" data-name="Group 3" transform="translate(355.89 93.096)">
      <g id="Group_1" data-name="Group 1" transform="translate(203.04)">
        <path id="Path_2" data-name="Path 2" d="M734.7,132.522a.89.89,0,0,1-.889-.884l-.118-18.22a.89.89,0,0,1,.884-.9h.006a.891.891,0,0,1,.89.884l.117,18.22a.891.891,0,0,1-.884.9Z" transform="translate(-733.697 -112.523)" fill="#fff"/>
      </g>
      <g id="Group_2" data-name="Group 2" transform="translate(0 0)">
        <path id="Path_3" data-name="Path 3" d="M465.365,344.669a.891.891,0,0,1-.778-1.321l57.6-104.024a7.6,7.6,0,0,1,11.681-2.023l26.98,23.772a7.241,7.241,0,0,0,10.847-1.469L666.045,115.4l-16,6.883a.89.89,0,0,1-.7-1.634l18.709-8.051a.89.89,0,0,1,1.1,1.3L573.182,260.579a9.02,9.02,0,0,1-13.512,1.83l-26.981-23.772a5.826,5.826,0,0,0-8.948,1.549l-57.6,104.025A.889.889,0,0,1,465.365,344.669Z" transform="translate(-464.476 -112.523)" fill="#fff"/>
      </g>
    </g>
    <path id="Rectangle_2" data-name="Rectangle 2" d="M14.592,0H192.264a14.592,14.592,0,0,1,14.592,14.592v0a46.48,46.48,0,0,1-46.48,46.48H46.48A46.48,46.48,0,0,1,0,14.592v0A14.592,14.592,0,0,1,14.592,0Z" transform="translate(366.317 261.884) rotate(180)" fill="#2788aa"/>
    <rect id="Rectangle_3" data-name="Rectangle 3" width="206.432" height="134.662" rx="26.793" transform="translate(159.603 239.033)" fill="#009cd4"/>
    <g id="Group_85" data-name="Group 85" transform="translate(133.614 126.118)">
      <g id="Group_14" data-name="Group 14" transform="translate(111.325 23.756)">
        <rect id="Rectangle_4" data-name="Rectangle 4" width="141.125" height="87.533" rx="8.47" transform="translate(0 118.971) rotate(-57.46)" fill="#58b9db"/>
        <rect id="Rectangle_5" data-name="Rectangle 5" width="27.213" height="27.213" transform="matrix(0.843, 0.538, -0.538, 0.843, 73.407, 19.028)" fill="#45adc9"/>
        <rect id="Rectangle_6" data-name="Rectangle 6" width="27.213" height="27.213" transform="translate(107.956 41.073) rotate(32.54)" fill="#45adc9"/>
        <g id="Group_8" data-name="Group 8" transform="translate(45.562 43.937)">
          <g id="Group_4" data-name="Group 4" transform="translate(8.112)">
            <path id="Path_4" data-name="Path 4" d="M416.8,265.113a.736.736,0,0,1-.4-.117l-27.529-17.565a.741.741,0,0,1,.8-1.25l27.53,17.566a.742.742,0,0,1-.4,1.367Z" transform="translate(-388.53 -246.064)" fill="#45adc9"/>
          </g>
          <g id="Group_5" data-name="Group 5" transform="translate(5.408 4.238)">
            <path id="Path_5" data-name="Path 5" d="M413.215,270.732a.741.741,0,0,1-.4-.116l-27.529-17.566a.741.741,0,0,1,.8-1.25l27.529,17.565a.741.741,0,0,1-.4,1.367Z" transform="translate(-384.945 -251.684)" fill="#45adc9"/>
          </g>
          <g id="Group_6" data-name="Group 6" transform="translate(2.704 8.476)">
            <path id="Path_6" data-name="Path 6" d="M409.629,276.352a.736.736,0,0,1-.4-.117L381.7,258.671a.741.741,0,0,1,.8-1.25l27.53,17.566a.742.742,0,0,1-.4,1.367Z" transform="translate(-381.359 -257.304)" fill="#45adc9"/>
          </g>
          <g id="Group_7" data-name="Group 7" transform="translate(0 12.714)">
            <path id="Path_7" data-name="Path 7" d="M406.044,281.971a.74.74,0,0,1-.4-.116l-27.53-17.566a.741.741,0,0,1,.8-1.25L406.443,280.6a.741.741,0,0,1-.4,1.367Z" transform="translate(-377.774 -262.923)" fill="#45adc9"/>
          </g>
        </g>
        <g id="Group_13" data-name="Group 13" transform="translate(79.567 65.634)">
          <g id="Group_9" data-name="Group 9" transform="translate(8.113)">
            <path id="Path_8" data-name="Path 8" d="M461.889,293.882a.736.736,0,0,1-.4-.117L433.962,276.2a.741.741,0,1,1,.8-1.25l27.53,17.565a.742.742,0,0,1-.4,1.367Z" transform="translate(-433.619 -274.834)" fill="#45adc9"/>
          </g>
          <g id="Group_10" data-name="Group 10" transform="translate(5.408 4.238)">
            <path id="Path_9" data-name="Path 9" d="M458.3,299.5a.739.739,0,0,1-.4-.116L430.377,281.82a.741.741,0,0,1,.8-1.25L458.7,298.136a.741.741,0,0,1-.4,1.366Z" transform="translate(-430.034 -280.453)" fill="#45adc9"/>
          </g>
          <g id="Group_11" data-name="Group 11" transform="translate(2.704 8.476)">
            <path id="Path_10" data-name="Path 10" d="M454.719,305.121a.736.736,0,0,1-.4-.117L426.791,287.44a.741.741,0,1,1,.8-1.25l27.53,17.565a.742.742,0,0,1-.4,1.367Z" transform="translate(-426.448 -286.073)" fill="#45adc9"/>
          </g>
          <g id="Group_12" data-name="Group 12" transform="translate(0 12.714)">
            <path id="Path_11" data-name="Path 11" d="M451.133,310.74a.733.733,0,0,1-.4-.116l-27.53-17.566a.741.741,0,1,1,.8-1.25l27.529,17.566a.741.741,0,0,1-.4,1.366Z" transform="translate(-422.863 -291.692)" fill="#45adc9"/>
          </g>
        </g>
      </g>
      <g id="Group_36" data-name="Group 36" transform="translate(0 17.872)">
        <path id="Path_12" data-name="Path 12" d="M307.7,297.021l-59.738-113.6a6.388,6.388,0,0,0-8.627-2.68l-66.166,34.794a6.388,6.388,0,0,0-2.681,8.627l59.738,113.6a6.388,6.388,0,0,0,8.627,2.681l66.166-34.794A6.389,6.389,0,0,0,307.7,297.021Z" transform="translate(-169.75 -180.006)" fill="#9bd5e9"/>
        <rect id="Rectangle_7" data-name="Rectangle 7" width="27.213" height="27.213" transform="translate(13.046 50.11) rotate(-27.738)" fill="#79c7e2"/>
        <g id="Group_19" data-name="Group 19" transform="translate(41.076 19.634)">
          <g id="Group_15" data-name="Group 15">
            <path id="Path_13" data-name="Path 13" d="M225.106,223.018a.89.89,0,0,1-.415-1.677l28.9-15.2a.89.89,0,0,1,.828,1.575l-28.9,15.2A.889.889,0,0,1,225.106,223.018Z" transform="translate(-224.215 -206.039)" fill="#79c7e2"/>
          </g>
          <g id="Group_16" data-name="Group 16" transform="translate(3.715 7.065)">
            <path id="Path_14" data-name="Path 14" d="M230.032,232.386a.89.89,0,0,1-.415-1.677l28.9-15.2a.89.89,0,1,1,.828,1.575l-28.9,15.2A.886.886,0,0,1,230.032,232.386Z" transform="translate(-229.141 -215.407)" fill="#79c7e2"/>
          </g>
          <g id="Group_17" data-name="Group 17" transform="translate(7.43 14.13)">
            <path id="Path_15" data-name="Path 15" d="M234.958,241.754a.89.89,0,0,1-.415-1.677l28.9-15.2a.89.89,0,0,1,.828,1.575l-28.9,15.2A.887.887,0,0,1,234.958,241.754Z" transform="translate(-234.067 -224.775)" fill="#79c7e2"/>
          </g>
          <g id="Group_18" data-name="Group 18" transform="translate(11.146 21.196)">
            <path id="Path_16" data-name="Path 16" d="M239.884,251.122a.89.89,0,0,1-.415-1.677l28.9-15.2a.89.89,0,1,1,.829,1.575l-28.9,15.2A.89.89,0,0,1,239.884,251.122Z" transform="translate(-238.994 -234.143)" fill="#79c7e2"/>
          </g>
        </g>
        <g id="Group_24" data-name="Group 24" transform="translate(33.305 58.586)">
          <g id="Group_20" data-name="Group 20">
            <path id="Path_17" data-name="Path 17" d="M214.653,289.4a.741.741,0,0,1-.346-1.4l57.486-30.23a.742.742,0,0,1,.69,1.313L215,289.314A.732.732,0,0,1,214.653,289.4Z" transform="translate(-213.911 -257.687)" fill="#79c7e2"/>
          </g>
          <g id="Group_21" data-name="Group 21" transform="translate(2.026 3.854)">
            <path id="Path_18" data-name="Path 18" d="M217.34,294.51a.741.741,0,0,1-.345-1.4l57.485-30.23a.741.741,0,0,1,.69,1.312l-57.485,30.23A.738.738,0,0,1,217.34,294.51Z" transform="translate(-216.598 -262.797)" fill="#79c7e2"/>
          </g>
          <g id="Group_22" data-name="Group 22" transform="translate(4.053 7.708)">
            <path id="Path_19" data-name="Path 19" d="M220.027,299.619a.742.742,0,0,1-.345-1.4l57.485-30.229a.741.741,0,0,1,.69,1.312l-57.485,30.23A.746.746,0,0,1,220.027,299.619Z" transform="translate(-219.285 -267.907)" fill="#79c7e2"/>
          </g>
          <g id="Group_23" data-name="Group 23" transform="translate(6.08 11.561)">
            <path id="Path_20" data-name="Path 20" d="M222.714,304.729a.742.742,0,0,1-.345-1.4L279.854,273.1a.741.741,0,0,1,.69,1.312l-57.485,30.229A.738.738,0,0,1,222.714,304.729Z" transform="translate(-221.972 -273.017)" fill="#79c7e2"/>
          </g>
        </g>
        <g id="Group_29" data-name="Group 29" transform="translate(41.58 74.322)">
          <g id="Group_25" data-name="Group 25">
            <path id="Path_21" data-name="Path 21" d="M225.625,310.265a.741.741,0,0,1-.345-1.4l57.485-30.229a.741.741,0,0,1,.69,1.312L225.97,310.179A.738.738,0,0,1,225.625,310.265Z" transform="translate(-224.883 -278.553)" fill="#79c7e2"/>
          </g>
          <g id="Group_26" data-name="Group 26" transform="translate(2.027 3.854)">
            <path id="Path_22" data-name="Path 22" d="M228.312,315.375a.741.741,0,0,1-.345-1.4l57.485-30.229a.741.741,0,1,1,.69,1.312l-57.485,30.229A.737.737,0,0,1,228.312,315.375Z" transform="translate(-227.57 -283.663)" fill="#79c7e2"/>
          </g>
          <g id="Group_27" data-name="Group 27" transform="translate(4.053 7.707)">
            <path id="Path_23" data-name="Path 23" d="M231,320.484a.741.741,0,0,1-.345-1.4l57.485-30.23a.742.742,0,0,1,.69,1.313L231.344,320.4A.738.738,0,0,1,231,320.484Z" transform="translate(-230.257 -288.772)" fill="#79c7e2"/>
          </g>
          <g id="Group_28" data-name="Group 28" transform="translate(6.08 11.561)">
            <path id="Path_24" data-name="Path 24" d="M233.686,325.594a.742.742,0,0,1-.345-1.4l57.485-30.229a.741.741,0,1,1,.69,1.312l-57.485,30.23A.744.744,0,0,1,233.686,325.594Z" transform="translate(-232.944 -293.882)" fill="#79c7e2"/>
          </g>
        </g>
        <g id="Group_34" data-name="Group 34" transform="translate(49.855 90.058)">
          <g id="Group_30" data-name="Group 30">
            <path id="Path_25" data-name="Path 25" d="M236.6,331.13a.742.742,0,0,1-.345-1.4L293.737,299.5a.741.741,0,1,1,.69,1.312l-57.485,30.23A.744.744,0,0,1,236.6,331.13Z" transform="translate(-235.855 -299.418)" fill="#79c7e2"/>
          </g>
          <g id="Group_31" data-name="Group 31" transform="translate(2.027 3.854)">
            <path id="Path_26" data-name="Path 26" d="M239.284,336.24a.742.742,0,0,1-.345-1.4l57.485-30.229a.741.741,0,1,1,.69,1.312l-57.485,30.229A.736.736,0,0,1,239.284,336.24Z" transform="translate(-238.542 -304.528)" fill="#79c7e2"/>
          </g>
          <g id="Group_32" data-name="Group 32" transform="translate(4.053 7.707)">
            <path id="Path_27" data-name="Path 27" d="M241.971,341.35a.741.741,0,0,1-.345-1.4l57.485-30.229a.741.741,0,1,1,.69,1.312l-57.485,30.229A.735.735,0,0,1,241.971,341.35Z" transform="translate(-241.229 -309.638)" fill="#79c7e2"/>
          </g>
          <g id="Group_33" data-name="Group 33" transform="translate(6.08 11.561)">
            <path id="Path_28" data-name="Path 28" d="M244.659,346.46a.742.742,0,0,1-.346-1.4L301.8,314.833a.741.741,0,1,1,.69,1.312L245,346.374A.735.735,0,0,1,244.659,346.46Z" transform="translate(-243.917 -314.747)" fill="#79c7e2"/>
          </g>
        </g>
        <g id="Group_35" data-name="Group 35" transform="translate(30.521 67.783)">
          <path id="Path_29" data-name="Path 29" d="M216.375,283.495a3.266,3.266,0,1,1-4.41-1.37A3.265,3.265,0,0,1,216.375,283.495Z" transform="translate(-210.219 -272.799)" fill="#79c7e2"/>
          <path id="Path_30" data-name="Path 30" d="M226.6,278.12a3.266,3.266,0,1,1-4.41-1.37A3.266,3.266,0,0,1,226.6,278.12Z" transform="translate(-212.731 -271.478)" fill="#79c7e2"/>
          <circle id="Ellipse_1" data-name="Ellipse 1" cx="3.266" cy="3.266" r="3.266" transform="matrix(0.306, -0.952, 0.952, 0.306, 14.572, 6.217)" fill="#79c7e2"/>
        </g>
      </g>
      <g id="Group_47" data-name="Group 47" transform="translate(90.069)">
        <path id="Path_31" data-name="Path 31" d="M414.829,184.392l-69.464-27.63a6.388,6.388,0,0,0-8.3,3.575L289.631,279.6a6.389,6.389,0,0,0,3.575,8.3l69.464,27.63a6.388,6.388,0,0,0,8.3-3.575L418.4,192.689A6.388,6.388,0,0,0,414.829,184.392Z" transform="translate(-289.177 -156.308)" fill="#9bd5e9"/>
        <rect id="Rectangle_8" data-name="Rectangle 8" width="27.213" height="27.213" transform="matrix(0.929, 0.37, -0.37, 0.929, 51.376, 17.252)" fill="#79c7e2"/>
        <rect id="Rectangle_9" data-name="Rectangle 9" width="27.213" height="27.213" transform="matrix(0.929, 0.37, -0.37, 0.929, 89.457, 32.399)" fill="#79c7e2"/>
        <g id="Group_41" data-name="Group 41" transform="translate(31.088 45.129)">
          <g id="Group_37" data-name="Group 37" transform="translate(5.574)">
            <path id="Path_32" data-name="Path 32" d="M369.023,230a.9.9,0,0,1-.329-.063l-30.344-12.07a.89.89,0,0,1,.658-1.653l30.344,12.07a.89.89,0,0,1-.329,1.717Z" transform="translate(-337.789 -216.146)" fill="#79c7e2"/>
          </g>
          <g id="Group_38" data-name="Group 38" transform="translate(3.716 4.672)">
            <path id="Path_33" data-name="Path 33" d="M366.559,236.189a.9.9,0,0,1-.329-.063l-30.344-12.07a.89.89,0,0,1,.658-1.653l30.344,12.069a.89.89,0,0,1-.329,1.717Z" transform="translate(-335.326 -222.341)" fill="#79c7e2"/>
          </g>
          <g id="Group_39" data-name="Group 39" transform="translate(1.858 9.343)">
            <path id="Path_34" data-name="Path 34" d="M364.095,242.383a.891.891,0,0,1-.329-.063l-30.343-12.069a.89.89,0,0,1,.658-1.653l30.343,12.069a.89.89,0,0,1-.329,1.717Z" transform="translate(-332.862 -228.535)" fill="#79c7e2"/>
          </g>
          <g id="Group_40" data-name="Group 40" transform="translate(0 14.014)">
            <path id="Path_35" data-name="Path 35" d="M361.631,248.577a.884.884,0,0,1-.328-.063l-30.344-12.069a.89.89,0,1,1,.658-1.653l30.344,12.069a.89.89,0,0,1-.33,1.717Z" transform="translate(-330.398 -234.729)" fill="#79c7e2"/>
          </g>
        </g>
        <g id="Group_46" data-name="Group 46" transform="translate(68.569 60.038)">
          <g id="Group_42" data-name="Group 42" transform="translate(5.574)">
            <path id="Path_36" data-name="Path 36" d="M418.72,249.764a.884.884,0,0,1-.328-.063l-30.344-12.07a.89.89,0,0,1,.658-1.653l30.344,12.07a.89.89,0,0,1-.33,1.717Z" transform="translate(-387.487 -235.915)" fill="#79c7e2"/>
          </g>
          <g id="Group_43" data-name="Group 43" transform="translate(3.717 4.671)">
            <path id="Path_37" data-name="Path 37" d="M416.257,255.958a.9.9,0,0,1-.328-.063l-30.344-12.07a.89.89,0,0,1,.658-1.653l30.343,12.07a.89.89,0,0,1-.329,1.716Z" transform="translate(-385.024 -242.108)" fill="#79c7e2"/>
          </g>
          <g id="Group_44" data-name="Group 44" transform="translate(1.858 9.343)">
            <path id="Path_38" data-name="Path 38" d="M413.793,262.151a.9.9,0,0,1-.328-.063l-30.344-12.07a.89.89,0,0,1,.658-1.653l30.343,12.07a.889.889,0,0,1-.329,1.716Z" transform="translate(-382.56 -248.303)" fill="#79c7e2"/>
          </g>
          <g id="Group_45" data-name="Group 45" transform="translate(0 14.014)">
            <path id="Path_39" data-name="Path 39" d="M411.33,268.345a.9.9,0,0,1-.329-.063l-30.344-12.07a.89.89,0,1,1,.658-1.653l30.344,12.069a.89.89,0,0,1-.329,1.717Z" transform="translate(-380.096 -254.496)" fill="#79c7e2"/>
          </g>
        </g>
      </g>
      <g id="Group_69" data-name="Group 69" transform="translate(55.798 1.488)">
        <path id="Path_40" data-name="Path 40" d="M349.317,290.672,330.381,163.728a6.388,6.388,0,0,0-7.26-5.376l-73.939,11.029a6.389,6.389,0,0,0-5.376,7.261l18.936,126.944a6.388,6.388,0,0,0,7.26,5.376l73.939-11.029A6.388,6.388,0,0,0,349.317,290.672Z" transform="translate(-243.735 -158.281)" fill="#fff"/>
        <rect id="Rectangle_10" data-name="Rectangle 10" width="27.213" height="27.213" transform="matrix(0.989, -0.148, 0.148, 0.989, 9.73, 28.041)" fill="#ffcc46"/>
        <g id="Group_52" data-name="Group 52" transform="translate(40.887 18.287)">
          <g id="Group_48" data-name="Group 48">
            <path id="Path_41" data-name="Path 41" d="M298.837,189.126a.889.889,0,0,1-.13-1.769l32.3-4.818a.889.889,0,0,1,.262,1.759l-32.3,4.818A.881.881,0,0,1,298.837,189.126Z" transform="translate(-297.949 -182.529)" fill="#d9eaef"/>
          </g>
          <g id="Group_49" data-name="Group 49" transform="translate(1.177 7.895)">
            <path id="Path_42" data-name="Path 42" d="M300.4,199.594a.89.89,0,0,1-.13-1.77l32.3-4.818a.889.889,0,1,1,.262,1.76l-32.3,4.818A.871.871,0,0,1,300.4,199.594Z" transform="translate(-299.51 -192.997)" fill="#d9eaef"/>
          </g>
          <g id="Group_50" data-name="Group 50" transform="translate(2.355 15.79)">
            <path id="Path_43" data-name="Path 43" d="M301.96,210.063a.889.889,0,0,1-.13-1.769l32.3-4.818a.889.889,0,0,1,.262,1.759l-32.3,4.818A.878.878,0,0,1,301.96,210.063Z" transform="translate(-301.072 -203.466)" fill="#d9eaef"/>
          </g>
          <g id="Group_51" data-name="Group 51" transform="translate(3.533 23.685)">
            <path id="Path_44" data-name="Path 44" d="M303.522,220.532a.89.89,0,0,1-.13-1.77l32.3-4.818a.89.89,0,1,1,.262,1.76l-32.3,4.818A.872.872,0,0,1,303.522,220.532Z" transform="translate(-302.633 -213.934)" fill="#d9eaef"/>
          </g>
        </g>
        <g id="Group_57" data-name="Group 57" transform="translate(15.807 61.882)">
          <g id="Group_53" data-name="Group 53">
            <path id="Path_45" data-name="Path 45" d="M265.435,251.4a.741.741,0,0,1-.109-1.474l64.238-9.583a.742.742,0,0,1,.219,1.467l-64.238,9.582A.781.781,0,0,1,265.435,251.4Z" transform="translate(-264.694 -240.334)" fill="#d9eaef"/>
          </g>
          <g id="Group_54" data-name="Group 54" transform="translate(0.642 4.307)">
            <path id="Path_46" data-name="Path 46" d="M266.287,257.109a.741.741,0,0,1-.109-1.474l64.238-9.582a.741.741,0,0,1,.219,1.466L266.4,257.1A.686.686,0,0,1,266.287,257.109Z" transform="translate(-265.546 -246.045)" fill="#d9eaef"/>
          </g>
          <g id="Group_55" data-name="Group 55" transform="translate(1.284 8.613)">
            <path id="Path_47" data-name="Path 47" d="M267.138,262.819a.741.741,0,0,1-.109-1.474l64.239-9.582a.741.741,0,1,1,.219,1.466l-64.239,9.582A.685.685,0,0,1,267.138,262.819Z" transform="translate(-266.397 -251.754)" fill="#d9eaef"/>
          </g>
          <g id="Group_56" data-name="Group 56" transform="translate(1.927 12.92)">
            <path id="Path_48" data-name="Path 48" d="M267.99,268.529a.741.741,0,0,1-.109-1.474l64.238-9.582a.741.741,0,0,1,.219,1.466L268.1,268.521A.785.785,0,0,1,267.99,268.529Z" transform="translate(-267.249 -257.464)" fill="#d9eaef"/>
          </g>
        </g>
        <g id="Group_62" data-name="Group 62" transform="translate(18.43 79.467)">
          <g id="Group_58" data-name="Group 58">
            <path id="Path_49" data-name="Path 49" d="M268.913,274.715a.742.742,0,0,1-.109-1.475l64.238-9.582a.741.741,0,0,1,.219,1.466l-64.238,9.583A.781.781,0,0,1,268.913,274.715Z" transform="translate(-268.172 -263.65)" fill="#d9eaef"/>
          </g>
          <g id="Group_59" data-name="Group 59" transform="translate(0.642 4.307)">
            <path id="Path_50" data-name="Path 50" d="M269.764,280.425a.742.742,0,0,1-.109-1.475l64.238-9.582a.741.741,0,1,1,.219,1.466l-64.238,9.583A.782.782,0,0,1,269.764,280.425Z" transform="translate(-269.023 -269.36)" fill="#d9eaef"/>
          </g>
          <g id="Group_60" data-name="Group 60" transform="translate(1.284 8.613)">
            <path id="Path_51" data-name="Path 51" d="M270.616,286.135a.742.742,0,0,1-.109-1.475l64.239-9.582a.741.741,0,1,1,.219,1.466l-64.239,9.583A.777.777,0,0,1,270.616,286.135Z" transform="translate(-269.875 -275.071)" fill="#d9eaef"/>
          </g>
          <g id="Group_61" data-name="Group 61" transform="translate(1.927 12.919)">
            <path id="Path_52" data-name="Path 52" d="M271.468,291.845a.742.742,0,0,1-.109-1.475l64.238-9.582a.742.742,0,0,1,.219,1.467l-64.238,9.582A.786.786,0,0,1,271.468,291.845Z" transform="translate(-270.727 -280.78)" fill="#d9eaef"/>
          </g>
        </g>
        <g id="Group_67" data-name="Group 67" transform="translate(21.053 97.052)">
          <g id="Group_63" data-name="Group 63">
            <path id="Path_53" data-name="Path 53" d="M272.391,298.031a.741.741,0,0,1-.109-1.474l64.238-9.583a.741.741,0,1,1,.219,1.466L272.5,298.023A.786.786,0,0,1,272.391,298.031Z" transform="translate(-271.65 -286.967)" fill="#d9eaef"/>
          </g>
          <g id="Group_64" data-name="Group 64" transform="translate(0.642 4.306)">
            <path id="Path_54" data-name="Path 54" d="M273.242,303.741a.742.742,0,0,1-.108-1.475l64.238-9.582a.742.742,0,0,1,.219,1.467l-64.238,9.582A.787.787,0,0,1,273.242,303.741Z" transform="translate(-272.501 -292.676)" fill="#d9eaef"/>
          </g>
          <g id="Group_65" data-name="Group 65" transform="translate(1.284 8.613)">
            <path id="Path_55" data-name="Path 55" d="M274.094,309.451a.741.741,0,0,1-.108-1.474l64.238-9.583a.742.742,0,0,1,.219,1.467L274.2,309.443A.679.679,0,0,1,274.094,309.451Z" transform="translate(-273.353 -298.387)" fill="#d9eaef"/>
          </g>
          <g id="Group_66" data-name="Group 66" transform="translate(1.927 12.92)">
            <path id="Path_56" data-name="Path 56" d="M274.946,315.162a.741.741,0,0,1-.109-1.474l64.238-9.582a.741.741,0,1,1,.219,1.466l-64.238,9.582A.782.782,0,0,1,274.946,315.162Z" transform="translate(-274.205 -304.098)" fill="#d9eaef"/>
          </g>
        </g>
        <g id="Group_68" data-name="Group 68" transform="translate(14.838 57.261)">
          <circle id="Ellipse_2" data-name="Ellipse 2" cx="3.266" cy="3.266" r="3.266" transform="translate(0 5.723) rotate(-43.6)" fill="#bce3e3"/>
          <circle id="Ellipse_3" data-name="Ellipse 3" cx="3.266" cy="3.266" r="3.266" transform="translate(9.964 1.285)" fill="#bce3e3"/>
          <path id="Path_57" data-name="Path 57" d="M294.537,236.99a3.265,3.265,0,1,1-3.711-2.748A3.265,3.265,0,0,1,294.537,236.99Z" transform="translate(-269.464 -234.206)" fill="#bce3e3"/>
        </g>
      </g>
      <g id="Group_74" data-name="Group 74" transform="translate(142.248 55.578)">
        <rect id="Rectangle_11" data-name="Rectangle 11" width="104.005" height="11.65" transform="translate(0 114.762) rotate(-79.871)" fill="#3f327a"/>
        <path id="Path_58" data-name="Path 58" d="M382.028,243.183l.384-.64,7.069-11.778a1.57,1.57,0,0,1,2.9.611l1.65,13.054a1.571,1.571,0,0,1-.631,1.465l-1.553,1.134a1.57,1.57,0,0,1-2.084-.207l-1.25-1.365a1.569,1.569,0,0,0-2.055-.228l-.637.443a1.57,1.57,0,0,1-2.336-.661l-1.075-2.468" transform="translate(-364.181 -230.002)" fill="#8071c6"/>
        <path id="Path_59" data-name="Path 59" d="M394.515,236.571l-.637-5.03a1.569,1.569,0,0,0-2.9-.611l-2.778,4.628C389.143,237.248,392.047,237.273,394.515,236.571Z" transform="translate(-365.697 -230.042)" fill="#201940"/>
        <g id="Group_73" data-name="Group 73" transform="translate(5.279 18.051)">
          <g id="Group_70" data-name="Group 70">
            <path id="Path_60" data-name="Path 60" d="M365.512,333.115l-.026,0a.149.149,0,0,1-.12-.172l14.093-78.882a.148.148,0,1,1,.292.052l-14.093,78.882A.148.148,0,0,1,365.512,333.115Z" transform="translate(-365.363 -253.937)" fill="#7191c6"/>
          </g>
          <g id="Group_71" data-name="Group 71" transform="translate(3.536 0.632)">
            <path id="Path_61" data-name="Path 61" d="M370.2,333.953a.159.159,0,0,1-.026,0,.148.148,0,0,1-.12-.172L384.147,254.9a.148.148,0,1,1,.292.052L370.346,333.83A.148.148,0,0,1,370.2,333.953Z" transform="translate(-370.052 -254.775)" fill="#7191c6"/>
          </g>
          <g id="Group_72" data-name="Group 72" transform="translate(7.073 1.264)">
            <path id="Path_62" data-name="Path 62" d="M374.89,334.79l-.026,0a.148.148,0,0,1-.12-.172l14.093-78.881a.148.148,0,1,1,.292.052l-14.093,78.881A.148.148,0,0,1,374.89,334.79Z" transform="translate(-374.741 -255.613)" fill="#7191c6"/>
          </g>
        </g>
      </g>
      <g id="Group_79" data-name="Group 79" transform="translate(115.465 72.602)">
        <rect id="Rectangle_12" data-name="Rectangle 12" width="11.65" height="104.005" transform="translate(0.001 15.07) rotate(-18.761)" fill="#ff7800"/>
        <path id="Path_63" data-name="Path 63" d="M322.851,268.563l.027-.745.5-13.728a1.57,1.57,0,0,1,2.837-.868l7.751,10.632a1.569,1.569,0,0,1,.155,1.587l-.811,1.744a1.57,1.57,0,0,1-1.924.826l-1.755-.591a1.57,1.57,0,0,0-1.91.793l-.343.7a1.57,1.57,0,0,1-2.365.551l-2.134-1.642" transform="translate(-322.851 -252.575)" fill="#ffa75f"/>
        <path id="Path_64" data-name="Path 64" d="M329.364,257.478l-2.987-4.1a1.57,1.57,0,0,0-2.837.867l-.2,5.4C324.986,260.665,327.542,259.285,329.364,257.478Z" transform="translate(-322.972 -252.614)" fill="#ff7800"/>
        <g id="Group_78" data-name="Group 78" transform="translate(3.593 16.967)">
          <g id="Group_75" data-name="Group 75" transform="translate(0 2.311)">
            <path id="Path_65" data-name="Path 65" d="M353.683,354.6a.3.3,0,0,1-.281-.2l-25.772-75.873a.3.3,0,1,1,.562-.191l25.771,75.873a.295.295,0,0,1-.281.391Z" transform="translate(-327.615 -278.136)" fill="#ffa75f"/>
          </g>
          <g id="Group_76" data-name="Group 76" transform="translate(3.401 1.155)">
            <path id="Path_66" data-name="Path 66" d="M358.193,353.07a.3.3,0,0,1-.281-.2L332.141,277a.3.3,0,0,1,.562-.191l25.771,75.873a.295.295,0,0,1-.281.391Z" transform="translate(-332.125 -276.604)" fill="#ffa75f"/>
          </g>
          <g id="Group_77" data-name="Group 77" transform="translate(6.803)">
            <path id="Path_67" data-name="Path 67" d="M362.7,351.538a.3.3,0,0,1-.281-.2l-25.772-75.873a.3.3,0,0,1,.562-.191l25.771,75.873a.3.3,0,0,1-.186.376A.28.28,0,0,1,362.7,351.538Z" transform="translate(-336.635 -275.072)" fill="#ffa75f"/>
          </g>
        </g>
      </g>
      <g id="Group_84" data-name="Group 84" transform="translate(99.801 86.461)">
        <rect id="Rectangle_13" data-name="Rectangle 13" width="11.65" height="104.005" transform="matrix(0.868, -0.497, 0.497, 0.868, 2.094, 15.224)" fill="#ff6161"/>
        <path id="Path_68" data-name="Path 68" d="M304.35,287.076l-.116-.737-2.131-13.57a1.57,1.57,0,0,1,2.619-1.394l9.639,8.956a1.57,1.57,0,0,1,.456,1.528l-.464,1.867a1.57,1.57,0,0,1-1.732,1.178l-1.835-.245a1.57,1.57,0,0,0-1.723,1.143l-.2.749a1.569,1.569,0,0,1-2.217.992l-2.409-1.2" transform="translate(-302.081 -270.951)" fill="#fadcdf"/>
        <path id="Path_69" data-name="Path 69" d="M308.519,274.972,304.8,271.52a1.57,1.57,0,0,0-2.619,1.394l.838,5.334C304.832,278.936,307.076,277.093,308.519,274.972Z" transform="translate(-302.102 -270.986)" fill="#f1959e"/>
        <g id="Group_83" data-name="Group 83" transform="translate(6.474 15.039)">
          <g id="Group_80" data-name="Group 80" transform="translate(0 3.568)">
            <path id="Path_70" data-name="Path 70" d="M350.751,365.769a.3.3,0,0,1-.258-.149l-39.788-69.554a.3.3,0,0,1,.515-.294l39.788,69.554a.3.3,0,0,1-.257.443Z" transform="translate(-310.666 -295.622)" fill="#e84e5e"/>
          </g>
          <g id="Group_81" data-name="Group 81" transform="translate(3.118 1.784)">
            <path id="Path_71" data-name="Path 71" d="M354.885,363.4a.3.3,0,0,1-.257-.149L314.839,293.7a.3.3,0,0,1,.515-.295l39.788,69.555a.3.3,0,0,1-.257.443Z" transform="translate(-314.8 -293.256)" fill="#e84e5e"/>
          </g>
          <g id="Group_82" data-name="Group 82" transform="translate(6.236)">
            <path id="Path_72" data-name="Path 72" d="M359.02,361.039a.3.3,0,0,1-.258-.15l-39.788-69.553a.3.3,0,1,1,.514-.295l39.789,69.554a.3.3,0,0,1-.257.444Z" transform="translate(-318.935 -290.891)" fill="#e84e5e"/>
          </g>
        </g>
      </g>
    </g>
    <g id="Group_86" data-name="Group 86" transform="translate(132.354 128.095)">
      <path id="Path_73" data-name="Path 73" d="M209.066,174.863l-39.219,4.375a1.986,1.986,0,0,0-1.011,3.533l7.274,4.945a3.375,3.375,0,0,1,.7,4.945l-5.647,6.815a1.986,1.986,0,0,0,1.71,3.327l38.8-5.149Z" transform="translate(-168.079 -162.846)" fill="#ff6161"/>
      <path id="Path_74" data-name="Path 74" d="M220.391,158.935a.891.891,0,0,0-.785.983L239.252,336a.889.889,0,1,0,1.768-.2L221.374,159.721A.89.89,0,0,0,220.391,158.935Z" transform="translate(-180.744 -158.93)" fill="#ff6161"/>
    </g>
    <g id="Group_91" data-name="Group 91" transform="translate(124.203 398.726)">
      <path id="Path_75" data-name="Path 75" d="M175.679,535.982l97.959-6.573a5.826,5.826,0,0,0,5.423-6.2h0a5.825,5.825,0,0,0-6.2-5.422l-97.96,6.573Z" transform="translate(-161.605 -517.771)" fill="#3f327a"/>
      <path id="Path_76" data-name="Path 76" d="M173.733,534.018l-.585-.511a1.569,1.569,0,0,1-.275-2.049l1.023-1.543a1.57,1.57,0,0,0-.3-2.073l-1.476-1.233a1.569,1.569,0,0,0-1.573-.26l-12.27,4.753a1.57,1.57,0,0,0,.108,2.965l13.136,4.017,2.136-1.64A1.57,1.57,0,0,0,173.733,534.018Z" transform="translate(-157.272 -519.854)" fill="#8071c6"/>
      <path id="Path_77" data-name="Path 77" d="M163.171,530.246l-4.729,1.832a1.57,1.57,0,0,0,.108,2.965l5.163,1.579C165.123,535.3,164.447,532.471,163.171,530.246Z" transform="translate(-157.313 -520.838)" fill="#201940"/>
      <g id="Group_90" data-name="Group 90" transform="translate(18.649 2.784)">
        <g id="Group_87" data-name="Group 87" transform="translate(0.481 7.168)">
          <path id="Path_78" data-name="Path 78" d="M182.934,536.925a.3.3,0,0,1-.02-.592l79.95-5.365a.3.3,0,0,1,.04.592l-79.95,5.365Z" transform="translate(-182.638 -530.967)" fill="#ffa75f"/>
        </g>
        <g id="Group_88" data-name="Group 88" transform="translate(0.241 3.584)">
          <path id="Path_79" data-name="Path 79" d="M182.615,532.173a.3.3,0,0,1-.02-.593l79.95-5.364a.3.3,0,1,1,.04.591l-79.95,5.365Z" transform="translate(-182.319 -526.215)" fill="#ffa75f"/>
        </g>
        <g id="Group_89" data-name="Group 89">
          <path id="Path_80" data-name="Path 80" d="M182.3,527.421a.3.3,0,0,1-.02-.593l79.95-5.365a.3.3,0,0,1,.316.276.3.3,0,0,1-.276.316l-79.95,5.365Z" transform="translate(-182 -521.463)" fill="#ffa75f"/>
        </g>
      </g>
    </g>
    <path id="Path_81" data-name="Path 81" d="M193.481,63.236l-9.3-.8a2.222,2.222,0,0,0-1.907.8l-5.933,7.2a2.222,2.222,0,0,1-3.879-.911l-2.106-9.09a2.221,2.221,0,0,0-1.35-1.565l-8.683-3.418a2.221,2.221,0,0,1-.332-3.97l7.993-4.812a2.221,2.221,0,0,0,1.072-1.769l.567-9.313a2.222,2.222,0,0,1,3.674-1.542l7.047,6.116a2.222,2.222,0,0,0,2.013.472l9.033-2.338a2.221,2.221,0,0,1,2.6,3.017L190.359,49.9a2.222,2.222,0,0,0,.172,2.06l5.015,7.868A2.221,2.221,0,0,1,193.481,63.236Z" transform="translate(-33.474 0)" fill="url(#linear-gradient)"/>
    <path id="Path_82" data-name="Path 82" d="M164.615,136.869l-4.6-.4a1.1,1.1,0,0,0-.943.4l-2.935,3.561a1.1,1.1,0,0,1-1.918-.45l-1.042-4.5a1.1,1.1,0,0,0-.667-.775l-4.294-1.69a1.1,1.1,0,0,1-.164-1.964l3.954-2.38a1.1,1.1,0,0,0,.529-.874l.281-4.607a1.1,1.1,0,0,1,1.817-.763l3.486,3.025a1.1,1.1,0,0,0,1,.234l4.467-1.157a1.1,1.1,0,0,1,1.287,1.493l-1.8,4.249a1.1,1.1,0,0,0,.085,1.019l2.48,3.892A1.1,1.1,0,0,1,164.615,136.869Z" transform="translate(-30.672 -21.796)" fill="#009cd4"/>
    <path id="Path_83" data-name="Path 83" d="M81.4,362.111l-4.175-1.967a1.1,1.1,0,0,1-.616-.816l-.747-4.554a1.1,1.1,0,0,0-1.885-.575l-3.161,3.363a1.1,1.1,0,0,1-.966.333l-4.562-.7a1.1,1.1,0,0,0-1.129,1.615l2.222,4.045a1.1,1.1,0,0,1,.019,1.022l-2.072,4.124a1.1,1.1,0,0,0,1.187,1.572l4.533-.863a1.1,1.1,0,0,1,.978.3l3.281,3.245a1.1,1.1,0,0,0,1.863-.643l.58-4.578a1.1,1.1,0,0,1,.586-.838l4.1-2.118A1.1,1.1,0,0,0,81.4,362.111Z" transform="translate(-10.145 -78.751)" fill="#ffa42f"/>
    <path id="Path_84" data-name="Path 84" d="M715.737,250.7l-2.883-3.6a1.1,1.1,0,0,0-.937-.41l-4.6.333a1.1,1.1,0,0,1-1-1.7l2.535-3.856a1.1,1.1,0,0,0,.1-1.017l-1.739-4.275a1.1,1.1,0,0,1,1.309-1.474l4.45,1.22a1.1,1.1,0,0,0,1-.22l3.529-2.974a1.1,1.1,0,0,1,1.805.789l.215,4.61a1.1,1.1,0,0,0,.517.882l3.919,2.436a1.1,1.1,0,0,1-.192,1.961l-4.318,1.629a1.1,1.1,0,0,0-.679.765l-1.106,4.481A1.1,1.1,0,0,1,715.737,250.7Z" transform="translate(-167.991 -48.91)" fill="#ff6161"/>
    <rect id="Rectangle_14" data-name="Rectangle 14" width="195.45" height="49.25" transform="translate(165.849 261.348)" fill="#d9eaef"/>
    <path id="Path_85" data-name="Path 85" d="M260.058,363.577v66.275a12.066,12.066,0,0,0,12.067,12.067h102.4a12.066,12.066,0,0,0,12.067-12.067V363.577Z" transform="translate(-58.336 -81.141)" fill="#edfbff"/>
    <g id="Group_94" data-name="Group 94" transform="translate(332.476 258.638)">
      <rect id="Rectangle_15" data-name="Rectangle 15" width="13.521" height="64.922" transform="translate(3.983 49.396)" fill="#a23b3b"/>
      <path id="Path_86" data-name="Path 86" d="M445.472,417.363h0a6.76,6.76,0,0,1-6.76-6.76V338.783a6.761,6.761,0,0,1,6.76-6.76h0a6.761,6.761,0,0,1,6.76,6.76V410.6A6.76,6.76,0,0,1,445.472,417.363Z" transform="translate(-434.729 -332.023)" fill="#ff6161"/>
      <g id="Group_92" data-name="Group 92" transform="translate(0 57.854)">
        <path id="Path_87" data-name="Path 87" d="M450.691,424.242H437.657a4.231,4.231,0,0,1-4.226-4.226v-7.055a4.231,4.231,0,0,1,4.226-4.226h13.034a4.231,4.231,0,0,1,4.226,4.226v7.055A4.231,4.231,0,0,1,450.691,424.242Zm-13.034-13.728a2.45,2.45,0,0,0-2.447,2.447v7.055a2.45,2.45,0,0,0,2.447,2.447h13.034a2.45,2.45,0,0,0,2.447-2.447v-7.055a2.45,2.45,0,0,0-2.447-2.447Z" transform="translate(-433.431 -408.735)" fill="url(#linear-gradient-2)"/>
      </g>
      <g id="Group_93" data-name="Group 93" transform="translate(9.853 55.212)">
        <path id="Path_88" data-name="Path 88" d="M447.386,418.059a.89.89,0,0,1-.89-.89V406.121a.89.89,0,1,1,1.78,0v11.048A.89.89,0,0,1,447.386,418.059Z" transform="translate(-446.496 -405.231)" fill="#fff"/>
      </g>
      <path id="Path_89" data-name="Path 89" d="M446.631,392.26a3.206,3.206,0,1,1,3.206-3.206A3.21,3.21,0,0,1,446.631,392.26Zm0-4.633a1.427,1.427,0,1,0,1.427,1.427A1.429,1.429,0,0,0,446.631,387.627Z" transform="translate(-435.888 -345.254)" fill="url(#linear-gradient-2)"/>
      <path id="Path_90" data-name="Path 90" d="M446.631,377.394a3.206,3.206,0,1,1,3.206-3.206A3.21,3.21,0,0,1,446.631,377.394Zm0-4.633a1.427,1.427,0,1,0,1.427,1.427A1.429,1.429,0,0,0,446.631,372.761Z" transform="translate(-435.888 -341.6)" fill="url(#linear-gradient-2)"/>
      <path id="Path_91" data-name="Path 91" d="M446.631,362.528a3.206,3.206,0,1,1,3.206-3.206A3.21,3.21,0,0,1,446.631,362.528Zm0-4.633a1.427,1.427,0,1,0,1.427,1.427A1.429,1.429,0,0,0,446.631,357.9Z" transform="translate(-435.888 -337.946)" fill="url(#linear-gradient-2)"/>
    </g>
    <g id="Group_101" data-name="Group 101" transform="translate(175.185 258.638)">
      <rect id="Rectangle_16" data-name="Rectangle 16" width="13.521" height="64.922" transform="translate(3.983 49.396)" fill="#a23b3b"/>
      <path id="Path_92" data-name="Path 92" d="M236.912,417.363h0a6.76,6.76,0,0,1-6.76-6.76V338.783a6.761,6.761,0,0,1,6.76-6.76h0a6.761,6.761,0,0,1,6.76,6.76V410.6A6.76,6.76,0,0,1,236.912,417.363Z" transform="translate(-226.169 -332.023)" fill="#ff6161"/>
      <g id="Group_100" data-name="Group 100" transform="translate(0 18.17)">
        <g id="Group_95" data-name="Group 95" transform="translate(0 39.684)">
          <path id="Path_93" data-name="Path 93" d="M242.131,424.242H229.1a4.231,4.231,0,0,1-4.226-4.226v-7.055a4.231,4.231,0,0,1,4.226-4.226h13.034a4.231,4.231,0,0,1,4.226,4.226v7.055A4.231,4.231,0,0,1,242.131,424.242ZM229.1,410.514a2.45,2.45,0,0,0-2.447,2.447v7.055a2.45,2.45,0,0,0,2.447,2.447h13.034a2.45,2.45,0,0,0,2.447-2.447v-7.055a2.45,2.45,0,0,0-2.447-2.447Z" transform="translate(-224.871 -408.735)" fill="url(#linear-gradient-2)"/>
        </g>
        <g id="Group_96" data-name="Group 96" transform="translate(9.853 37.041)">
          <path id="Path_94" data-name="Path 94" d="M238.826,418.059a.89.89,0,0,1-.89-.89V406.121a.89.89,0,1,1,1.779,0v11.048A.889.889,0,0,1,238.826,418.059Z" transform="translate(-237.936 -405.231)" fill="#fff"/>
        </g>
        <g id="Group_97" data-name="Group 97" transform="translate(7.537 22.423)">
          <path id="Path_95" data-name="Path 95" d="M238.071,392.26a3.206,3.206,0,1,1,3.206-3.206A3.21,3.21,0,0,1,238.071,392.26Zm0-4.633a1.427,1.427,0,1,0,1.427,1.427A1.429,1.429,0,0,0,238.071,387.627Z" transform="translate(-234.865 -385.848)" fill="url(#linear-gradient-2)"/>
        </g>
        <g id="Group_98" data-name="Group 98" transform="translate(7.537 11.212)">
          <path id="Path_96" data-name="Path 96" d="M238.071,377.394a3.206,3.206,0,1,1,3.206-3.206A3.21,3.21,0,0,1,238.071,377.394Zm0-4.633a1.427,1.427,0,1,0,1.427,1.427A1.429,1.429,0,0,0,238.071,372.761Z" transform="translate(-234.865 -370.982)" fill="url(#linear-gradient-2)"/>
        </g>
        <g id="Group_99" data-name="Group 99" transform="translate(7.537)">
          <path id="Path_97" data-name="Path 97" d="M238.071,362.528a3.206,3.206,0,1,1,3.206-3.206A3.21,3.21,0,0,1,238.071,362.528Zm0-4.633a1.427,1.427,0,1,0,1.427,1.427A1.429,1.429,0,0,0,238.071,357.9Z" transform="translate(-234.865 -356.116)" fill="url(#linear-gradient-2)"/>
        </g>
      </g>
    </g>
    <path id="Path_98" data-name="Path 98" d="M216.876,338.571H401a4.384,4.384,0,0,0,4.384-4.384h0A4.384,4.384,0,0,0,401,329.8H216.876a4.384,4.384,0,0,0-4.384,4.384h0A4.384,4.384,0,0,0,216.876,338.571Z" transform="translate(-46.643 -72.839)" fill="#037fac"/>
    <g id="Group_108" data-name="Group 108" transform="translate(280.062 39.97)">
      <g id="Group_102" data-name="Group 102" transform="translate(32.1 42.436)">
        <path id="Path_99" data-name="Path 99" d="M408.242,115.015a1.98,1.98,0,0,1-1.366-3.126c1.236-1.709,2.417-4.214,1.027-6.435a2.611,2.611,0,0,1-.219-2.665c1.6-3.225,10.589-4.2,12.375-4.365l.823-.075.136.815c.041.244.956,6.017-2.451,10.629-2.124,2.875-5.429,4.63-9.824,5.217A2.059,2.059,0,0,1,408.242,115.015Zm11.1-14.729c-3.979.462-9.273,1.693-10.065,3.293a.865.865,0,0,0,.133.931c1.494,2.388,1.106,5.38-1.094,8.422a.185.185,0,0,0-.011.219.187.187,0,0,0,.2.1c3.892-.52,6.792-2.034,8.619-4.5A13.246,13.246,0,0,0,419.343,100.286Z" transform="translate(-406.495 -98.348)" fill="#ffa42f"/>
      </g>
      <g id="Group_103" data-name="Group 103" transform="translate(9.095 14.169)">
        <path id="Path_100" data-name="Path 100" d="M386.7,73.954a2.678,2.678,0,0,1-1.9-1.2c-1.534-2.125-4.3-1.974-6.349-1.474a1.977,1.977,0,0,1-2.186-2.9c2.2-3.849,5.072-6.249,8.535-7.133,5.557-1.418,10.559,1.606,10.77,1.735l.7.433-.379.733c-.824,1.593-5.118,9.552-8.707,9.817A2.576,2.576,0,0,1,386.7,73.954Zm-4.883-4.708a6.081,6.081,0,0,1,4.424,2.468c.324.447.592.491.812.474,1.783-.132,4.917-4.57,6.844-8.082a13.246,13.246,0,0,0-8.675-1.134c-2.971.763-5.466,2.879-7.414,6.288a.2.2,0,0,0,.219.293A10.886,10.886,0,0,1,381.812,69.246Z" transform="translate(-375.992 -60.868)" fill="#ffa42f"/>
      </g>
      <g id="Group_106" data-name="Group 106" transform="translate(0 34.642)">
        <g id="Group_104" data-name="Group 104">
          <path id="Path_101" data-name="Path 101" d="M368.841,108.976q-1.428-.161-2.851-.452a2.609,2.609,0,0,1-1.628-.861,2.243,2.243,0,0,1-.4-1.282h0c-.364-6.364,2.423-11.912,8.282-16.492,1.845-1.443,3.428-2.68,6.565-1.224a15.672,15.672,0,0,1,7.6,8.019,8.381,8.381,0,0,1-1.446,8.935,11.656,11.656,0,0,1-5.432,2.695A30.208,30.208,0,0,1,368.841,108.976Zm7.72-19.168c-1.155-.13-1.927.474-3.2,1.472-5.387,4.211-7.945,9.253-7.616,15h0a1.053,1.053,0,0,0,.044.312c.022.025.123.1.563.189a28.94,28.94,0,0,0,12.758-.193,9.621,9.621,0,0,0,4.606-2.226,6.613,6.613,0,0,0,1.042-7.043,13.769,13.769,0,0,0-6.69-7.039A4.936,4.936,0,0,0,376.561,89.808Z" transform="translate(-363.932 -88.013)" fill="#ffa42f"/>
        </g>
        <g id="Group_105" data-name="Group 105" transform="translate(6.29 1.468)">
          <path id="Path_102" data-name="Path 102" d="M375.193,105.018q-.723-.081-1.438-.219a1.579,1.579,0,0,1-1.478-1.793h0c.188-4.419,2.361-8.328,6.458-11.62,1.3-1.044,2.517-2.023,4.639-.983a9.036,9.036,0,0,1,4.554,5.6,6.7,6.7,0,0,1-1.554,6.365,8.693,8.693,0,0,1-3.759,2.012A18.985,18.985,0,0,1,375.193,105.018Zm-1.139-1.8Zm0-.176.036.007a17.169,17.169,0,0,0,8.025-.376,6.791,6.791,0,0,0,3-1.563,4.9,4.9,0,0,0,1.091-4.655A7.292,7.292,0,0,0,382.591,92c-1.061-.52-1.443-.271-2.732.764C376.181,95.72,374.232,99.176,374.056,103.045Z" transform="translate(-372.272 -89.96)" fill="#ffa42f"/>
        </g>
      </g>
      <path id="Path_103" data-name="Path 103" d="M393.219,91.616s6.208,2.151,29.652-9.976c24.14-12.487,22.873-36.262,22.873-36.262C444.4,44.285,423.837,35.4,403.4,52.363c-20.307,16.86-20.747,23.416-20.747,23.416l4.4,8.248.284.32Z" transform="translate(-368.535 -42.08)" fill="#037fac"/>
      <path id="Path_104" data-name="Path 104" d="M380.053,85.8h0a1.613,1.613,0,0,0-.438,2.238l10.351,15.389a1.613,1.613,0,0,0,2.238.438h0a1.612,1.612,0,0,0,.437-2.238l-10.35-15.39A1.613,1.613,0,0,0,380.053,85.8Z" transform="translate(-367.72 -52.759)" fill="url(#linear-gradient)"/>
      <g id="Group_107" data-name="Group 107" transform="translate(51.834 2.025)">
        <path id="Path_105" data-name="Path 105" d="M450.022,68.337a.886.886,0,0,1-.608-.345l-16.571-21.8a.889.889,0,1,1,1.416-1.076l16.571,21.8a.89.89,0,0,1-.808,1.422Z" transform="translate(-432.662 -44.766)" fill="#fabc34"/>
      </g>
    </g>
    <g id="Group_109" data-name="Group 109" transform="translate(156.842 82.071)">
      <path id="Path_106" data-name="Path 106" d="M300.489,136.3a.89.89,0,0,1-.836-.587c-4.557-12.587-19.369-20.444-32.345-17.157-4.28,1.085-8.31,3.226-12.209,5.3-1.27.674-2.582,1.372-3.89,2.026-5.181,2.591-13.693,5.993-22.658,5.993a29.551,29.551,0,0,1-12.1-2.441,27.727,27.727,0,0,1-15.226-30.84.89.89,0,1,1,1.73.416,25.95,25.95,0,0,0,14.218,28.8c12.078,5.364,26.009.1,33.239-3.517,1.287-.644,2.591-1.336,3.851-2.005,3.991-2.121,8.119-4.313,12.606-5.45,13.823-3.5,29.6,4.867,34.455,18.276a.89.89,0,0,1-.836,1.192Z" transform="translate(-200.549 -97.903)" fill="#edfbff"/>
    </g>
    <g id="Group_111" data-name="Group 111" transform="translate(367.922 52.605)">
      <g id="Group_110" data-name="Group 110" transform="translate(0 41.766)">
        <path id="Path_107" data-name="Path 107" d="M486.261,175.35a.89.89,0,0,1,.2-1.75c12.126-.294,23.622-6.889,29.287-16.8a29.853,29.853,0,0,0,3.835-14.82,44,44,0,0,1-15.165,3.947c-5.605.411-10.458-.348-14.421-2.256a16.526,16.526,0,0,1-9.318-11.227,14.217,14.217,0,0,1,2.811-11.307,17.022,17.022,0,0,1,9.917-6.525c7.342-1.571,15.67,1.631,21.216,8.159a29.309,29.309,0,0,1,6.6,16.409,46.084,46.084,0,0,0,5.754-3.648,43.487,43.487,0,0,0,14.828-19.219.889.889,0,1,1,1.66.638,45.253,45.253,0,0,1-15.427,20.009,47.8,47.8,0,0,1-6.7,4.168,31.7,31.7,0,0,1-4.045,16.556c-5.967,10.442-18.053,17.388-30.789,17.7A.883.883,0,0,1,486.261,175.35Zm15.59-58.752a17.518,17.518,0,0,0-8.067-.25c-7.291,1.56-12.7,9.063-11.356,15.74a14.742,14.742,0,0,0,8.345,9.976c3.68,1.773,8.229,2.474,13.519,2.085a42.311,42.311,0,0,0,15.23-4.108,27.664,27.664,0,0,0-6.251-16.122A22.669,22.669,0,0,0,501.851,116.6Z" transform="translate(-480.431 -114.214)" fill="#edfbff"/>
      </g>
      <path id="Path_108" data-name="Path 108" d="M584.787,92.572a3.022,3.022,0,0,0-2.514-2.984,3.02,3.02,0,0,0,.013-5.957,3.02,3.02,0,0,0,.012-5.956,3.019,3.019,0,0,0-.352-5.995v-.008h-.138l-8.988-.019.005-2.756a33.518,33.518,0,0,0,.574-7.044c-.063-1.123-.309-2.407-1.5-2.809l-.159-.054a2.955,2.955,0,0,0-3.746,1.851c-.842,2.488-1.428,4.973-3.152,7.032-1.919,2.293-4.7,3.9-6.03,6.582a4.785,4.785,0,0,0-.464,1.48q-.086.187-.161.379l-.558,0a2.537,2.537,0,0,0-2.542,2.531l-.024,11.341a2.537,2.537,0,0,0,2.531,2.542l1.691,0a7.367,7.367,0,0,0,5.738,2.757l16.1.034a3.022,3.022,0,0,0,3.659-2.949Z" transform="translate(-498.777 -58.834)" fill="#3f327a"/>
    </g>
    <g id="Group_112" data-name="Group 112" transform="translate(57.748 145.402)">
      <path id="Path_109" data-name="Path 109" d="M146.664,303.4c-.431,0-.862-.007-1.294-.02a36.866,36.866,0,0,1-34.312-24.942,37,37,0,0,1-26.132-10.958c-10.911-10.868-14.394-25.931-15.394-36.654-1.729-18.532,2.55-35.788,12.048-48.587a.89.89,0,0,1,1.429,1.06c-9.236,12.446-13.394,29.267-11.706,47.362.973,10.43,4.344,25.066,14.879,35.558a36.67,36.67,0,0,0,16.889,9.5,32.133,32.133,0,0,0,7.4.952,38.127,38.127,0,0,1-.475-21.2c1.276-4.609,3.239-7.777,6-9.684,3.052-2.108,7.023-2.333,10.895-.618A14.3,14.3,0,0,1,135.38,255.9c1.174,8.817-5.564,16.764-12.829,20.057a28.2,28.2,0,0,1-9.626,2.4,36.373,36.373,0,0,0,53.222,17.734.89.89,0,1,1,.96,1.5A38.134,38.134,0,0,1,146.664,303.4Zm-24.906-57.591A8.269,8.269,0,0,0,117,247.249c-2.4,1.661-4.137,4.5-5.3,8.7a36.39,36.39,0,0,0,.613,20.684,26.453,26.453,0,0,0,9.5-2.292c6.666-3.022,12.859-10.245,11.8-18.2a12.494,12.494,0,0,0-7.448-9.342A10.92,10.92,0,0,0,121.758,245.808Z" transform="translate(-69.156 -181.878)" fill="#edfbff"/>
    </g>
    <g id="Group_113" data-name="Group 113" transform="translate(35.455 97.951)">
      <path id="Path_110" data-name="Path 110" d="M65.326,162.714a12.092,12.092,0,0,0,1.5-4.468l.006.087,3.1-.217-.346-4.944-3.1.216.006.087a12.078,12.078,0,0,0-2.1-4.217l.069.061,2.038-2.345-3.741-3.251-2.037,2.345.069.06a12.092,12.092,0,0,0-4.469-1.5l.087-.006-.217-3.1-4.944.347.217,3.1.087-.006a12.081,12.081,0,0,0-4.216,2.1l.06-.069-2.345-2.038-3.251,3.741,2.345,2.037.061-.069a12.08,12.08,0,0,0-1.5,4.469l-.006-.087-3.1.217.346,4.944,3.1-.217-.006-.087a12.1,12.1,0,0,0,2.106,4.217l-.07-.061-2.037,2.345,3.741,3.251,2.038-2.345-.07-.06a12.1,12.1,0,0,0,4.469,1.5l-.087.006.217,3.1,4.944-.346-.217-3.1-.087.006a12.107,12.107,0,0,0,4.216-2.1l-.061.069,2.345,2.038,3.251-3.741-2.345-2.037Zm-13.24,2.342a8.78,8.78,0,1,1,11.038-5.686A8.779,8.779,0,0,1,52.086,165.056Z" transform="translate(-39.596 -124.508)" fill="#ffa42f"/>
      <path id="Path_111" data-name="Path 111" d="M108.7,139.772l-.042.1a14.374,14.374,0,0,0,.139-5.606l.039.1,3.45-1.328-2.119-5.5-3.45,1.328.04.1A14.393,14.393,0,0,0,102.9,124.9l.094.041,1.5-3.378-5.39-2.393-1.5,3.378.094.042a14.374,14.374,0,0,0-5.606-.139l.1-.04-1.328-3.449-5.5,2.119,1.328,3.449.1-.039a14.4,14.4,0,0,0-4.066,3.862l.042-.1-3.378-1.5L77,132.147l3.378,1.5.041-.1a14.388,14.388,0,0,0-.138,5.606l-.04-.1-3.449,1.328,2.119,5.5,3.449-1.328-.039-.1a14.372,14.372,0,0,0,3.862,4.065l-.1-.042-1.5,3.378,5.391,2.394,1.5-3.378-.1-.042a14.374,14.374,0,0,0,5.606.139l-.1.039,1.328,3.45,5.5-2.119-1.328-3.449-.1.039a14.382,14.382,0,0,0,4.065-3.862l-.042.094,3.378,1.5,2.394-5.39ZM91.532,146.1a9.862,9.862,0,1,1,12.4-6.387A9.861,9.861,0,0,1,91.532,146.1Z" transform="translate(-48.739 -118.96)" fill="#ff6161"/>
    </g>
    <g id="Group_140" data-name="Group 140" transform="translate(389.791 171.298)">
      <g id="Group_122" data-name="Group 122">
        <g id="Group_114" data-name="Group 114" transform="translate(16.898 1.909)">
          <path id="Path_112" data-name="Path 112" d="M547.4,222.448l27.2,27.279-38.11-1.082Z" transform="translate(-532.977 -219.655)" fill="#ffa42f"/>
          <rect id="Rectangle_17" data-name="Rectangle 17" width="2.836" height="4.363" transform="translate(43.578 33.237) rotate(-157.132)" fill="#3f327a"/>
          <rect id="Rectangle_18" data-name="Rectangle 18" width="8.287" height="8.287" transform="matrix(-0.921, -0.389, 0.389, -0.921, 40.288, 33.872)" fill="#ffcc46"/>
          <path id="Rectangle_19" data-name="Rectangle 19" d="M1.138,0H1.75A1.138,1.138,0,0,1,2.888,1.138v29.8A1.138,1.138,0,0,1,1.75,32.074H1.139A1.139,1.139,0,0,1,0,30.936V1.138A1.138,1.138,0,0,1,1.138,0Z" transform="translate(2.661 30.676) rotate(-157.133)" fill="#ffcc46"/>
        </g>
        <g id="Group_121" data-name="Group 121">
          <path id="Path_113" data-name="Path 113" d="M566.968,474.144a4.017,4.017,0,0,0-.114,1.793,3.575,3.575,0,0,0,1.214,1.7c1.34,1.208,3.223,2.278,4.83,1.456a4.784,4.784,0,0,0,1.335-1.149,28.283,28.283,0,0,0,5.238-8.638,10,10,0,0,0,.792-5.551c-.83-3.917-6.263-6.285-9.19-3.162C568.324,463.531,567.789,470.405,566.968,474.144Z" transform="translate(-523.529 -275.935)" fill="#ff6161"/>
          <path id="Path_114" data-name="Path 114" d="M614.22,380.366A10.715,10.715,0,0,1,611.97,386a6.933,6.933,0,0,1-6.169,2.328c-3.721,6.553-7.783,13.3-11.5,19.856a6.3,6.3,0,0,1,2.748,1.683,1.64,1.64,0,0,1-.511,2.538c-1.4.6-1.8.343-2.665,1.482-1.051,1.374-.823,3.5-.97,5.052a27.081,27.081,0,0,1-1.282,5.658c-2.379,7.453-6.635,13.649-10.681,20.416-3.388.865-7.021-.216-10.292-1.354-2.495-.868-5.248-1.953-6.171-4.089,2.47-9.08,8.1-18.5,7.262-27.788-.152-1.7-.5-3.385-.569-5.089a22.89,22.89,0,0,1,.52-5.279c1.059-5.373,2.48-10.427,3.2-15.9l2.412-18.331c.163-1.238.415-2.615,1.588-3.373a6.167,6.167,0,0,1,3.186-.666,86.684,86.684,0,0,1,22.275,2.382,23.528,23.528,0,0,1,6.949,2.587C616.554,371.4,614.913,375.678,614.22,380.366Z" transform="translate(-522.959 -252.328)" fill="#201940"/>
          <path id="Path_115" data-name="Path 115" d="M629.195,481.733a4.569,4.569,0,0,0,.51,1.835,3.683,3.683,0,0,0,1.7,1.3c1.651.759,3.757,1.194,4.959-.17a4.981,4.981,0,0,0,.839-1.6,31.274,31.274,0,0,0,1.876-10.421,11.417,11.417,0,0,0-1.172-5.828c-2.109-3.644-7.937-4.183-9.57-.066C626.808,470.643,628.671,477.711,629.195,481.733Z" transform="translate(-538.513 -277.1)" fill="#ff6161"/>
          <path id="Path_116" data-name="Path 116" d="M639.409,375.712a10.1,10.1,0,0,1,.11,5.948,6.05,6.05,0,0,1-4.9,3.925c-.914,7.222-2.073,14.725-2.987,21.947a7.116,7.116,0,0,1,3.257.816,1.638,1.638,0,0,1,.522,2.536c-1.079.953-1.557.827-1.926,2.145-.446,1.591.609,3.529,1.085,5.036a26.87,26.87,0,0,1,1.031,5.694c.706,7.694-.854,14.73-1.99,22.245-2.851,1.766-6.7,1.766-10.239,1.609-2.7-.118-5.722-.37-7.438-2.125-1.266-9.255.31-19.713-4.153-28.237-.816-1.56-1.815-3.051-2.551-4.639a23.735,23.735,0,0,1-1.6-5.123c-1.128-5.363-1.789-10.527-3.277-15.891-1.128-4.067-1.526-8.605-3.63-12.34-2.018-3.582-6.079-6.481-5.825-10.775a1.372,1.372,0,0,1,.285-.867,2.33,2.33,0,0,1,1.611-.489c9.336-.472,18.176-2.112,27.423-2.637a25.259,25.259,0,0,1,7.576.49C638.06,366.6,638.206,371.1,639.409,375.712Z" transform="translate(-530.437 -252.647)" fill="#3f327a"/>
          <path id="Path_117" data-name="Path 117" d="M598.537,352.074c9.427.1,18.483-.915,27.822.41a14.748,14.748,0,0,0,10.285-2.414,7.554,7.554,0,0,0,2.809-3.1c.794-1.836.462-3.953.139-5.935-3.037-18.65.536-39.315-11.519-55.229-8.194-10.818-31.915-21.137-41.493-6a144.685,144.685,0,0,0-14.093,29c-3.168,8.934-6.914,19.069-5.1,28.677C570.023,351.38,587.472,351.958,598.537,352.074Z" transform="translate(-523.559 -229.974)" fill="#009cd4"/>
          <path id="Path_118" data-name="Path 118" d="M579.015,262.015a19.453,19.453,0,0,0,.3,4.526c-2.533,3.879-7,4.33-10.856,2.667a38.974,38.974,0,0,1,4.647-12.842c.023-.064.044-.128.067-.192a12.041,12.041,0,0,1,1.7-2.729c.765-1.323,1.674-1.682,1.541-.985-.2,1.032-.4,1.168-.526,1.767l.021.012a22.48,22.48,0,0,1,1.951-2.49.714.714,0,0,1,.285-.178.284.284,0,0,1,.307.1c.134.2-.1.466-.044.7a1.066,1.066,0,0,1,.348-.325.371.371,0,0,1,.442.073.441.441,0,0,1,.083.2,1.713,1.713,0,0,1-.158.881q-.442,1.186-.884,2.373l.02.012c.364-.333.6-.568.973-.944.3-.3.985-.9,1.128-.759a.44.44,0,0,1,.157.407,1.225,1.225,0,0,1-.154.421l-1.1,2.158a1.294,1.294,0,0,1,.974-.619.316.316,0,0,1,.215.037.35.35,0,0,1,.108.3,2.562,2.562,0,0,1-.416,1.159q-.293.533-.563,1.078a4.438,4.438,0,0,0-.453,1.643C579.088,260.987,579.042,261.5,579.015,262.015Z" transform="translate(-523.939 -224.903)" fill="#ff6161"/>
          <path id="Path_119" data-name="Path 119" d="M574.045,313.7a15.364,15.364,0,0,1-3.527-3.152c-3.607-4.369-4.813-9.414-5.7-14.828a62.6,62.6,0,0,1-.191-16.63,36.885,36.885,0,0,1,2.753-11.6,3.71,3.71,0,0,1,1.472-1.867,3.871,3.871,0,0,1,1.992-.27,49.243,49.243,0,0,1,5.932.648,2.905,2.905,0,0,1,1.7.7,2.974,2.974,0,0,1,.6,1.634c1.161,7.767,1.732,15.371,2.179,23.211a1.777,1.777,0,0,1,1.542-.811,1.318,1.318,0,0,1,.949,1.171,3.225,3.225,0,0,1-.21,1.447,150.185,150.185,0,0,1,30.006-15.035,10.951,10.951,0,0,1,9.492,6.906,13.737,13.737,0,0,1-1.169,11.88c-1.113,1.867-2.63,2.987-4.1,4.49-1.6,1.641-2.705,3.081-4.8,4.242-9.935,5.507-21.439,9.752-32.932,9.741A11.172,11.172,0,0,1,574.045,313.7Z" transform="translate(-522.884 -228.289)" fill="#037fac"/>
          <g id="Group_119" data-name="Group 119">
            <g id="Group_115" data-name="Group 115" transform="translate(18.34)">
              <path id="Path_120" data-name="Path 120" d="M535.724,216.9a27.416,27.416,0,0,0,2.13,4.837c.628,1.121-1.1,2.129-1.723,1.007a30.209,30.209,0,0,1-2.331-5.314c-.4-1.223,1.523-1.746,1.923-.53Z" transform="translate(-533.746 -216.214)" fill="#3f327a"/>
            </g>
            <g id="Group_116" data-name="Group 116" transform="translate(7.994 3.037)">
              <path id="Path_121" data-name="Path 121" d="M526.53,224.9l-5.988-2.827c-1.161-.548-.149-2.269,1.007-1.723l5.988,2.827c1.161.548.149,2.268-1.007,1.723Z" transform="translate(-520.028 -220.241)" fill="#3f327a"/>
            </g>
            <g id="Group_117" data-name="Group 117" transform="translate(10.187 22.259)">
              <path id="Path_122" data-name="Path 122" d="M530.447,247.724H523.9a1,1,0,0,1,0-1.995h6.549a1,1,0,0,1,0,1.995Z" transform="translate(-522.935 -245.729)" fill="#3f327a"/>
            </g>
            <g id="Group_118" data-name="Group 118" transform="translate(0 14.983)">
              <path id="Path_123" data-name="Path 123" d="M515.728,238.076h-5.337a1,1,0,0,1,0-1.995h5.337a1,1,0,0,1,0,1.995Z" transform="translate(-509.428 -236.081)" fill="#3f327a"/>
            </g>
          </g>
          <g id="Group_120" data-name="Group 120" transform="translate(65.488 25.226)">
            <path id="Path_124" data-name="Path 124" d="M605.73,279.411a5.14,5.14,0,0,0,3.558,1.164,9.2,9.2,0,0,0,3.775-1.031,7.475,7.475,0,0,0,2.629-1.991,3.452,3.452,0,0,0,.744-2.956,3.751,3.751,0,0,0-3.146-2.4,9.986,9.986,0,0,0-4.333.5c-1.728.511-4.144,1.554-4.388,3.456A3.86,3.86,0,0,0,605.73,279.411Z" transform="translate(-598.297 -255.183)" fill="#ffd9b9"/>
            <path id="Path_125" data-name="Path 125" d="M600.134,255.909a7.152,7.152,0,0,1-1.287-3.623,2.636,2.636,0,0,1,.3-1.516,2.943,2.943,0,0,1,2.42-1.088,15.249,15.249,0,0,1,5.985,1.049,18.636,18.636,0,0,1,3.42,1.379c1.16.694,1.3,1.327,1.75,2.507a1.877,1.877,0,0,1,1.655.667,4.234,4.234,0,0,1,.764,1.71,7.141,7.141,0,0,1,.268,2.7,4.516,4.516,0,0,1-1.8,3.03,4.7,4.7,0,0,1-3.945.64c-.683-.147-.949-.623-1.413-1.054a8.523,8.523,0,0,0-1.7-1.134,27.34,27.34,0,0,1-4.123-2.761A12.154,12.154,0,0,1,600.134,255.909Z" transform="translate(-596.896 -249.662)" fill="#ffcc46"/>
            <path id="Path_126" data-name="Path 126" d="M596.485,261.9a.8.8,0,0,0-.223.483c.01.435.6.533.985.734a2,2,0,0,1,.855,1.7,5.4,5.4,0,0,0,.284,1.956,2.08,2.08,0,0,0,1.223,1.008c.565.226,1.388.055,1.861.4a1.38,1.38,0,0,1,.422.794q.44,1.62.881,3.238a3.854,3.854,0,0,0,1.354,2.407c1.686,1.058,4.4-.16,6.177-.423a4.154,4.154,0,0,0,2.823-1.464c.956-1.3.679-3.127.078-4.622-.371-.924-.849-1.8-1.2-2.732-.184-.486-.257-1-.42-1.483-.113-.339-.4-.651-.348-1.033.045-.327.339-.549.564-.79A2.3,2.3,0,1,0,608.388,259c-.181.208-.373.473-.648.464a.73.73,0,0,1-.419-.206,5.249,5.249,0,0,1-1.235-1.482c-1.824.743-3.585,1.445-4.972-.389a3.336,3.336,0,0,0-.474-.576.708.708,0,0,0-.693-.164.991.991,0,0,0-.429.454A44.56,44.56,0,0,1,596.485,261.9Z" transform="translate(-596.262 -251.37)" fill="#ff6161"/>
          </g>
        </g>
      </g>
      <g id="Group_128" data-name="Group 128" transform="translate(75.262 201.109)">
        <g id="Group_127" data-name="Group 127">
          <path id="Path_127" data-name="Path 127" d="M636.113,494.45c-8.419.448-15.633.316-24.2.335a1.859,1.859,0,0,1-1.084-.307,1.485,1.485,0,0,1-.539-1.246c.026-1.63,1.68-2.72,3.19-3.383a29.949,29.949,0,0,1,3.967-1.417,16.25,16.25,0,0,0,4.259-1.511,3.969,3.969,0,0,0,2.091-3.7c.055.375,9.675-.191,11.445-.348.075,2.734.17,3.941.281,5.3C635.692,490.259,636.106,492.2,636.113,494.45Z" transform="translate(-609.484 -482.874)" fill="#ffcc46"/>
          <g id="Group_125" data-name="Group 125" transform="translate(6.505 3.296)">
            <g id="Group_123" data-name="Group 123" transform="translate(11.388 0.876)">
              <path id="Path_128" data-name="Path 128" d="M632.946,491.374a2.968,2.968,0,1,1,3.007,2.886A2.953,2.953,0,0,1,632.946,491.374Zm.834-.011a2.134,2.134,0,1,0,2.1-2.134A2.121,2.121,0,0,0,633.78,491.362Z" transform="translate(-632.946 -488.406)" fill="#44a1c8"/>
            </g>
            <path id="Path_129" data-name="Path 129" d="M623.873,487.415a.581.581,0,0,1,.812-.011l2.134,2.049a.562.562,0,0,1,.011.8.58.58,0,0,1-.812.011l-2.135-2.049A.562.562,0,0,1,623.873,487.415Z" transform="translate(-619.287 -487.244)" fill="#44a1c8"/>
            <g id="Group_124" data-name="Group 124" transform="translate(0 0.766)">
              <path id="Path_130" data-name="Path 130" d="M621.007,488.43a.58.58,0,0,1,.811-.011l2.135,2.049a.562.562,0,0,1,.01.8.58.58,0,0,1-.811.011l-2.134-2.049A.562.562,0,0,1,621.007,488.43Z" transform="translate(-618.583 -488.259)" fill="#44a1c8"/>
              <path id="Path_131" data-name="Path 131" d="M618.006,489.1a.579.579,0,0,1,.811-.014l2.145,2.039a.561.561,0,0,1,.014.8.575.575,0,0,1-.4.173h0a.573.573,0,0,1-.406-.158l-2.144-2.04A.561.561,0,0,1,618.006,489.1Z" transform="translate(-617.846 -488.423)" fill="#44a1c8"/>
            </g>
          </g>
          <g id="Group_126" data-name="Group 126" transform="translate(0 11.395)">
            <path id="Path_132" data-name="Path 132" d="M610.066,499.98l25.5-.351a.823.823,0,1,0-.022-1.646l-25.5.351a.823.823,0,1,0,.022,1.646Z" transform="translate(-609.221 -497.983)" fill="#44a1c8"/>
          </g>
        </g>
      </g>
      <g id="Group_139" data-name="Group 139" transform="translate(25.784 194.944)">
        <g id="Group_138" data-name="Group 138">
          <path id="Path_133" data-name="Path 133" d="M569.656,489.288c-8.117-2.281-14.906-4.723-23.025-7.458a1.859,1.859,0,0,1-.928-.638,1.489,1.489,0,0,1-.11-1.354c.548-1.535,2.465-2.035,4.108-2.178a29.945,29.945,0,0,1,4.211-.068,16.237,16.237,0,0,0,4.519-.063,3.971,3.971,0,0,0,3.169-2.83c-.069.372,9.223,2.927,10.95,3.347-.808,2.612-1.1,3.786-1.437,5.11C570.6,485.184,570.371,487.156,569.656,489.288Z" transform="translate(-544.075 -474.699)" fill="#ffcc46"/>
          <g id="Group_136" data-name="Group 136" transform="translate(8.562 1.637)">
            <g id="Group_129" data-name="Group 129" transform="translate(10.028 3.928)">
              <path id="Path_134" data-name="Path 134" d="M568.408,484.094a2.968,2.968,0,1,1,1.92,3.7A2.953,2.953,0,0,1,568.408,484.094Zm.794.257a2.134,2.134,0,1,0,2.678-1.345A2.12,2.12,0,0,0,569.2,484.351Z" transform="translate(-568.267 -482.077)" fill="#44a1c8"/>
            </g>
            <g id="Group_131" data-name="Group 131" transform="translate(2.304 0.25)">
              <g id="Group_130" data-name="Group 130">
                <path id="Path_135" data-name="Path 135" d="M559.884,480.835a.419.419,0,0,0,.318-.023.408.408,0,0,0,.18-.554l-1.364-2.626a.421.421,0,0,0-.561-.182.407.407,0,0,0-.18.554l1.363,2.626A.417.417,0,0,0,559.884,480.835Z" transform="translate(-558.076 -477.251)" fill="#ffda8f"/>
                <path id="Path_136" data-name="Path 136" d="M559.451,480.649l-1.363-2.626a.562.562,0,0,1,.247-.762.582.582,0,0,1,.772.25l1.363,2.626a.562.562,0,0,1-.247.762.58.58,0,0,1-.772-.25Z" transform="translate(-558.025 -477.201)" fill="#44a1c8"/>
              </g>
            </g>
            <g id="Group_133" data-name="Group 133" transform="translate(4.597 0.22)">
              <g id="Group_132" data-name="Group 132">
                <path id="Path_137" data-name="Path 137" d="M562.492,480.609l-1.364-2.626a.563.563,0,0,1,.247-.762.58.58,0,0,1,.772.25l1.364,2.626a.563.563,0,0,1-.247.762.58.58,0,0,1-.772-.25Z" transform="translate(-561.065 -477.161)" fill="#44a1c8"/>
              </g>
            </g>
            <g id="Group_135" data-name="Group 135">
              <g id="Group_134" data-name="Group 134">
                <path id="Path_138" data-name="Path 138" d="M556.41,480.314l-1.376-2.62a.562.562,0,0,1,.244-.763.58.58,0,0,1,.772.247l1.376,2.62a.56.56,0,0,1-.244.762.572.572,0,0,1-.436.035h0A.572.572,0,0,1,556.41,480.314Z" transform="translate(-554.97 -476.869)" fill="#44a1c8"/>
              </g>
            </g>
          </g>
          <g id="Group_137" data-name="Group 137" transform="translate(0 6.418)">
            <path id="Path_139" data-name="Path 139" d="M544.2,484.816l24.264,7.86a.823.823,0,1,0,.508-1.566L544.7,483.25a.823.823,0,1,0-.508,1.566Z" transform="translate(-543.617 -483.209)" fill="#44a1c8"/>
          </g>
        </g>
      </g>
    </g>
  </g>
</svg>
