<svg id="location_pin_shadow_24dp" xmlns="http://www.w3.org/2000/svg" width="25.611" height="10.578" viewBox="0 0 25.611 10.578">
  <path id="Rectangle_127" data-name="Rectangle 127" d="M19.879,0l5.732,4.337L6.005,10.578,0,6.38Z" fill="none"/>
  <path id="Path_453" data-name="Path 453" d="M17.628,1.09h0a2.045,2.045,0,0,0-1.01-.28,9.417,9.417,0,0,0-1.681.044,19.7,19.7,0,0,0-2.12.346c-.754.163-1.543.372-2.327.623q-.529.169-1.02.347t-.944.363q-.453.185-.866.375t-.786.386c-.26.136-.505.271-.743.406s-.467.269-.7.4-.458.268-.694.4-.48.269-.738.4c-.126.066-.25.13-.376.193s-.252.125-.38.187-.259.124-.393.186l-.415.192c-.1.045-.213.1-.332.149s-.239.108-.342.161a1.178,1.178,0,0,0-.238.15c-.049.045-.062.085-.02.115h0a.413.413,0,0,0,.231.034,3.034,3.034,0,0,0,.381-.049c.142-.025.294-.058.442-.09s.291-.065.414-.091l.53-.11.51-.1.5-.1c.169-.031.34-.062.515-.092.358-.062.708-.117,1.056-.17s.692-.1,1.037-.152.69-.1,1.04-.153.7-.11,1.064-.173q.515-.089,1.037-.2t1.047-.237q.525-.128,1.052-.276t1.052-.315A20.1,20.1,0,0,0,15.5,3.187a9.748,9.748,0,0,0,1.487-.8,2.313,2.313,0,0,0,.755-.73A.4.4,0,0,0,17.628,1.09ZM9.741,3.61a.144.144,0,0,1-.046-.2.8.8,0,0,1,.265-.26,3.429,3.429,0,0,1,.529-.288,7.118,7.118,0,0,1,.745-.282c.279-.089.56-.164.828-.221a7.051,7.051,0,0,1,.755-.123,3.387,3.387,0,0,1,.6-.016.739.739,0,0,1,.362.1.144.144,0,0,1,.044.2.816.816,0,0,1-.268.261,3.458,3.458,0,0,1-.53.287,7.137,7.137,0,0,1-.744.281c-.278.089-.558.163-.825.22a7.054,7.054,0,0,1-.753.123,3.4,3.4,0,0,1-.6.017A.749.749,0,0,1,9.741,3.61Z" transform="translate(3.317 1.68)" opacity="0.2"/>
</svg>
