<svg id="person_pin_shadow_24dp" xmlns="http://www.w3.org/2000/svg" width="31.176" height="14.475" viewBox="0 0 31.176 14.475">
  <path id="Path_454" data-name="Path 454" d="M20.406,0,31.176,8.151,11.291,14.475,0,6.592Z" fill="none"/>
  <path id="Path_455" data-name="Path 455" d="M20.994,3.23a7.1,7.1,0,0,0-2.252-1.058,14.1,14.1,0,0,0-2.985-.507,18.641,18.641,0,0,0-3.33.077,16.909,16.909,0,0,0-3.275.69,10.894,10.894,0,0,0-2.232.98A5.4,5.4,0,0,0,5.488,4.593,2.437,2.437,0,0,0,4.91,5.864a1.889,1.889,0,0,0,.323,1.252l-.765,1.41,3.022.189a11.366,11.366,0,0,0,2.274.6,16.763,16.763,0,0,0,2.618.212,18.811,18.811,0,0,0,2.749-.188,16.576,16.576,0,0,0,2.669-.6,10.5,10.5,0,0,0,2.541-1.158A4.5,4.5,0,0,0,21.8,6.161a1.965,1.965,0,0,0,.257-1.508A2.656,2.656,0,0,0,20.994,3.23Zm-1.663.533a.9.9,0,0,1,.358.475.656.656,0,0,1-.082.506,1.5,1.5,0,0,1-.486.478,3.518,3.518,0,0,1-.855.391,5.662,5.662,0,0,1-1.077.227,6.179,6.179,0,0,1-1.093.028A4.7,4.7,0,0,1,15.11,5.7a2.416,2.416,0,0,1-.754-.347.914.914,0,0,1-.366-.473.651.651,0,0,1,.074-.507,1.476,1.476,0,0,1,.483-.481,3.5,3.5,0,0,1,.859-.4,5.659,5.659,0,0,1,1.086-.229,6.174,6.174,0,0,1,1.1-.027,4.672,4.672,0,0,1,.989.167A2.378,2.378,0,0,1,19.331,3.763ZM7.508,7.552a2.677,2.677,0,0,1-.695-.69,1.5,1.5,0,0,1-.122-1.515,2.575,2.575,0,0,1,.54-.751A3.808,3.808,0,0,1,8.656,4.48a8.172,8.172,0,0,1,1.579.305,10.757,10.757,0,0,1,1.443.533,6.175,6.175,0,0,1,1.024.569,3.478,3.478,0,0,1,.685.672,2.619,2.619,0,0,1,.451.837,1.094,1.094,0,0,1-.033.8,1.213,1.213,0,0,1-.763.576,14.451,14.451,0,0,1-1.622-.042,11.956,11.956,0,0,1-1.513-.22,8.416,8.416,0,0,1-1.329-.395A5.072,5.072,0,0,1,7.508,7.552Z" transform="translate(3.057 1.492)" opacity="0.203"/>
</svg>
