<svg id="location_pin_green_24dp" xmlns="http://www.w3.org/2000/svg" width="24" height="24" viewBox="0 0 24 24">
  <rect id="Rectangle_127" data-name="Rectangle 127" width="24" height="24" fill="none"/>
  <path id="Path_453" data-name="Path 453" d="M12,2h0A7,7,0,0,0,5,9a9.1,9.1,0,0,0,1.41,4.84c.95,1.54,2.2,2.86,3.16,4.4a17.257,17.257,0,0,1,1.17,2.26c.26.55.47,1.5,1.26,1.5h0c.79,0,1-.95,1.25-1.5a18.57,18.57,0,0,1,1.17-2.26c.96-1.53,2.21-2.85,3.16-4.4A9.025,9.025,0,0,0,19,9,7,7,0,0,0,12,2Zm0,9.75a2.5,2.5,0,1,1,2.5-2.5A2.5,2.5,0,0,1,12,11.75Z" fill="#60a719" opacity="0.9"/>
</svg>
