<svg id="commute_illustration" data-name="commute illustration" xmlns="http://www.w3.org/2000/svg" xmlns:xlink="http://www.w3.org/1999/xlink" width="1042.614" height="453.032" viewBox="0 0 1042.614 453.032">
  <defs>
    <clipPath id="clip-path">
      <path id="Path_201" data-name="Path 201" d="M223.207,243.333c-5.424-4.155-11.2-10.282-23.148-.611-8.209,6.64,5.846,51.795,18.528,61.511C218.587,304.233,234.457,251.952,223.207,243.333Z" transform="translate(-197.613 -237.561)" fill="none"/>
    </clipPath>
  </defs>
  <g id="Group_1" data-name="Group 1" transform="translate(12.551 156.239)">
    <path id="Path_2" data-name="Path 2" d="M960.893,255.724c-103.25,32.343-77.149-21.869-168.935-26.388-64.961-3.2-89.312,113.6-191.856,84.681-70.679-19.934-63.273-132.205-186.562-111.143-67.6,11.547-43.664,48.294-112.06,58.291s-61.192-2.035-104.04-6.689c-23.455-2.547-48.064,21.071-65.535,42.97l10.83,97.455a54.575,54.575,0,0,0,54.08,47.239h894.205c29.409,0,42.212-15.2,50.536-38.9a148.213,148.213,0,0,0,8-42.506l7.432-166.468a298.444,298.444,0,0,0-32.144-8.592C1034.582,166.486,1064.144,223.382,960.893,255.724Z" transform="translate(-131.904 -181.811)" fill="#ea6060"/>
  </g>
  <g id="Group_2" data-name="Group 2" transform="translate(440.169 82.948)">
    <path id="Path_3" data-name="Path 3" d="M634.454,486.652h-134.5a23.964,23.964,0,0,1-23.936-23.936V146.768a23.963,23.963,0,0,1,23.936-23.935h134.5a23.963,23.963,0,0,1,23.936,23.935V462.716A23.964,23.964,0,0,1,634.454,486.652Zm-134.5-356.837A16.972,16.972,0,0,0,483,146.768V462.716a16.973,16.973,0,0,0,16.954,16.954h134.5a16.973,16.973,0,0,0,16.954-16.954V146.768a16.972,16.972,0,0,0-16.954-16.953Z" transform="translate(-476.016 -122.833)" fill="#5896a9"/>
  </g>
  <g id="Group_4" data-name="Group 4" transform="translate(406.274 232.737)">
    <circle id="Ellipse_1" data-name="Ellipse 1" cx="14.111" cy="14.111" r="14.111" transform="translate(2.182)" fill="#f4a031"/>
    <g id="Group_3" data-name="Group 3" transform="translate(0 7.128)">
      <path id="Path_4" data-name="Path 4" d="M464.16,263.072h-8.438a6.983,6.983,0,1,1,0-13.965h8.438a6.983,6.983,0,1,1,0,13.965Z" transform="translate(-448.74 -249.107)" fill="#ffb03b"/>
    </g>
  </g>
  <path id="Path_5" data-name="Path 5" d="M481.093,201.669c-16.864-3.176-35.83,45.357-30.238,59.647s18.433,6.421,28.789-10.148S493.815,204.064,481.093,201.669Z" transform="translate(-42.195 -20.79)" fill="#1e1240"/>
  <path id="Path_6" data-name="Path 6" d="M450.848,203.426c-16.931,2.8-18.116,54.89-7.966,66.4s19.517-.286,23.567-19.4S463.622,201.317,450.848,203.426Z" transform="translate(-45.456 -20.353)" fill="#1e1240"/>
  <g id="Group_5" data-name="Group 5" transform="translate(473.143 117.346)">
    <path id="Rectangle_3" data-name="Rectangle 3" d="M5.358,0H44.021a5.359,5.359,0,0,1,5.359,5.359V184.207a5.359,5.359,0,0,1-5.359,5.359H5.358A5.358,5.358,0,0,1,0,184.207V5.358A5.358,5.358,0,0,1,5.358,0Z" transform="translate(0 0)" fill="#95e2f7"/>
    <path id="Rectangle_4" data-name="Rectangle 4" d="M5.358,0H44.021a5.358,5.358,0,0,1,5.358,5.358V184.207a5.359,5.359,0,0,1-5.359,5.359H5.358A5.358,5.358,0,0,1,0,184.207V5.358A5.358,5.358,0,0,1,5.358,0Z" transform="translate(67.048 0)" fill="#95e2f7"/>
    <path id="Path_7" data-name="Path 7" d="M551.93,157.172a6.659,6.659,0,0,0-6.658-6.659h-16.62l-26.1,78.761V296.5L551.93,169.839Z" transform="translate(-502.551 -150.513)" fill="#95e2f7" style="mix-blend-mode: screen;isolation: isolate"/>
    <path id="Path_8" data-name="Path 8" d="M556.505,236.737v51.626l49.38-97.187v-34a6.66,6.66,0,0,0-6.659-6.659H579.864Z" transform="translate(-489.458 -150.513)" fill="#95e2f7" style="mix-blend-mode: screen;isolation: isolate"/>
  </g>
  <path id="Path_9" data-name="Path 9" d="M510.207,197.752s-1.464-5.9,9.222-5.225,18.747,7.272,22.684,17.583,12.837,33.581,13.333,44.809c.377,8.55-9.4,27.384-28.425,22.51S497.05,212.183,510.207,197.752Z" transform="translate(-28.949 -22.985)" fill="#baedfa"/>
  <g id="Group_6" data-name="Group 6" transform="translate(116.419 81.044)">
    <rect id="Rectangle_5" data-name="Rectangle 5" width="251.224" height="175.466" rx="33.626" fill="#95e2f7"/>
    <path id="Path_10" data-name="Path 10" d="M429.361,285.268a41.616,41.616,0,0,1-28.7,11.5H372.054L315.473,121.3h60.255Z" transform="translate(-191.225 -121.301)" fill="#95e2f7" style="mix-blend-mode: screen;isolation: isolate"/>
    <path id="Path_11" data-name="Path 11" d="M358.915,296.767H323.732L268.364,121.3h35.4Z" transform="translate(-202.657 -121.301)" fill="#95e2f7" style="mix-blend-mode: screen;isolation: isolate"/>
  </g>
  <g id="Group_7" data-name="Group 7" transform="translate(693.567 81.044)">
    <rect id="Rectangle_6" data-name="Rectangle 6" width="251.224" height="175.466" rx="33.626" fill="#95e2f7"/>
    <path id="Path_12" data-name="Path 12" d="M893.8,285.268a41.614,41.614,0,0,1-28.7,11.5H836.5L779.915,121.3H840.17Z" transform="translate(-655.666 -121.301)" fill="#95e2f7" style="mix-blend-mode: screen;isolation: isolate"/>
    <path id="Path_13" data-name="Path 13" d="M823.356,296.767H788.173L732.806,121.3h35.4Z" transform="translate(-667.098 -121.301)" fill="#95e2f7" style="mix-blend-mode: screen;isolation: isolate"/>
  </g>
  <g id="Group_13" data-name="Group 13" transform="translate(52.715 264.858)">
    <rect id="Rectangle_7" data-name="Rectangle 7" width="330.806" height="56.444" transform="translate(11.114 98.466)" fill="#006581"/>
    <g id="Group_12" data-name="Group 12" transform="translate(0 0)">
      <g id="Group_8" data-name="Group 8">
        <rect id="Rectangle_8" data-name="Rectangle 8" width="76.383" height="105.012" rx="6.529" fill="#009cd4"/>
        <path id="Rectangle_9" data-name="Rectangle 9" d="M0,0H81.8A11.654,11.654,0,0,1,93.452,11.654V15.42a0,0,0,0,1,0,0H8.15A8.15,8.15,0,0,1,0,7.27V0A0,0,0,0,1,0,0Z" transform="translate(0 96.138)" fill="#009cd4"/>
      </g>
      <g id="Group_9" data-name="Group 9" transform="translate(88.681)">
        <rect id="Rectangle_10" data-name="Rectangle 10" width="76.383" height="105.012" rx="6.529" fill="#009cd4"/>
        <path id="Rectangle_11" data-name="Rectangle 11" d="M0,0H81.8A11.654,11.654,0,0,1,93.452,11.654V15.42a0,0,0,0,1,0,0H8.15A8.15,8.15,0,0,1,0,7.27V0A0,0,0,0,1,0,0Z" transform="translate(0 96.138)" fill="#009cd4"/>
      </g>
      <g id="Group_10" data-name="Group 10" transform="translate(177.361)">
        <rect id="Rectangle_12" data-name="Rectangle 12" width="76.383" height="105.012" rx="6.529" fill="#009cd4"/>
        <path id="Rectangle_13" data-name="Rectangle 13" d="M0,0H81.8A11.654,11.654,0,0,1,93.452,11.654V15.42a0,0,0,0,1,0,0H8.15A8.15,8.15,0,0,1,0,7.27V0A0,0,0,0,1,0,0Z" transform="translate(0 96.138)" fill="#009cd4"/>
      </g>
      <g id="Group_11" data-name="Group 11" transform="translate(266.042)">
        <rect id="Rectangle_14" data-name="Rectangle 14" width="76.383" height="105.012" rx="6.529" transform="translate(0)" fill="#009cd4"/>
        <path id="Rectangle_15" data-name="Rectangle 15" d="M0,0H81.8A11.654,11.654,0,0,1,93.452,11.654V15.42a0,0,0,0,1,0,0H8.15A8.15,8.15,0,0,1,0,7.27V0A0,0,0,0,1,0,0Z" transform="translate(0 96.138)" fill="#009cd4"/>
      </g>
    </g>
  </g>
  <g id="Group_19" data-name="Group 19" transform="translate(637.518 264.858)">
    <rect id="Rectangle_16" data-name="Rectangle 16" width="330.806" height="56.444" transform="translate(11.114 98.466)" fill="#006581"/>
    <g id="Group_18" data-name="Group 18" transform="translate(0 0)">
      <g id="Group_14" data-name="Group 14">
        <rect id="Rectangle_17" data-name="Rectangle 17" width="76.383" height="105.012" rx="6.529" fill="#009cd4"/>
        <path id="Rectangle_18" data-name="Rectangle 18" d="M0,0H81.8A11.654,11.654,0,0,1,93.452,11.654V15.42a0,0,0,0,1,0,0H8.15A8.15,8.15,0,0,1,0,7.27V0A0,0,0,0,1,0,0Z" transform="translate(0 96.138)" fill="#009cd4"/>
      </g>
      <g id="Group_15" data-name="Group 15" transform="translate(88.68)">
        <rect id="Rectangle_19" data-name="Rectangle 19" width="76.383" height="105.012" rx="6.529" fill="#009cd4"/>
        <path id="Rectangle_20" data-name="Rectangle 20" d="M0,0H81.8A11.654,11.654,0,0,1,93.452,11.654V15.42a0,0,0,0,1,0,0H8.15A8.15,8.15,0,0,1,0,7.27V0A0,0,0,0,1,0,0Z" transform="translate(0 96.138)" fill="#009cd4"/>
      </g>
      <g id="Group_16" data-name="Group 16" transform="translate(177.361)">
        <rect id="Rectangle_21" data-name="Rectangle 21" width="76.383" height="105.012" rx="6.529" fill="#009cd4"/>
        <path id="Rectangle_22" data-name="Rectangle 22" d="M0,0H81.8A11.654,11.654,0,0,1,93.452,11.654V15.42a0,0,0,0,1,0,0H8.15A8.15,8.15,0,0,1,0,7.27V0A0,0,0,0,1,0,0Z" transform="translate(0 96.138)" fill="#009cd4"/>
      </g>
      <g id="Group_17" data-name="Group 17" transform="translate(266.042)">
        <rect id="Rectangle_23" data-name="Rectangle 23" width="76.383" height="105.012" rx="6.529" fill="#009cd4"/>
        <path id="Rectangle_24" data-name="Rectangle 24" d="M0,0H81.8A11.654,11.654,0,0,1,93.452,11.654V15.42a0,0,0,0,1,0,0H8.15A8.15,8.15,0,0,1,0,7.27V0A0,0,0,0,1,0,0Z" transform="translate(0 96.138)" fill="#009cd4"/>
      </g>
    </g>
  </g>
  <path id="Path_14" data-name="Path 14" d="M1151.224,391.3H161.7c-43.179,0-43.639,36.465-36.382,36.465H1151.224a13.041,13.041,0,0,0,13.193-12.8V404.1A13.041,13.041,0,0,0,1151.224,391.3Z" transform="translate(-121.804 25.265)" fill="#009cd4"/>
  <circle id="Ellipse_2" data-name="Ellipse 2" cx="14.111" cy="14.111" r="14.111" transform="translate(408.455 45.949)" fill="#f4a031"/>
  <circle id="Ellipse_3" data-name="Ellipse 3" cx="14.111" cy="14.111" r="14.111" transform="translate(63.975 45.949)" fill="#f4a031"/>
  <g id="Group_20" data-name="Group 20" transform="translate(373.106 53.077)">
    <path id="Path_15" data-name="Path 15" d="M470.637,112.761H429.032a6.983,6.983,0,0,1,0-13.966h41.606a6.983,6.983,0,0,1,0,13.966Z" transform="translate(-422.049 -98.795)" fill="#ffb03b"/>
  </g>
  <circle id="Ellipse_4" data-name="Ellipse 4" cx="14.111" cy="14.111" r="14.111" transform="translate(50.955 232.737)" fill="#f4a031"/>
  <g id="Group_21" data-name="Group 21" transform="translate(48.772 239.865)">
    <path id="Path_16" data-name="Path 16" d="M176.472,263.072h-8.437a6.983,6.983,0,1,1,0-13.965h8.437a6.983,6.983,0,1,1,0,13.965Z" transform="translate(-161.052 -249.107)" fill="#ffb03b"/>
  </g>
  <g id="Group_22" data-name="Group 22" transform="translate(45.733 53.077)">
    <path id="Path_17" data-name="Path 17" d="M525.082,112.761H165.589a6.983,6.983,0,0,1,0-13.966H525.082a6.983,6.983,0,0,1,0,13.966Z" transform="translate(-158.606 -98.795)" fill="#ffd140"/>
  </g>
  <g id="Group_23" data-name="Group 23" transform="translate(404.383 56.046)">
    <path id="Path_18" data-name="Path 18" d="M447.218,467.659V108.167a6.983,6.983,0,1,1,13.965,0V467.659a6.983,6.983,0,1,1-13.965,0Z" transform="translate(-447.218 -101.184)" fill="#ffd140"/>
  </g>
  <g id="Group_24" data-name="Group 24" transform="translate(45.733 56.046)">
    <path id="Path_19" data-name="Path 19" d="M158.606,467.659V108.167a6.983,6.983,0,1,1,13.965,0V467.659a6.983,6.983,0,1,1-13.965,0Z" transform="translate(-158.606 -101.184)" fill="#ffd140"/>
  </g>
  <circle id="Ellipse_5" data-name="Ellipse 5" cx="14.111" cy="14.111" r="14.111" transform="translate(628.79 45.949)" fill="#f4a031"/>
  <circle id="Ellipse_6" data-name="Ellipse 6" cx="14.111" cy="14.111" r="14.111" transform="translate(973.271 45.949)" fill="#f4a031"/>
  <g id="Group_25" data-name="Group 25" transform="translate(636.791 53.077)">
    <path id="Path_20" data-name="Path 20" d="M641.224,112.761h41.606a6.983,6.983,0,0,0,0-13.966H641.224a6.983,6.983,0,0,0,0,13.966Z" transform="translate(-634.241 -98.795)" fill="#ffb03b"/>
  </g>
  <circle id="Ellipse_7" data-name="Ellipse 7" cx="14.111" cy="14.111" r="14.111" transform="translate(986.29 232.737)" fill="#f4a031"/>
  <g id="Group_26" data-name="Group 26" transform="translate(994.291 239.865)">
    <path id="Path_21" data-name="Path 21" d="M928.911,263.072h8.438a6.983,6.983,0,0,0,0-13.965h-8.438a6.983,6.983,0,0,0,0,13.965Z" transform="translate(-921.928 -249.107)" fill="#ffb03b"/>
  </g>
  <g id="Group_27" data-name="Group 27" transform="translate(646.276 53.077)">
    <path id="Path_22" data-name="Path 22" d="M648.857,112.761H1008.35a6.983,6.983,0,0,0,0-13.966H648.857a6.983,6.983,0,0,0,0,13.966Z" transform="translate(-641.874 -98.795)" fill="#ffd140"/>
  </g>
  <g id="Group_28" data-name="Group 28" transform="translate(1005.768 56.046)">
    <path id="Path_23" data-name="Path 23" d="M945.13,467.659V108.167a6.983,6.983,0,0,0-13.966,0V467.659a6.983,6.983,0,1,0,13.966,0Z" transform="translate(-931.164 -101.184)" fill="#ffd140"/>
  </g>
  <g id="Group_29" data-name="Group 29" transform="translate(9.455)">
    <path id="Path_24" data-name="Path 24" d="M1071.874,56.083H206.388a92.948,92.948,0,0,0-76.975,40.664H1143.357C1128.818,71.833,1104.909,56.083,1071.874,56.083Z" transform="translate(-129.413 -56.083)" fill="#009cd4"/>
  </g>
  <g id="Group_30" data-name="Group 30" transform="translate(97.652 10.731)">
    <rect id="Rectangle_25" data-name="Rectangle 25" width="108.412" height="6.367" rx="2.406" fill="#311e69"/>
    <rect id="Rectangle_26" data-name="Rectangle 26" width="108.412" height="6.367" rx="2.406" transform="translate(0 10.183)" fill="#311e69"/>
  </g>
  <g id="Group_31" data-name="Group 31" transform="translate(227.401 10.731)">
    <rect id="Rectangle_27" data-name="Rectangle 27" width="108.412" height="6.367" rx="2.406" transform="translate(0)" fill="#311e69"/>
    <rect id="Rectangle_28" data-name="Rectangle 28" width="108.412" height="6.367" rx="2.406" transform="translate(0 10.183)" fill="#311e69"/>
  </g>
  <g id="Group_32" data-name="Group 32" transform="translate(726.199 10.731)">
    <rect id="Rectangle_29" data-name="Rectangle 29" width="108.412" height="6.367" rx="2.406" fill="#311e69"/>
    <rect id="Rectangle_30" data-name="Rectangle 30" width="108.412" height="6.367" rx="2.406" transform="translate(0 10.183)" fill="#311e69"/>
  </g>
  <g id="Group_33" data-name="Group 33" transform="translate(855.948 10.731)">
    <rect id="Rectangle_31" data-name="Rectangle 31" width="108.412" height="6.367" rx="2.406" fill="#311e69"/>
    <rect id="Rectangle_32" data-name="Rectangle 32" width="108.412" height="6.367" rx="2.406" transform="translate(0 10.183)" fill="#311e69"/>
  </g>
  <g id="Group_45" data-name="Group 45" transform="translate(671.415 60.06)">
    <g id="Group_34" data-name="Group 34" transform="translate(10.805 181.766)">
      <path id="Path_25" data-name="Path 25" d="M768.259,283.315c-2.026-16.1-5.53-20.567-7.036-29.6-18.788,2.954-47.752-1.54-60.68-3.035-7.458,15.548-25.5,48.837-29.661,103.181-.861,11.265,5.225,78.4,7.321,80.878,12.7,15.046,17.158-10.4,18.512-22.471,4.252-37.918,5.819-54.941,7.24-66.21,1.055-8.373,20.669-49.758,20.669-49.758s-.7,55.2,9.022,101.489c2.222,10.579,8.634,43.087,13.184,43.067,22.855-.1,12.885-80.176,11.467-91.9C756.85,337,770.175,298.55,768.259,283.315Z" transform="translate(-670.799 -250.684)" fill="#ff6161"/>
    </g>
    <path id="Path_26" data-name="Path 26" d="M733.582,265.45c0,3.1,14.768,28.821,5.479,46.685s-20.671,14.053-11.645,38.349,12.836,49.185,12.36,55.438c-.273,3.586.391,20.257,1.009,28.348,13.679-13.939,5.819-78.579,4.573-88.892-1.3-10.758,9.34-42.929,10.1-60.38Z" transform="translate(-647.055 -65.335)" fill="#ad263d"/>
    <path id="Path_27" data-name="Path 27" d="M748.392,340.314c-.481-4.6-.911-8.094-1.132-9.923h0L726.02,327.2l-6.529,3.132-3.21,5.59q.25,2.626.533,5.3C723.958,341.525,740.313,341.986,748.392,340.314Z" transform="translate(-648.957 -50.349)" fill="#311e69"/>
    <path id="Path_28" data-name="Path 28" d="M691.17,316.453c-6.211,11.923-6.4,16.7-5,37.059s-2.226,31.315-2.673,47.751c-.445,16.325-7.372,20.236-.142,24.79,7.147-.4,10.053-17.742,11.1-27.085,4.252-37.918,5.819-54.941,7.24-66.21.516-4.092,5.465-16.07,10.391-27.249C705.722,306.153,695.342,308.445,691.17,316.453Z" transform="translate(-657.741 -55.614)" fill="#ad263d"/>
    <path id="Path_29" data-name="Path 29" d="M674.377,315.973a7.5,7.5,0,0,0-1.095.282q-1.135,7.243-1.935,15.1c6.377,3.076,21.908,10,31.259,9.393.447-4.108.838-7.528,1.215-10.532a53.836,53.836,0,0,1,3.072-9.751Z" transform="translate(-659.861 -53.075)" fill="#311e69"/>
    <g id="Group_35" data-name="Group 35" transform="translate(10.805 180.554)">
      <path id="Path_30" data-name="Path 30" d="M768.448,353.95c3.39-20.041,2.146-50.748.926-63.134-2.024-20.56-3.558-24.993-5.064-36.523-18.787,3.773-50.839-2.675-63.766-4.584-5.673,15.1-21.738,33.98-29.745,84.734,5.015,12.822,28.485,20.832,41.424,19.507,4.735-24.722,8.946-28.806,8.946-28.806s-.24,2.733,1.018,30.106C733.281,355.928,756.131,359.813,768.448,353.95Z" transform="translate(-670.799 -249.709)" fill="#fff"/>
    </g>
    <path id="Path_31" data-name="Path 31" d="M692.194,258.862c-2.659,5.141-5.8,11.093-9.017,18.466,9.15-1.224,24.522-2.913,33.443-1.868C727.1,276.689,702.892,264.2,692.194,258.862Z" transform="translate(-656.99 -66.934)" fill="#311e69"/>
    <g id="Group_37" data-name="Group 37" transform="translate(67.82 101.457)">
      <path id="Path_32" data-name="Path 32" d="M716.753,199.174a11.457,11.457,0,0,1,10.815-12.724c12.425-.63,30.6-.908,35.308,2.443,6.333,4.507,5.7,20.072,5.4,24.261a2.472,2.472,0,0,1-.985,1.755h0a2.289,2.289,0,0,0,.134,3.906l3.093,2.114a2.62,2.62,0,0,1,.893,1.008c2.587,5.294,21.032,44.126,11.113,55.214-10.652,11.909-40.556,10.539-49.407,4.766C726.3,277.464,719.506,223.6,716.753,199.174Z" transform="translate(-716.68 -186.059)" fill="#fff"/>
      <g id="Group_36" data-name="Group 36" transform="translate(11.457 2.161)">
        <path id="Path_33" data-name="Path 33" d="M769.179,221.514a2.609,2.609,0,0,0-.893-1.008l-3.092-2.113a2.335,2.335,0,0,1-.135-3.907,2.472,2.472,0,0,0,.985-1.755c.293-4.189.928-19.754-5.4-24.261a9.51,9.51,0,0,0-1.133-.674c-.549,6.192-2.14,14.574-6.645,18.149-4.4,3.493-16.744,2.8-26.294,1.619-1.034,27.4-1.648,70.036,4.317,73.928,8.852,5.773,38.755,7.143,49.407-4.766C790.211,265.64,771.766,226.808,769.179,221.514Z" transform="translate(-725.9 -187.798)" fill="#1e1240"/>
      </g>
    </g>
    <path id="Path_34" data-name="Path 34" d="M674.9,186.1s-1.951-9.437-.513-12.715,9.328-4.9,10.8-4.426c5.624,1.819.261,18.838-1.112,19.849S674.9,186.1,674.9,186.1Z" transform="translate(-659.251 -88.771)" fill="#ff6161"/>
    <path id="Path_35" data-name="Path 35" d="M751.4,253.4c-7.666,1.54-17.542,1.377-27.423.514-.016,17.43.544,44.435,3.95,53.427,5.178,13.669,6.213,7.664,3.728,24.025-1.832,12.059-3.6,18.491-3.389,24.606,9.759.6,20.233.435,27.272-2.915,3.39-20.039,2.146-50.748.926-63.134C754.444,269.361,752.91,264.929,751.4,253.4Z" transform="translate(-647.088 -68.26)" fill="#bcbbbb"/>
    <path id="Path_36" data-name="Path 36" d="M667.867,245.918c2.9,4.178,9.19,9.183,21.892,7.554,15.747-2.021,36.24-14.71,39.073-25.854s-19.488-29.192-19.488-29.192S658.7,232.707,667.867,245.918Z" transform="translate(-660.975 -81.6)" fill="#b2ced6"/>
    <path id="Path_37" data-name="Path 37" d="M728.832,224.373c.948-3.729-.927-8.233-3.835-12.573-4.638,1.908-9.569,4.554-16.318,7.463-12.012,5.178-9.452,8.522-18.921,11.311-5.444,1.6-13.478.451-19.331-.818-3.42,5.04-4.841,9.631-2.561,12.916,2.9,4.178,9.19,9.183,21.892,7.554C705.506,248.207,726,235.518,728.832,224.373Z" transform="translate(-660.975 -78.355)" fill="#9cb6be"/>
    <path id="Path_38" data-name="Path 38" d="M677.384,178.778s-17.088,42.25-13.179,61.212,24.891,12.464,27.263-4.914S690.505,164.966,677.384,178.778Z" transform="translate(-661.735 -86.921)" fill="#ff6161"/>
    <path id="Path_39" data-name="Path 39" d="M764.735,298.731c4.631-42.922,4.087-84.5-4.316-93.052-17.781-18.112-58.982-14.9-61.095,2.525-1.684,13.889-18.544,78.23-11.52,75.487C703.819,277.44,749.895,318.87,764.735,298.731Z" transform="translate(-656.281 -82.789)" fill="#cfe1e6"/>
    <path id="Path_40" data-name="Path 40" d="M726.037,193.863c3.406,6.86,4.372,19.946,2.723,33.352-2.255,18.327-1.054,40.7-4.566,47.859-2.27,4.626-4.276,14.05-5.33,21.311,15.341,7.036,30.516,12.312,37.92,2.265,4.631-42.922,4.087-84.5-4.315-93.052C745.836,198.841,735.943,195.055,726.037,193.863Z" transform="translate(-648.33 -82.707)" fill="#a9c8d1"/>
    <path id="Path_41" data-name="Path 41" d="M738.778,216.037c2.775,10.808,7.379,34.065,28.591,32.457l.826,13.22s-16.58-4.474-27.847-18.044-17.737-37.468-5.3-48.478C741.2,189.755,736,205.224,738.778,216.037Z" transform="translate(-646.043 -82.658)" fill="#1e1240"/>
    <g id="Group_38" data-name="Group 38" transform="translate(5.485 98.856)">
      <path id="Path_42" data-name="Path 42" d="M687.481,183.965c-.631,6.355-2.454,23.3-4.8,32.9-2.929,11.969-4.182,20.223-10.292,25.63a13.973,13.973,0,0,1-5.869,2.848c7.093,9.455,22.254,2.543,24.248-12.075C692.254,222.36,691.495,197.534,687.481,183.965Z" transform="translate(-666.518 -183.965)" fill="#ad263d"/>
    </g>
    <g id="Group_41" data-name="Group 41" transform="translate(57.25 79.871)">
      <g id="Group_40" data-name="Group 40">
        <g id="Group_39" data-name="Group 39" transform="translate(8.926 1.707)">
          <path id="Path_43" data-name="Path 43" d="M727.962,185.55a9.482,9.482,0,0,0,1.857-4.056c.419-2.871-3.463-9.74-5.992-11.159-1.448-.811-4.18.333-6.258,1.461C720.011,173.978,726.243,179.954,727.962,185.55Z" transform="translate(-714.82 -170.061)" fill="#fff"/>
          <path id="Path_44" data-name="Path 44" d="M718.1,171.457a31.42,31.42,0,0,0-2.747,1.683c1.23,4.219,9.8,14.352,10.816,14.152a5.707,5.707,0,0,0,2.325-2.08C726.78,179.615,720.548,173.639,718.1,171.457Z" transform="translate(-715.357 -169.722)" fill="#311e69"/>
        </g>
        <path id="Path_45" data-name="Path 45" d="M711.75,168.7c3.778-.308,8.531,5.473,12.084,9.746,5.427,6.529,12.363,10.279,10.79,14.509-1.135,3.05-11.328-1.618-16.958-5.808C712.459,183.271,702.978,169.415,711.75,168.7Z" transform="translate(-708.174 -168.687)" fill="#bcbbbb" stroke="#fff" stroke-width="1"/>
      </g>
      <path id="Path_46" data-name="Path 46" d="M711.961,179.773s-2.493-3.809,1.625-5.491c2.631-1.075,5.993.744,8.181,3.37,2.536,3.046,3.793,3.882,3.982,7.957a21.722,21.722,0,0,1-1.284,6.33S713.511,185.958,711.961,179.773Z" transform="translate(-707.436 -167.406)" fill="#ffd140"/>
      <path id="Path_47" data-name="Path 47" d="M723.175,184.392l2.357,15.315c-.343,2.105-9.151,5.054-12.012,1.824-.838-.944,1.658-13.773,1.658-13.773Z" transform="translate(-706.918 -164.876)" fill="#ff6161"/>
      <path id="Path_48" data-name="Path 48" d="M721.829,180.495l1.852,8.684a5.415,5.415,0,0,1-4.51,6.061,14.968,14.968,0,0,1-6.615-.441c-2.367-.546-3.352-2.979-3.016-6.123a29.493,29.493,0,0,1,2.94-9.607C714.632,174.744,720.209,174.923,721.829,180.495Z" transform="translate(-707.858 -166.902)" fill="#ff6161"/>
      <path id="Path_49" data-name="Path 49" d="M713.068,183.2a14.34,14.34,0,0,0-2.825-.4c-.68.088-1.6,6.093-1.085,8.888.42,2.285,1.719,3.978,3.632,4.47s6.416-.08,7.708-1.227a8.186,8.186,0,0,0,2.78-6.553,31.569,31.569,0,0,0-1.061-4.279c-.094-.707-.42-1.277-1.28-1.31s-1.618,1.915-3.059,1.48S716.24,183.194,713.068,183.2Z" transform="translate(-707.972 -165.266)" fill="#ffd140"/>
      <path id="Path_50" data-name="Path 50" d="M715.44,184.139a14.607,14.607,0,0,1-4.8-.368s-.271,1.819.769,2.572S714.544,186.249,715.44,184.139Z" transform="translate(-707.584 -165.027)" fill="#fff"/>
      <path id="Path_51" data-name="Path 51" d="M719.5,183.472a6.644,6.644,0,0,0,.341-1.371c.135-.889.544-2.177,1.763-1.327,1.772,1.238.959,6.61-1.291,6.633C718.639,187.425,719.075,184.586,719.5,183.472Z" transform="translate(-705.52 -165.822)" fill="#ff6161"/>
    </g>
    <path id="Path_52" data-name="Path 52" d="M745.647,398.152c-2.016-.262-5.91.875-7.388.25s-3.819-3.395-6.311-2.753-7.521,7.077-9.4,8.538-6.643,2.7-7.485,5.736h0a2.923,2.923,0,0,0,2.924,2.924h25.393a4.506,4.506,0,0,0,4.456-3.9C748.171,406.549,747.661,398.415,745.647,398.152Z" transform="translate(-649.253 -33.763)" fill="#1e1240"/>
    <path id="Path_53" data-name="Path 53" d="M692.689,398.152c-2.014-.262-5.909.875-7.386.25s-3.82-3.395-6.313-2.753-7.521,7.077-9.4,8.538-6.642,2.7-7.485,5.736h0a2.924,2.924,0,0,0,2.924,2.924h25.393a4.508,4.508,0,0,0,4.458-3.9C695.213,406.549,694.7,398.415,692.689,398.152Z" transform="translate(-662.104 -33.763)" fill="#1e1240"/>
    <path id="Path_54" data-name="Path 54" d="M737.867,204.545c-10.928,12.266-3.13,69.286-3.13,69.286s-7.158,59.913,5.018,65.876,25.055-84.669,18.085-120.309C754.977,204.77,741.987,199.918,737.867,204.545Z" transform="translate(-645.132 -80.525)" fill="#ff6161"/>
    <path id="Path_55" data-name="Path 55" d="M756.417,218.824a22.075,22.075,0,0,0-7.97-13.6c3.543,11.157,8.927,32.38,3.19,44.219-8.029,16.569-5.012,20.923-5.727,32.134s-2.094,22.129-3.544,38.077c-1.074,11.81-5.462,14.934-4.254,19.355.075.041.145.089.221.127C750.508,345.1,763.387,254.464,756.417,218.824Z" transform="translate(-643.71 -79.951)" fill="#ad263d"/>
    <path id="Path_56" data-name="Path 56" d="M738.624,305.93a2.815,2.815,0,0,0-3.384,2.382c-.652,4.809-1.7,14.1-.313,15.873,1.886,2.411,8.385,8.6,9.329,7.861s0-9.223,0-9.223,2.83-6.814,2.515-11.529C746.565,308.2,741.845,306.638,738.624,305.93Z" transform="translate(-644.598 -55.528)" fill="#ff6161"/>
    <g id="Group_43" data-name="Group 43" transform="translate(8.044)">
      <g id="Group_42" data-name="Group 42" transform="translate(0 60.23)">
        <path id="Path_57" data-name="Path 57" d="M695.664,181.668H671.09a2.513,2.513,0,0,1-2.513-2.514V167.681a14.8,14.8,0,0,1,29.6,0v11.474A2.513,2.513,0,0,1,695.664,181.668ZM673.6,176.642h19.549v-8.961a9.774,9.774,0,0,0-19.549,0Z" transform="translate(-668.577 -152.882)" fill="#ffd140"/>
      </g>
      <path id="Path_58" data-name="Path 58" d="M681.03,104.414a2.792,2.792,0,0,0-2.784,2.784v61.687a2.784,2.784,0,1,0,5.567,0V107.2A2.792,2.792,0,0,0,681.03,104.414Z" transform="translate(-666.231 -104.414)" fill="#ffb03b"/>
    </g>
    <path id="Path_59" data-name="Path 59" d="M679.892,184.945s-1.477-5.585-.326-6.662c2.4-2.243,4.649-1.6,5.038-1.932,1.346-1.147,2.91-5.32,3.862-4.887s1.51,4.006-.055,7.734C687.2,182.1,685.589,186.084,679.892,184.945Z" transform="translate(-657.973 -88.151)" fill="#ff6161"/>
    <path id="Path_60" data-name="Path 60" d="M685.878,169.629a6.474,6.474,0,0,1,1.645,4.086c-.072,2.247-2.849-.063-3.334-.782,0,0-.058,1.676-1.166,1.741a2.022,2.022,0,0,1-1.709-.867s-.388,1.321-1.533,1.243-3.825-3.611-3.825-3.611S683.063,168.287,685.878,169.629Z" transform="translate(-658.742 -88.669)" fill="#ff6161"/>
    <g id="Group_44" data-name="Group 44" transform="translate(85.727 122.33)">
      <path id="Path_61" data-name="Path 61" d="M758.867,271.851c1.648-19.9,1.7-39.7-.8-52.452-2.862-14.629-15.852-19.48-19.972-14.854-8.719,9.786-7.477,49.086-5.827,64.163C738.218,271.488,749.042,273.26,758.867,271.851Z" transform="translate(-731.09 -202.855)" fill="#cfe1e6"/>
    </g>
    <path id="Path_62" data-name="Path 62" d="M689,319.693a49.216,49.216,0,0,0-4.288,14.917c8.225,3.573,17.547,5.325,24.139,4.65,4.735-24.722,8.946-28.806,8.946-28.806S694.279,308.043,689,319.693Z" transform="translate(-656.618 -54.464)" fill="#bcbbbb"/>
    <path id="Path_63" data-name="Path 63" d="M738.245,203.274a47.118,47.118,0,0,0,3.415,16.3c4.971,12.427,5.844,20.195,4.165,27.08-1.292,5.3-1.4,18.059-1.054,25.457a54.151,54.151,0,0,0,12.36-.257c1.648-19.9,1.7-39.7-.8-52.452C753.823,206.564,743.519,201.259,738.245,203.274Z" transform="translate(-643.627 -80.524)" fill="#a9c8d1"/>
  </g>
  <g id="Group_48" data-name="Group 48" transform="translate(354.728 60.286)">
    <path id="Path_64" data-name="Path 64" d="M423.819,182.347s1.949-6.621,1.116-9.044-6.367-4.049-7.444-3.8c-4.121.967-1.3,13.43-.377,14.232S423.819,182.347,423.819,182.347Z" transform="translate(-405.306 -88.85)" fill="#ad263d"/>
    <g id="Group_47" data-name="Group 47" transform="translate(0)">
      <g id="Group_46" data-name="Group 46" transform="translate(0 60.229)">
        <path id="Path_65" data-name="Path 65" d="M434.347,181.849H409.773a2.513,2.513,0,0,1-2.513-2.513V167.863a14.8,14.8,0,1,1,29.6,0v11.474A2.513,2.513,0,0,1,434.347,181.849Zm-22.06-5.025h19.547v-8.961a9.774,9.774,0,1,0-19.547,0Z" transform="translate(-407.26 -153.063)" fill="#ffd140"/>
      </g>
      <path id="Path_66" data-name="Path 66" d="M419.714,104.6a2.792,2.792,0,0,0-2.784,2.784v61.686a2.784,2.784,0,0,0,5.567,0V107.38A2.792,2.792,0,0,0,419.714,104.6Z" transform="translate(-404.913 -104.596)" fill="#ffb03b"/>
    </g>
    <path id="Path_67" data-name="Path 67" d="M420.764,180.554s.432-4.114-.5-4.751c-1.944-1.325-3.467-.623-3.778-.814-1.079-.664-2.982-2.822-4.536-1.6-.589.464.638,1.566,2.155,4.032C415.284,179.341,416.859,181.985,420.764,180.554Z" transform="translate(-406.159 -87.991)" fill="#ad263d"/>
    <path id="Path_68" data-name="Path 68" d="M416.615,169.917a4.633,4.633,0,0,0-1.415,2.818c-.081,1.609,2.037.123,2.426-.36,0,0-.057,1.2.728,1.311a1.446,1.446,0,0,0,1.271-.518s.2.966,1.021.978,2.943-2.352,2.943-2.352S418.7,169.125,416.615,169.917Z" transform="translate(-405.334 -88.78)" fill="#ad263d"/>
  </g>
  <g id="Group_79" data-name="Group 79" transform="translate(507.797 56.046)">
    <circle id="Ellipse_8" data-name="Ellipse 8" cx="14.111" cy="14.111" r="14.111" transform="translate(120.711 176.978) rotate(-1.153)" fill="#f4a031"/>
    <g id="Group_49" data-name="Group 49" transform="translate(128.993 183.82)">
      <path id="Path_69" data-name="Path 69" d="M641.224,263.072h8.438a6.983,6.983,0,0,0,0-13.965h-8.438a6.983,6.983,0,0,0,0,13.965Z" transform="translate(-634.241 -249.107)" fill="#ffb03b"/>
    </g>
    <path id="Path_70" data-name="Path 70" d="M609.58,196.5c13.484-5.527,32.426,43.085,32.426,43.085s4.608-35.967,12.84-35.609,8.481,46.446,0,55.647-27.816,0-35.465-12.89C614.163,237.943,597.413,201.492,609.58,196.5Z" transform="translate(-512.285 -78.159)" fill="#5896a9"/>
    <g id="Group_50" data-name="Group 50" transform="translate(139.322)">
      <path id="Path_71" data-name="Path 71" d="M656.518,467.659V108.167a6.983,6.983,0,0,0-13.965,0V467.659a6.983,6.983,0,1,0,13.965,0Z" transform="translate(-642.553 -101.184)" fill="#ffd140"/>
    </g>
    <path id="Path_72" data-name="Path 72" d="M572.174,295.321a15.542,15.542,0,0,0-3.163-10.288c-1.542-2.045-4.137.757-5.137,3.448a63.52,63.52,0,0,0,4.229,7.8c.281-.425.263.226.679,1.384C569.869,300.7,572.079,296.915,572.174,295.321Z" transform="translate(-522.324 -56.74)" fill="#ff6161"/>
    <path id="Path_73" data-name="Path 73" d="M600.506,195.494s11.518-2.2,17.888,2.9,11.677,9.044,11.292,24.417c-.253,10.071,19.919,42.719,24.76,70.747s6.37,33.123,1.274,37.2S599.434,209.157,600.506,195.494Z" transform="translate(-513.438 -78.412)" fill="#8c9fa5"/>
    <path id="Path_74" data-name="Path 74" d="M663.093,439.593c-.3-.153-7.753-4.46-7.753-4.46s12.438-70.786,1.4-114.214c-3.386-13.325-15.7-75.45-20.681-86.565-5.489,1.735-17.729,1.465-33.95-3.266-1.492,5.464-13.971,26.854-14.375,29.51-.783,5.151-.077,95.32.088,104.77.148,8.439-3.314,65.338-3.612,72.8,4.994,1.071,10.871-.495,10.871-.495,7.137-20.811,14.536-40.428,17.622-61.235a425.093,425.093,0,0,0,2.812-93.776h0c4.025,4.146,15.5,30.683,14.344,41.629-3.57,33.76,17.51,112.766,16.043,114.93a5.859,5.859,0,0,1,1.532,1.768c1.244,2.192,14.49,2.185,16.747,1.456C665.5,442.026,664.311,440.658,663.093,439.593Z" transform="translate(-517.388 -69.66)" fill="#ff6161"/>
    <path id="Path_75" data-name="Path 75" d="M635.843,400.349c1.244,2.192,14.49,2.185,16.747,1.456,1.317-.425.128-1.793-1.09-2.858,4.092,2.1,9.142,4.809,9.318,6.207.291,2.33-23.81,2.258-27.815,0-2.094-1.181-.63-3.716,1.307-6.574A5.859,5.859,0,0,1,635.843,400.349Z" transform="translate(-505.796 -29.014)" fill="#1e1240"/>
    <g id="Group_51" data-name="Group 51" transform="translate(64.185 367.112)">
      <path id="Path_76" data-name="Path 76" d="M584.38,396.7a5.524,5.524,0,0,1-.415,2.359,5.894,5.894,0,0,1,1.532,1.768c1.243,2.192,14.49,2.185,16.746,1.456,1.318-.425.129-1.793-1.089-2.858-2.726-1.4-6.192-2.53-6.338-2.821A28.615,28.615,0,0,1,584.38,396.7Z" transform="translate(-581.633 -396.606)" fill="#ff6161"/>
      <path id="Path_77" data-name="Path 77" d="M585.953,400.349c1.243,2.192,14.49,2.185,16.746,1.456,1.318-.425.129-1.793-1.089-2.858,4.091,2.1,9.142,4.809,9.316,6.207.292,2.33-23.81,2.258-27.815,0-2.094-1.181-.629-3.716,1.309-6.574A5.894,5.894,0,0,1,585.953,400.349Z" transform="translate(-582.089 -396.127)" fill="#1e1240"/>
    </g>
    <path id="Path_78" data-name="Path 78" d="M610.77,354.081c1.546-10.417,2.561-20.615,3.206-30.229-4.448-1.526-10.639-1.049-13.15,11.471-4.114,20.516-6.518,17.063-6.766,34.841s-.249,19.228-1.594,27.719a27.063,27.063,0,0,0,1.836,14.086C601.068,392.393,607.849,373.769,610.77,354.081Z" transform="translate(-515.454 -47.298)" fill="#ad263d"/>
    <path id="Path_79" data-name="Path 79" d="M646.02,312.491c-3.092,10.419-6.059,22.875-6.529,33.53-1.033,23.4-1.862,34.38-1.654,45.564s-1.036,16.11,2.485,21.518a2.443,2.443,0,0,0,2.229,1.012C644,405.295,652.214,352.143,646.02,312.491Z" transform="translate(-504.387 -49.906)" fill="#ad263d"/>
    <path id="Path_80" data-name="Path 80" d="M586.871,350.078c-.148,3.215-.326,6.8-.521,10.574,6.779,1,16.265,1.819,23.356.134.9-3.9,1.669-7.818,2.289-11.781Z" transform="translate(-516.869 -41.045)" fill="#311e69"/>
    <path id="Path_81" data-name="Path 81" d="M624.476,349.611c.49,2.9,1,5.786,1.52,8.642,5.716.984,17.447,2.437,24.954-.517.164-2.949.3-5.957.4-9a28.419,28.419,0,0,0-3.55-1.176Z" transform="translate(-507.617 -41.397)" fill="#311e69"/>
    <g id="Group_52" data-name="Group 52" transform="translate(59.375 161.429)">
      <path id="Path_82" data-name="Path 82" d="M578.319,381.709c-.928-6.917,4.895-76.406,4.106-90.959-1.858-34.221,4.516-37.7,9.212-43.338,5.29-6.435,10.436-10.86,11.927-16.324,16.222,4.731,30.67,7.973,36.159,6.238,4.978,11.114,10.752,19.255,14.138,32.579,7.318,28.8,16.98,69.532,10.407,111.8-4.665,2.867-29.5,2.279-40.439.377-.744-6.489.546-29.624,1.1-38.769a52.641,52.641,0,0,0-.1-7.744c-1.064-12.367-4.513-49.456-7.862-52.905,0,0,7.55,32.157.635,99.665C610.724,384.79,587.966,385.457,578.319,381.709Z" transform="translate(-578.218 -231.089)" fill="#614cd4"/>
    </g>
    <path id="Path_83" data-name="Path 83" d="M645.368,252.1c-3.044-6.686-14.041-15.255-14.041-15.255l2.121,15.742C637.789,253.806,642,253.8,645.368,252.1Z" transform="translate(-505.955 -68.264)" fill="#311e69"/>
    <path id="Path_84" data-name="Path 84" d="M643.61,268.688c-3.386-13.324-9.16-21.465-14.138-32.579-1.888.6-4.853.594-8.566.155-.619,10.933-.747,22.783.631,31.326,3.313,20.541,13.855,56.993,11.162,71.491s-1.891,23.318,0,33.345c.545,2.892,1.183,6.441,1.814,10.028,8.793.112,17.016-.435,19.5-1.963C660.589,338.221,650.928,297.486,643.61,268.688Z" transform="translate(-508.592 -68.442)" fill="#1e1240"/>
    <path id="Path_85" data-name="Path 85" d="M631.328,248.17c10.057-8.207-22.542-9.249-36.12-9.336-1.791,2.052-3.8,4.228-5.833,6.7-.466.56-.949,1.1-1.439,1.649l-.4,2.065S618.726,258.452,631.328,248.17Z" transform="translate(-516.582 -67.78)" fill="#311e69"/>
    <g id="Group_53" data-name="Group 53" transform="translate(71.97 118.652)">
      <path id="Path_86" data-name="Path 86" d="M591.373,253.184c8.946-19.563-9.5-47.982-.444-52.55,15.755-7.946,24.177-3.023,33.085,6.489,5.732,6.121-.411,15,3.143,22.931,1.563,3.487,8.269,8.93,13.334,21.063-2.622,3.625-2.657,7.723-20.615,8.832C604.4,260.906,589.526,257.224,591.373,253.184Z" transform="translate(-588.353 -196.665)" fill="#cfe1e6"/>
    </g>
    <path id="Path_87" data-name="Path 87" d="M580.55,309.562c4.018.687,14.738-.309,14.738-.309L581.155,298.86C580.973,302.287,580.767,305.886,580.55,309.562Z" transform="translate(-518.277 -53.214)" fill="#311e69"/>
    <path id="Path_88" data-name="Path 88" d="M621.682,207.122c-6.069-6.482-11.916-10.827-20.008-10.428a44.652,44.652,0,0,0,7.381,10.45c7.327,7.456,9.346,15.067,7.327,16.621s-5.107,2.869-9.465,4.619-8.438-1.72-8.884-1.849,1.033,5.152,8.215,5.618,10.134-3.107,13.862,1.087c3.409,3.835.185,15.169,2.7,26.24,12.715-1.535,13.01-5.136,15.345-8.363-5.065-12.133-11.771-17.576-13.334-21.063C621.271,222.123,627.415,213.244,621.682,207.122Z" transform="translate(-514.052 -78.013)" fill="#a9c8d1"/>
    <path id="Path_89" data-name="Path 89" d="M607.161,196.563c.286.843-3.217,1.975-3.652,2.749-1.475,2.623-2.349,11.016-2.349,16.463,0,6.623,9.17,53.343,3.482,84.717-1.637,9.028-5.672,25.3-5.575,31.384a4.1,4.1,0,0,1-6.309,3.5l-16.784-10.749s1.189-44.165,12.23-67.265a49.528,49.528,0,0,0,4.756-20.384c-.107-8.694-14.2-26.328-.977-36.265C597.867,196.294,606.239,193.842,607.161,196.563Z" transform="translate(-519.387 -78.315)" fill="#bdcdd1"/>
    <path id="Path_90" data-name="Path 90" d="M649.252,298.95l-12.259,12.232s8.142.912,13.758-.695Q650.113,304.619,649.252,298.95Z" transform="translate(-504.58 -53.192)" fill="#311e69"/>
    <g id="Group_72" data-name="Group 72" transform="translate(78.318 90.717)">
      <g id="Group_54" data-name="Group 54">
        <path id="Path_91" data-name="Path 91" d="M612.066,178.357s-.464-3.57-5.9-4.152-19.217,11.916-9.084,20.29c14.811,12.243,17.655-2.34,18.155-6.146S616.934,179.269,612.066,178.357Z" transform="translate(-593.462 -174.185)" fill="#ffd140"/>
      </g>
      <g id="Group_57" data-name="Group 57" transform="translate(6.937 20.152)">
        <g id="Group_55" data-name="Group 55">
          <path id="Path_92" data-name="Path 92" d="M599.888,190.4l-.84,9.95c-.132,1.639,3.45,6.4,6.645,4.6.935-.528.8-3.009.08-4.787l-1.7-8.766Z" transform="translate(-599.044 -190.402)" fill="#ff6161"/>
        </g>
        <g id="Group_56" data-name="Group 56" transform="translate(1.259 1.889)">
          <path id="Path_93" data-name="Path 93" d="M604.835,196.238c-2.473-.882-4.778-4.316-4.778-4.316l4.01.362Z" transform="translate(-600.057 -191.922)" fill="#311e69"/>
        </g>
      </g>
      <g id="Group_58" data-name="Group 58" transform="translate(7.166 8.415)">
        <path id="Path_94" data-name="Path 94" d="M600.494,184.891l-1.071,4.454a6.773,6.773,0,0,0,4.665,8.185c3.243.851,6.575-.788,7.4-4.906.732-3.662-1.635-7.063-2.449-8.812C607.178,179.827,602.1,179.858,600.494,184.891Z" transform="translate(-599.229 -180.957)" fill="#ff6161"/>
      </g>
      <g id="Group_59" data-name="Group 59" transform="translate(5.663 14.082)">
        <path id="Path_95" data-name="Path 95" d="M600.564,188.13a5.7,5.7,0,0,1-.205-1.185c-.063-.763-.332-1.881-1.419-1.233-1.579.944-1.025,4.991.886,5.146C601.245,190.973,600.857,189.1,600.564,188.13Z" transform="translate(-598.019 -185.517)" fill="#ff6161"/>
      </g>
      <g id="Group_60" data-name="Group 60" transform="translate(17.622 13.393)">
        <path id="Path_96" data-name="Path 96" d="M607.821,187.643a5.689,5.689,0,0,0,.124-1.2c.01-.765.2-1.9,1.33-1.327,1.642.833,1.366,4.909-.529,5.194C607.337,190.526,607.595,188.633,607.821,187.643Z" transform="translate(-607.643 -184.963)" fill="#ff6161"/>
      </g>
      <g id="Group_61" data-name="Group 61" transform="translate(12.625 18.532)">
        <path id="Path_97" data-name="Path 97" d="M603.621,189.509a6.285,6.285,0,0,0,4.451-.411S606.922,192.6,603.621,189.509Z" transform="translate(-603.621 -189.098)" fill="#fff"/>
      </g>
      <g id="Group_63" data-name="Group 63" transform="translate(7.569 19.88)">
        <g id="Group_62" data-name="Group 62">
          <path id="Path_98" data-name="Path 98" d="M604.527,193.855a8.87,8.87,0,0,0,4.851-.934,9.171,9.171,0,0,0,2.058-2.738c-.012.067-.017.134-.031.2-.821,4.118-4.153,5.757-7.4,4.906a6.5,6.5,0,0,1-4.456-4.2A8.4,8.4,0,0,0,604.527,193.855Z" transform="translate(-599.553 -190.183)" fill="#ad263d"/>
        </g>
      </g>
      <g id="Group_64" data-name="Group 64" transform="translate(7.133 6.762)">
        <path id="Path_99" data-name="Path 99" d="M608.43,180.921s1.064,1.4-.661,3.359c-1.128,1.284-6.092,3.084-8.113,2.273S602.69,176.23,608.43,180.921Z" transform="translate(-599.202 -179.627)" fill="#ffd140"/>
      </g>
      <g id="Group_71" data-name="Group 71" transform="translate(7.366 12.479)">
        <g id="Group_66" data-name="Group 66" transform="translate(0 0.82)">
          <g id="Group_65" data-name="Group 65">
            <path id="Path_100" data-name="Path 100" d="M602.344,190.056a3.791,3.791,0,0,1-1.782-.731h0a2.821,2.821,0,0,1-1.172-2.2,1.921,1.921,0,0,1,1.367-1.962,10.695,10.695,0,0,1,4.339-.094,1.921,1.921,0,0,1,1.449,1.9,2.823,2.823,0,0,1-1.075,2.248,3.944,3.944,0,0,1-2.437.879c-.144,0-.287,0-.427-.012C602.518,190.079,602.431,190.069,602.344,190.056Zm2.1-4.47a9.89,9.89,0,0,0-1.512-.047,6.6,6.6,0,0,0-1.96.232,1.286,1.286,0,0,0-.939,1.341,2.186,2.186,0,0,0,.92,1.7h0a3.189,3.189,0,0,0,1.7.629c.119.009.241.012.364.01a3.292,3.292,0,0,0,2.036-.728,2.192,2.192,0,0,0,.844-1.74,1.285,1.285,0,0,0-1-1.3A3.04,3.04,0,0,0,604.447,185.587Z" transform="translate(-599.389 -184.887)" fill="#fff"/>
          </g>
        </g>
        <g id="Group_68" data-name="Group 68" transform="translate(7.18)">
          <g id="Group_67" data-name="Group 67">
            <path id="Path_101" data-name="Path 101" d="M607.829,189.526a3.07,3.07,0,0,1-2.618-2.449,1.924,1.924,0,0,1,.878-2.108,5.276,5.276,0,0,1,1.852-.583,5.381,5.381,0,0,1,1.96-.1,1.886,1.886,0,0,1,1.55,1.65,2.961,2.961,0,0,1-.541,2.309,3.216,3.216,0,0,1-2.028,1.261,3.278,3.278,0,0,1-.852.045C607.962,189.542,607.895,189.536,607.829,189.526Zm1.837-4.629a5.3,5.3,0,0,0-1.606.123,4.83,4.83,0,0,0-1.629.5,1.283,1.283,0,0,0-.585,1.444h0a2.438,2.438,0,0,0,2.234,1.945,2.629,2.629,0,0,0,2.309-1.044,2.321,2.321,0,0,0,.426-1.812,1.242,1.242,0,0,0-1.04-1.133C609.739,184.908,609.7,184.9,609.665,184.9Z" transform="translate(-605.167 -184.227)" fill="#fff"/>
          </g>
        </g>
        <g id="Group_70" data-name="Group 70" transform="translate(6.501 2.523)">
          <g id="Group_69" data-name="Group 69">
            <path id="Path_102" data-name="Path 102" d="M604.984,187.065l-.363-.533a1.143,1.143,0,0,1,1.239-.164l-.327.555C605.527,186.92,605.331,186.827,604.984,187.065Z" transform="translate(-604.621 -186.258)" fill="#fff"/>
          </g>
        </g>
      </g>
    </g>
    <path id="Path_103" data-name="Path 103" d="M623,222.953s7.262,43.315,8.026,55.926c.6,9.856,3.217,35.347,4.334,46.02a5.242,5.242,0,0,0,5.91,4.674c4.777-.671,11.131-3.125,12.061-11.327l-5.362-31.978s-7.335-31.5-10.447-39.365C630.513,229.195,623,222.953,623,222.953Z" transform="translate(-507.976 -71.634)" fill="#8c9fa5"/>
    <path id="Path_104" data-name="Path 104" d="M598.236,202.823c8.161,8.8-18.261,50.093-19.739,54.192-3.329,9.233-.549,52.6-7.255,54.425-18.46,5.02-12-49.706-7.707-63.55C568.92,230.511,591.251,195.3,598.236,202.823Z" transform="translate(-523.542 -76.771)" fill="#cfe1e6"/>
    <g id="Group_78" data-name="Group 78" transform="translate(0 238.148)">
      <g id="Group_73" data-name="Group 73" transform="translate(28.344)">
        <path id="Path_105" data-name="Path 105" d="M578.287,335.555l-2.229.01-.14-39.415c0-.44-.932-1.1-2.33-1.095l-15.791.068c-1.4.006-2.321.675-2.32,1.113l.142,39.415-2.231.01-.14-39.415c-.009-1.87,1.986-3.343,4.539-3.354l15.791-.067c2.555-.011,4.562,1.445,4.569,3.314Z" transform="translate(-553.247 -292.826)" fill="#311e69"/>
      </g>
      <g id="Group_75" data-name="Group 75" transform="translate(50.256 115.94)">
        <path id="Path_106" data-name="Path 106" d="M574.861,401.448l-.066-15.306,4.068-.017.077,17.916S574.271,405.641,574.861,401.448Z" transform="translate(-569.93 -386.125)" fill="#311e69"/>
        <g id="Group_74" data-name="Group 74" transform="translate(0 12.219)">
          <path id="Path_107" data-name="Path 107" d="M577.829,401.66a8.245,8.245,0,0,0-.726-3.44l-.01-2.25-2.764.011c-1.919.009-3.463,2.565-3.45,5.709s1.579,5.688,3.5,5.679l2.762-.012-.01-2.25A8.224,8.224,0,0,0,577.829,401.66Z" transform="translate(-570.88 -395.955)" fill="#311e69"/>
          <ellipse id="Ellipse_9" data-name="Ellipse 9" cx="3.475" cy="5.694" rx="3.475" ry="5.694" transform="matrix(1, -0.004, 0.004, 1, 2.738, 0.03)" fill="#2a1057"/>
        </g>
      </g>
      <g id="Group_77" data-name="Group 77" transform="translate(11.617 114.966)">
        <path id="Path_108" data-name="Path 108" d="M543.767,400.664l-.065-15.306,4.068-.017.076,17.916S543.176,404.857,543.767,400.664Z" transform="translate(-538.836 -385.341)" fill="#311e69"/>
        <g id="Group_76" data-name="Group 76" transform="translate(0 12.234)">
          <path id="Path_109" data-name="Path 109" d="M546.735,400.876a8.244,8.244,0,0,0-.726-3.44l-.01-2.25-2.763.011c-1.92.009-3.465,2.565-3.451,5.709s1.581,5.686,3.5,5.679l2.763-.012-.009-2.25A8.248,8.248,0,0,0,546.735,400.876Z" transform="translate(-539.786 -395.186)" fill="#311e69"/>
          <path id="Path_110" data-name="Path 110" d="M548.959,400.865c.014,3.144-1.531,5.7-3.451,5.708s-3.486-2.534-3.5-5.678,1.531-5.7,3.45-5.709S548.945,397.72,548.959,400.865Z" transform="translate(-539.246 -395.186)" fill="#2a1057"/>
        </g>
      </g>
      <path id="Path_111" data-name="Path 111" d="M596.7,319.46a8.531,8.531,0,0,0-5.485-1.967l-45.038.193A14.132,14.132,0,0,0,534.4,324.1l42.816-.184a10.914,10.914,0,0,1,9.653,5.736h0a10.918,10.918,0,0,1,1.306,5.129l.343,80.294,5.8-4.348a14.408,14.408,0,0,0,5.767-11.588l-.314-73.159A8.524,8.524,0,0,0,596.7,319.46Z" transform="translate(-529.475 -286.84)" fill="#c97a35"/>
      <path id="Path_112" data-name="Path 112" d="M587.836,328.4h0a10.914,10.914,0,0,0-9.653-5.736l-42.816.184a14.2,14.2,0,0,0-1.2,2.277l-.635,1.526a40.146,40.146,0,0,0-3.089,15.614l.288,67.35a8.365,8.365,0,0,0,8.4,8.328l40.353-.173a14.4,14.4,0,0,0,8.574-2.876l1.429-1.072-.343-80.294A10.918,10.918,0,0,0,587.836,328.4Z" transform="translate(-530.438 -285.585)" fill="#fa9135"/>
      <path id="Path_113" data-name="Path 113" d="M559.169,342.7c.006,1.6-3.163,2.914-7.078,2.93s-7.1-1.268-7.1-2.871,3.161-2.914,7.077-2.93S559.162,341.1,559.169,342.7Z" transform="translate(-526.906 -281.418)" fill="#311e69"/>
      <path id="Path_114" data-name="Path 114" d="M541.461,353.185a54.074,54.074,0,0,0,21.036-.3,1.06,1.06,0,0,1,.732,1.972c-5.854,3.01-14.462,5.452-22.537.256A1.062,1.062,0,0,1,541.461,353.185Z" transform="translate(-528.066 -278.258)" fill="#b9edfa"/>
      <path id="Path_115" data-name="Path 115" d="M543.426,362.91a42.164,42.164,0,0,0,12.956.67,1.059,1.059,0,0,1,.487,2.045c-4.112,1.463-9.326,2.117-14.19-.754A1.066,1.066,0,0,1,543.426,362.91Z" transform="translate(-527.594 -275.824)" fill="#b9edfa"/>
      <path id="Path_116" data-name="Path 116" d="M543.326,372.4c.536-2.73,5.158.5,11.082-1.033a1.162,1.162,0,0,1,.727,2.2C551.783,374.956,542.953,374.3,543.326,372.4Z" transform="translate(-527.313 -273.791)" fill="#b8edfa"/>
      <path id="Path_117" data-name="Path 117" d="M586.876,319.723H537.695a13.867,13.867,0,0,0-1.534,1.243h50.715a6.453,6.453,0,0,1,6.447,6.446v83.208l.579-.432c.234-.175.442-.374.664-.562V327.411A7.7,7.7,0,0,0,586.876,319.723Z" transform="translate(-529.049 -286.299)" fill="#2a1057"/>
    </g>
    <path id="Path_118" data-name="Path 118" d="M564.074,287.727c-2.306,6.34-1.439,13.755,6.385,10.774,1.686-.642-1.569-1.756-1.419-3.212a4.244,4.244,0,0,1,.82-2.284c-.885-1.413-4.525-2.413-5.764-5.334C564.089,287.69,564.08,287.708,564.074,287.727Z" transform="translate(-522.546 -55.929)" fill="#ff6161"/>
    <path id="Path_119" data-name="Path 119" d="M586.006,219.543c1.724,5.037,3.941,9.8,4.419,13.381,2.776-7.794,2.782-25.784,2.782-25.784Z" transform="translate(-516.953 -75.472)" fill="#311e69"/>
    <path id="Path_120" data-name="Path 120" d="M598.157,346.382c-5.588,11.175-5.744,26.982-5.747,27.851,8.832.237,17.847-.579,21.752-1.973,6.915-67.508-.635-99.665-.635-99.665s-4.651,29.732-7.6,46.789S603.9,334.888,598.157,346.382Z" transform="translate(-515.399 -59.587)" fill="#1e1240"/>
    <path id="Path_121" data-name="Path 121" d="M594.963,201.873a47.242,47.242,0,0,1-5.186,14.829c-4.971,8.492-13.626,12.923-16.443,21.477s-4.109,19.04-5.845,34.4a190.414,190.414,0,0,0-1.309,26.135l3.345,12.675c6.64-2.032,3.885-45.191,7.205-54.4,1.477-4.1,27.9-45.395,19.739-54.192A3.139,3.139,0,0,0,594.963,201.873Z" transform="translate(-521.775 -76.75)" fill="#5896a9"/>
    <path id="Path_122" data-name="Path 122" d="M641.348,209.932c-1.541-1.541,0-6.99,1.321-8.62s3.573-5.437,4.271-3.962-2.753,3.5-1.786,7.171c1.243,4.712-2.1,6.653-2.951,6.032S641.535,210.12,641.348,209.932Z" transform="translate(-503.679 -77.928)" fill="#ad263d"/>
  </g>
  <g id="Group_85" data-name="Group 85" transform="translate(826.42 203.885)">
    <g id="Group_83" data-name="Group 83">
      <path id="Path_123" data-name="Path 123" d="M865.706,410.151a18.537,18.537,0,0,0,2.738-8.992l9.986-.1a9.4,9.4,0,0,0,1.064,6.093c.746,1.161,2.9,2.008,5.864,3.221,4.7,2.354,10.5,5.391,10.721,6.986.359,2.661-27.187,2.856-31.79.323C861.881,416.354,863.525,413.44,865.706,410.151Z" transform="translate(-768.333 -176.253)" fill="#1e1240"/>
      <path id="Path_124" data-name="Path 124" d="M821.473,403.378a18.536,18.536,0,0,0,5.329-7.744l9.55,2.924a9.391,9.391,0,0,0-.828,6.129c.359,1.331,2.153,2.79,4.614,4.843,3.769,3.665,8.382,8.315,8.106,9.9-.461,2.644-26.777-5.5-30.4-9.306C815.951,408.134,818.4,405.854,821.473,403.378Z" transform="translate(-779.477 -177.569)" fill="#1e1240"/>
      <path id="Path_125" data-name="Path 125" d="M847.063,254.733,857.47,286.2l14.579,9.4s-13.458,21.635-29.54,10.415S847.063,254.733,847.063,254.733Z" transform="translate(-774.818 -211.761)" fill="#1e1240"/>
      <path id="Path_126" data-name="Path 126" d="M832.213,308.071s56.164,5.332,77.381,18.438c13.9,8.587-.4,72.01-3.593,90.275s-22.259,16.505-28.318,7.91,5-73.861,2.255-77.421c-6.492-8.427-49.863-5.321-58.93-12.242S832.213,308.071,832.213,308.071Z" transform="translate(-779.114 -198.818)" fill="#c97a35"/>
      <path id="Path_127" data-name="Path 127" d="M869.781,342.375c-1.394-12.35-31.692-31.827-31.692-31.827l-10.873,5.343s-6.524,4.5-6.679,10.1a21,21,0,0,0,1.92,9.534c.02.009.036.02.057.029.175.068.825.322,1.847.708,10.185,3.38,32.246,3.325,45.421,6.121Z" transform="translate(-778.664 -198.216)" fill="#311e69"/>
      <path id="Path_128" data-name="Path 128" d="M793.149,310.682s21.666-1.356,42.338,4.579c15.594,4.477,29.675,15.446,38.8,21.082,13.9,8.587-2.08,53.54-15.047,78.7-8.494,16.482-21.67,13.493-27.729,4.9s16.483-58.729,13.74-62.289c-6.493-8.427-41.663-2.308-50.736-16.027C788.223,332.114,793.149,310.682,793.149,310.682Z" transform="translate(-785.754 -198.216)" fill="#fa9135"/>
      <path id="Path_129" data-name="Path 129" d="M826.073,333.017c-14.291-7.767-11.339-.466-20.6-4.5-5.334-2.326-10.207-8.328-13.386-13-.985,7.066-1.745,18.607,2.426,24.914,9.073,13.719,44.243,7.6,50.736,16.027C848.016,349.9,840.363,340.783,826.073,333.017Z" transform="translate(-785.754 -197.012)" fill="#c97a35"/>
      <path id="Path_130" data-name="Path 130" d="M792.446,341.785c-9.644-23.257-8.028-82.605,14.208-96.869,16.662-10.687,57.716-2.562,53.348,24.223-1.142,7.006-10.114,20.2-12.153,28.211-1.244,4.889,5.509,26.8,6.381,32.329C855.841,339.9,799.865,359.669,792.446,341.785Z" transform="translate(-786.839 -215.249)" fill="#1e1240"/>
      <path id="Path_131" data-name="Path 131" d="M843.156,232.675a6.428,6.428,0,0,0,3.215-6.64c-.615-3.732-3.929-6.934-8.51-5.557-4.331,1.3-4.834,2.9-4.834,2.9s-3.963.021-6.912,5.809c-1.412,2.772,1.034,11.193,1.034,11.193S840.955,237.529,843.156,232.675Z" transform="translate(-777.415 -220.153)" fill="#1e1240"/>
      <path id="Path_132" data-name="Path 132" d="M830.737,231.962l-8.624,13.316c-.537,2.047,6.18,9.447,10.074,7.672,1.141-.519,1.95-1.9,1.6-4.257l2.1-11.563Z" transform="translate(-778.287 -217.287)" fill="#ff6161"/>
      <path id="Path_133" data-name="Path 133" d="M833.54,241.726l-.7-3.818c-2.16-.972-5.1-2.34-5.1-2.34a10.075,10.075,0,0,0,1.751,7.155,9.64,9.64,0,0,0,3.327,2.953Z" transform="translate(-776.936 -216.412)" fill="#311e69"/>
      <path id="Path_134" data-name="Path 134" d="M833.55,229.162l-5.179,7.127a5.374,5.374,0,0,0,1.645,7.313,14.852,14.852,0,0,0,6.174,2.267c2.367.459,4.24-1.35,5.2-4.334a29.246,29.246,0,0,0,1.208-9.9C842.395,226.851,837.267,224.764,833.55,229.162Z" transform="translate(-776.954 -218.552)" fill="#ff6161"/>
      <path id="Path_135" data-name="Path 135" d="M834.717,234.6a14.474,14.474,0,0,0,4.5,1.6s-.487,1.758-1.734,2.021S834.679,236.876,834.717,234.6Z" transform="translate(-775.221 -216.646)" fill="#fff"/>
      <g id="Group_80" data-name="Group 80" transform="translate(50.624 17.58)">
        <path id="Path_136" data-name="Path 136" d="M837.854,241.3c-2.383-1.332-5.565,1.9-8.916-3.216-.625-.954-.542-2.738-.454-3.785l-.113.157a5.372,5.372,0,0,0,1.645,7.312,14.835,14.835,0,0,0,6.174,2.268,3.743,3.743,0,0,0,3.685-1.448C839.4,242.515,838.581,241.709,837.854,241.3Z" transform="translate(-827.577 -234.3)" fill="#ad263d"/>
      </g>
      <path id="Path_137" data-name="Path 137" d="M834.463,226.872a7.053,7.053,0,0,0-1.076,3.553c.118,1.676.875,3.156-.845,3.529s-2.217-4.8-1.152-5.934A4.85,4.85,0,0,1,834.463,226.872Z" transform="translate(-776.164 -218.522)" fill="#1e1240"/>
      <path id="Path_138" data-name="Path 138" d="M832.151,231.493a7.707,7.707,0,0,1-.194-1.619c-.03-1.038-.314-2.572-1.832-1.771-2.207,1.166-2.1,6.207.48,6.554C832.518,234.915,832.479,232.829,832.151,231.493Z" transform="translate(-776.714 -218.278)" fill="#ff6161"/>
      <g id="Group_82" data-name="Group 82" transform="translate(48.168 19.782)">
        <path id="Path_139" data-name="Path 139" d="M906.2,249.186s2.089-6.648-7.258-13.114l-13.891,40.3Z" transform="translate(-811.174 -236.072)" fill="#abc8ce"/>
        <g id="Group_81" data-name="Group 81" transform="translate(0 11.056)">
          <path id="Path_140" data-name="Path 140" d="M833.805,244.969s4.977,34.408,4.48,40.5S825.6,333.12,825.6,333.12l51.824-1.945,19.844-70.81Z" transform="translate(-825.601 -244.969)" fill="#d8e7eb"/>
          <path id="Path_141" data-name="Path 141" d="M897.835,257.072c-2.589,1.531-10.686,2.892-10.686,2.892h0L867.3,330.774l12.672-7.758s10.456-28.632,13.64-33.99,16.89-42.4,16.89-42.4A48.335,48.335,0,0,1,897.835,257.072Z" transform="translate(-815.481 -244.567)" fill="#cfe1e6"/>
        </g>
      </g>
      <path id="Path_142" data-name="Path 142" d="M805.541,247.976c13.642.219,19.14,54.518,19.14,54.518s12.459-23.117,19.142-21.138,7.379,9.861,3.77,20.516c-4.894,14.446-15.235,36.064-30.911,31.228C792.678,325.7,787.622,247.69,805.541,247.976Z" transform="translate(-784.906 -213.401)" fill="#ff6161"/>
      <path id="Path_143" data-name="Path 143" d="M831.426,277.269s.561-6.408,4.511-9.48c.39-.3.707.089.665.58-.161,1.942.011,4.178.511,4.943.447.685,9.626-1.081,11.211-3.037s2.869-2.677,2.986-.816-2.94,4.495-2.94,4.495-.667,3.184-1.221,4.79c-.887,2.576-9.487,5.737-11.9,4.61S831.02,278.463,831.426,277.269Z" transform="translate(-776.033 -208.619)" fill="#ff6161"/>
      <path id="Path_144" data-name="Path 144" d="M812.123,278.263c2.175,16,4.349,35.571,4.349,35.571l6.29-11.339s-5.5-54.3-19.14-54.518a5.83,5.83,0,0,0-.915.062C805.28,253.731,810.505,266.361,812.123,278.263Z" transform="translate(-782.988 -213.401)" fill="#ad263d"/>
      <path id="Path_145" data-name="Path 145" d="M847.146,279.178c-3.78-2.16-3.726,4.005-6.648,10.1-3.175,6.627-2.934,7.87-4.487,11.495s-2.8,4.971-8.8,12.116-3,7.456-8.388,9.32c-3.327,1.152-10.645-3.626-15.753-7.446,3.166,5.493,7.045,9.46,11.612,10.87,15.676,4.835,26.018-16.782,30.911-31.228C847.7,288.165,848.325,282.887,847.146,279.178Z" transform="translate(-782.902 -205.936)" fill="#ad263d"/>
      <path id="Path_146" data-name="Path 146" d="M851.592,407.784c9.914-19.238,21.573-50.022,20.311-67.3-2.711,1.9-10.19,8.1-9.793,18.629.483,12.841-11.737,29.409-16.293,33.552s-16.915-1.235-19.471-2.787c-2.974,10.364-4.774,19.555-2.483,22.805C829.922,421.277,843.1,424.265,851.592,407.784Z" transform="translate(-778.107 -190.952)" fill="#c97a35"/>
    </g>
    <g id="Group_84" data-name="Group 84" transform="translate(8.163 34.574)">
      <path id="Path_147" data-name="Path 147" d="M825.565,282.3c-3.369-14.707-11.1-34.187-19.684-34.325-10.169-.162-15.313,23.965-10.861,44.853C800.091,293.043,817.4,290.692,825.565,282.3Z" transform="translate(-793.408 -247.975)" fill="#1e1240"/>
    </g>
  </g>
  <g id="Group_95" data-name="Group 95" transform="translate(393.738 145.818)">
    <g id="Group_87" data-name="Group 87" transform="translate(0 260.387)">
      <path id="Path_148" data-name="Path 148" d="M451.309,383.3s1.524,10.361.091,13.208a5.155,5.155,0,0,0,4.066,1.653,55.185,55.185,0,0,0,10.708-1.486c-1.183-4.07-1.555-11.394-1.765-13.708Z" transform="translate(-435.581 -382.963)" fill="#cfe1e6"/>
      <g id="Group_86" data-name="Group 86" transform="translate(0 13.541)">
        <path id="Path_149" data-name="Path 149" d="M457.839,401.338a124.837,124.837,0,0,1-19.038-.086,7.041,7.041,0,0,0-.149,1.433c0,2.56,25.958,2.462,30.325,0a4.068,4.068,0,0,0,1.76-3.646A81.862,81.862,0,0,1,457.839,401.338Z" transform="translate(-438.652 -392.603)" fill="#cfe1e6"/>
        <path id="Path_150" data-name="Path 150" d="M457.81,402.595a81.855,81.855,0,0,0,12.9-2.3,12.324,12.324,0,0,0-1.061-5.015,11.2,11.2,0,0,1-.43-1.254,55.185,55.185,0,0,1-10.708,1.486,5.155,5.155,0,0,1-4.066-1.653c-.032.065-.065.129-.1.186-.7,1.113-2.743,1.943-5.561,3.128-4.057,2.084-9.122,1.029-10.008,5.335A124.842,124.842,0,0,0,457.81,402.595Z" transform="translate(-438.623 -393.86)" fill="#1e1240"/>
      </g>
    </g>
    <g id="Group_89" data-name="Group 89" transform="translate(60.645 260.387)">
      <path id="Path_151" data-name="Path 151" d="M500.111,383.3s1.522,10.361.089,13.208a5.159,5.159,0,0,0,4.066,1.653,55.16,55.16,0,0,0,10.708-1.486c-1.182-4.07-1.555-11.394-1.765-13.708Z" transform="translate(-484.383 -382.963)" fill="#cfe1e6"/>
      <g id="Group_88" data-name="Group 88" transform="translate(0 13.541)">
        <path id="Path_152" data-name="Path 152" d="M506.64,401.338a124.819,124.819,0,0,1-19.036-.086,6.951,6.951,0,0,0-.149,1.433c0,2.56,25.958,2.462,30.324,0a4.063,4.063,0,0,0,1.76-3.646A81.833,81.833,0,0,1,506.64,401.338Z" transform="translate(-487.454 -392.603)" fill="#cfe1e6"/>
        <path id="Path_153" data-name="Path 153" d="M506.61,402.595a81.826,81.826,0,0,0,12.9-2.3,12.3,12.3,0,0,0-1.061-5.015,11.464,11.464,0,0,1-.43-1.254,55.16,55.16,0,0,1-10.708,1.486,5.159,5.159,0,0,1-4.066-1.653c-.032.065-.065.129-.1.186-.7,1.113-2.744,1.943-5.561,3.128-4.057,2.084-9.124,1.029-10.008,5.335A124.824,124.824,0,0,0,506.61,402.595Z" transform="translate(-487.425 -393.86)" fill="#1e1240"/>
      </g>
    </g>
    <path id="Path_154" data-name="Path 154" d="M489.021,183.135s-3.185-3.145-1.2-6.085c2.878-4.255,8.2-3.849,11.323-2.351.87.419,6.631,1.7,5.883,7.637a4.952,4.952,0,0,1-2.044,2.992l-1.656,6.616S490.817,188.533,489.021,183.135Z" transform="translate(-426.878 -173.37)" fill="#1e1240"/>
    <g id="Group_90" data-name="Group 90" transform="translate(8.594 92.294)">
      <path id="Path_155" data-name="Path 155" d="M540.658,281.171c-2.047-16.372-5.48-20.93-6.989-30.115-18.291,2.918-46.529-1.782-59.13-3.36-7.2,15.769-24.625,49.522-28.426,104.737-.788,11.446-1.148,67.077,1.976,67.639,9.1,1.634,26.567,3.128,27.831-9.137,3.972-38.519-2.715-54.765-1.383-66.211.99-8.506,23.67-50.549,23.67-50.549s-3.146,35.569,5.032,93.021c1.548,10.877,5.544,31.812,9.975,31.918,9.652.229,20.618.913,23.141-6.185,1.183-3.332-1.485-9.665-2.793-19.35-.481-3.559.993-9.278.383-13.029-2.116-13.007-4.677-26.1-5.37-31.856C527.111,336.53,542.6,296.665,540.658,281.171Z" transform="translate(-445.568 -247.696)" fill="#1e1240"/>
    </g>
    <g id="Group_91" data-name="Group 91" transform="translate(79.739 111.702)">
      <path id="Path_156" data-name="Path 156" d="M509.477,405.737a1.174,1.174,0,0,1-1.054-.65c-.331-.662-1.338-2.678,3.128-16.075,1.414-4.244-1.346-12.512-4.015-20.508a126.941,126.941,0,0,1-4-13.582c-2.412-11.661,1.75-25.992,5.422-38.635l.186-.642c3.486-12.005-.4-50.623-.44-51.012a1.2,1.2,0,0,1,2.381-.244c.164,1.607,3.972,39.475.358,51.924l-.186.641c-3.6,12.376-7.67,26.4-5.377,37.483a125.381,125.381,0,0,0,3.928,13.308c2.923,8.755,5.683,17.023,4.015,22.024-3.263,9.791-3.557,13.6-3.256,14.248a1.212,1.212,0,0,1-.558,1.6A1.23,1.23,0,0,1,509.477,405.737Z" transform="translate(-502.819 -263.314)" fill="#cfe1e6"/>
    </g>
    <g id="Group_92" data-name="Group 92" transform="translate(74.951 111.702)">
      <path id="Path_157" data-name="Path 157" d="M505.624,405.737a1.171,1.171,0,0,1-1.053-.65c-.332-.662-1.34-2.678,3.127-16.075,1.414-4.244-1.346-12.512-4.015-20.508a127.238,127.238,0,0,1-4-13.582c-2.412-11.661,1.75-25.992,5.423-38.635l.185-.642c3.486-12.005-.4-50.623-.44-51.012a1.2,1.2,0,0,1,2.381-.244c.164,1.607,3.973,39.475.358,51.924l-.186.641c-3.594,12.376-7.669,26.4-5.376,37.483a125.1,125.1,0,0,0,3.928,13.308c2.922,8.755,5.681,17.023,4.014,22.024-3.263,9.791-3.557,13.6-3.256,14.248a1.212,1.212,0,0,1-.558,1.6A1.23,1.23,0,0,1,505.624,405.737Z" transform="translate(-498.966 -263.314)" fill="#cfe1e6"/>
    </g>
    <path id="Path_158" data-name="Path 158" d="M477.445,276.075c6.876-.13,16.458,4.19,27.231,3.891s27.729,6.483,30.92,6.084,2.494-8.878,1.5-12.269-1.9-15.26-3.89-18.054-64.634-13.565-70.22,5.586c-1.112,3.813-3.891,12.867-1.3,15.76S473.5,276.151,477.445,276.075Z" transform="translate(-433.323 -154.798)" fill="#cfe1e6"/>
    <path id="Path_159" data-name="Path 159" d="M537.755,244.309c1.159-9.444,2.851-21.944,1.21-34.364-2.057-15.583-50.126-22.129-67.44-5.936-7.649,7.153-2.9,55.262-4.522,59.219-1.894,4.626-4.887,6.983-.7,18.553,5.187,14.326,67.145,2.053,67.826-3.192C535.527,267.817,536.931,251.021,537.755,244.309Z" transform="translate(-432.456 -168.283)" fill="#1e1240"/>
    <path id="Path_160" data-name="Path 160" d="M499.24,184.822l3.132,13.469c-.163,1.9-7.8,5.115-10.566,2.434-.809-.785.547-12.368.547-12.368Z" transform="translate(-425.816 -170.66)" fill="#ff6161"/>
    <path id="Path_161" data-name="Path 161" d="M491.629,194.65c.07-1.132.168-2.331.268-3.438l5.619-.687S496.065,193.3,491.629,194.65Z" transform="translate(-425.796 -169.276)" fill="#1e1240"/>
    <path id="Path_162" data-name="Path 162" d="M497.809,181.414l2.234,7.6a4.834,4.834,0,0,1-3.6,5.7,13.353,13.353,0,0,1-5.916.053c-2.144-.327-3.184-2.426-3.1-5.245a26.349,26.349,0,0,1,1.968-8.747C491.016,176.783,495.991,176.565,497.809,181.414Z" transform="translate(-426.817 -172.369)" fill="#ff6161"/>
    <path id="Path_163" data-name="Path 163" d="M492.542,184.988a13.013,13.013,0,0,1-4.3,0s-.118,1.638.857,2.237S491.887,186.927,492.542,184.988Z" transform="translate(-426.619 -170.62)" fill="#fff"/>
    <g id="Group_93" data-name="Group 93" transform="translate(60.916 18.873)">
      <path id="Path_164" data-name="Path 164" d="M495.514,190.794a7.862,7.862,0,0,1-5.725-1.031,2.826,2.826,0,0,0-2.117-.308,3.464,3.464,0,0,0,2.789,2.685,13.353,13.353,0,0,0,5.916-.053,4.809,4.809,0,0,0,3.529-3.473A8.458,8.458,0,0,1,495.514,190.794Z" transform="translate(-487.672 -188.613)" fill="#ad263d"/>
    </g>
    <path id="Path_165" data-name="Path 165" d="M491.121,177.857s1.8,3.159,1.8,4.056,1.995,1.629,3.324,1.729a15.73,15.73,0,0,0,2.726.133c.034-.1-.133-4.62-.665-5.419s-.665-1.729-2.992-1.729S492.351,176.627,491.121,177.857Z" transform="translate(-425.919 -172.648)" fill="#1e1240"/>
    <path id="Path_166" data-name="Path 166" d="M496.259,184.1a7.014,7.014,0,0,0,.478-1.387c.224-.907.766-2.2,1.947-1.209,1.717,1.444.263,6.207-2.068,6.023C494.887,187.387,495.717,185.21,496.259,184.1Z" transform="translate(-424.838 -171.552)" fill="#ff6161"/>
    <path id="Path_167" data-name="Path 167" d="M501.472,184.076a3.691,3.691,0,1,1-3.691-3.691A3.691,3.691,0,0,1,501.472,184.076Z" transform="translate(-425.199 -171.736)" fill="#fff"/>
    <path id="Path_168" data-name="Path 168" d="M500.056,183.839a1.994,1.994,0,1,1-1.934-2.48A2.259,2.259,0,0,1,500.056,183.839Z" transform="translate(-424.689 -171.5)" fill="#e8e8e8"/>
    <path id="Path_169" data-name="Path 169" d="M493,173.713s4.612,5.99,4.389,9.135h2.489A10.3,10.3,0,0,0,495.3,174a2.991,2.991,0,0,0-1.5-.562C493.378,173.4,492.976,173.439,493,173.713Z" transform="translate(-425.463 -173.425)" fill="#fff"/>
    <g id="Group_94" data-name="Group 94" transform="translate(73.078 14.638)">
      <path id="Path_170" data-name="Path 170" d="M508.136,303.8a10.029,10.029,0,0,1-3.35-.517,6.153,6.153,0,0,1-3.733-3.5c-2.674-6.238-.628-37.88.727-58.819.467-7.225.836-12.932.836-15.147,0-4.561.419-8.835.788-12.607.313-3.2.609-6.216.609-8.939,0-5.819-6.488-18.572-6.554-18.7l.711-.363c.271.531,6.641,13.053,6.641,19.064,0,2.761-.3,5.8-.613,9.017-.368,3.753-.784,8.007-.784,12.529,0,2.241-.37,7.958-.838,15.2-1.268,19.594-3.389,52.391-.79,58.454a5.387,5.387,0,0,0,3.266,3.066c5.6,1.991,15.235-3.012,15.333-3.062l.37.706C520.419,300.353,513.78,303.8,508.136,303.8Z" transform="translate(-497.459 -185.205)" fill="#cfe1e6"/>
    </g>
  </g>
  <path id="Path_171" data-name="Path 171" d="M444.816,211.027c-1.86-3.627-2.382-11.805,4.245-15.741s.363,3.236.363,3.236a6.773,6.773,0,0,1,3.184,2.1C454.161,203.105,447.523,216.309,444.816,211.027Z" transform="translate(-43.715 -22.588)" fill="#ff6161"/>
  <path id="Path_172" data-name="Path 172" d="M522.53,198.627s-13.744,16.928-14.389,27.575,17.9,27.042,17.9,27.042l-.656,6.279s-12.29-7.967-16.643-16.5-6.836-15-3.861-25.495,10.251-20.75,12.566-21.061S522.53,198.627,522.53,198.627Z" transform="translate(-29.157 -22.021)" fill="#5896a9"/>
  <path id="Path_173" data-name="Path 173" d="M519.456,200.916s19.693,8.695,32.132,26.808c12.138,17.673,20.656,37.17,5.457,41.9-9.821,3.055-38.626-38.626-42.991-49.538S519.456,200.916,519.456,200.916Z" transform="translate(-26.889 -20.936)" fill="#1e1240"/>
  <path id="Path_174" data-name="Path 174" d="M558.113,264.145c-8.24,2.105-40.142-6.32-52.436-27.625-.912-1.579-2.513-7.728-1.244-9.038,1.2-1.234,2.712-2.561,3.865-2.772,16.662-3.054,36.957,6.329,46.558,17.676S563.441,262.782,558.113,264.145Z" transform="translate(-29.065 -15.304)" fill="#1e1240"/>
  <path id="Path_175" data-name="Path 175" d="M510.578,233.243s-7.988-2.35-9.639-4.984c-.937-1.495-.4-7.507,1.029-8.794s6.153,2.27,7.608,1.8,3.092.021,4.525,4.394C515.434,229.731,517.184,233.185,510.578,233.243Z" transform="translate(-29.912 -16.503)" fill="#ff6161"/>
  <g id="Group_103" data-name="Group 103" transform="translate(64.995 198.684)">
    <path id="Path_176" data-name="Path 176" d="M222.04,241.823c16.946,1.458,15.89,35.159,23.87,43.914,8.6,9.441,47.193,12.755,45.553,23.141s-57.4,10.75-63.592-2.551S206.15,240.456,222.04,241.823Z" transform="translate(-164.158 -209.699)" fill="#1e1240"/>
    <path id="Path_177" data-name="Path 177" d="M257.232,412.605a20.222,20.222,0,0,0,2.986-9.811l10.9-.111a10.245,10.245,0,0,0,1.161,6.647c.813,1.265,3.16,2.191,6.4,3.514,5.128,2.567,11.461,5.88,11.7,7.621.393,2.9-29.66,3.115-34.682.352C253.057,419.373,254.852,416.193,257.232,412.605Z" transform="translate(-154.625 -170.656)" fill="#1e1240"/>
    <path id="Path_178" data-name="Path 178" d="M225.343,412.526a20.23,20.23,0,0,0,2.986-9.812l10.9-.109a10.241,10.241,0,0,0,1.161,6.646c.813,1.266,3.16,2.191,6.4,3.514,5.129,2.567,11.461,5.882,11.7,7.623.393,2.9-29.66,3.115-34.682.352C221.168,419.294,222.963,416.114,225.343,412.526Z" transform="translate(-162.363 -170.676)" fill="#1e1240"/>
    <path id="Path_179" data-name="Path 179" d="M220.719,307.126s50.2-.726,70.141,17.786c19.132,17.766,8.95,83.389,5.467,103.316-1.632,9.332-22.451,7.447-25.966,2.461-6.611-9.378-1.107-78.659-4.1-82.543-7.083-9.193-47.874-4.056-57.766-11.607S220.719,307.126,220.719,307.126Z" transform="translate(-166.379 -193.847)" fill="#1e1240"/>
    <path id="Path_180" data-name="Path 180" d="M183.979,310.441s72.571,4.585,92.383,23.233c18.587,17.492-11.782,72.476-20.772,90.742-5.367,10.9-23.506,9.006-29.518-.547-3.407-5.412,23.219-62.806,20.226-66.69-7.083-9.193-49.031,1.374-58.929-13.592C180.5,333.208,183.979,310.441,183.979,310.441Z" transform="translate(-171.924 -193.041)" fill="#1e1240"/>
    <path id="Path_181" data-name="Path 181" d="M186,348.724c-9.707-18.09-20.723-78.389-.657-97.588,24.276-23.227,59.384-17.67,58.7,11.932-.18,7.742-.451,24.184-1.448,33.148-.609,5.469,6.9,21.89,8.674,27.734.765,2.52-.552,4.782-5.115,8.746-1.174,1.02-6.789-1.448-8.2-.41-.928.685,1.125,6.318.111,7C220.951,350.772,192.665,361.142,186,348.724Z" transform="translate(-174.106 -210.923)" fill="#311e69"/>
    <path id="Path_182" data-name="Path 182" d="M211.752,238a25.484,25.484,0,0,0-20.656,12.66c-4.788,8.06,8.942,17.564,8.942,17.564s-5.96-1.279-6.522.724,17.811,36.655,26.654,35.76S211.752,238,211.752,238Z" transform="translate(-170.229 -210.62)" fill="#614cd4"/>
    <path id="Path_183" data-name="Path 183" d="M208.7,237.962s13.989.491,20.529,7.206-4.064,19.286-4.064,19.286,5.422-2.785,6.486-1S224,303.484,215.225,304.922,208.7,237.962,208.7,237.962Z" transform="translate(-165.773 -210.63)" fill="#614cd4"/>
    <g id="Group_97" data-name="Group 97" transform="translate(75.53 85.513)">
      <g id="Group_96" data-name="Group 96" transform="translate(12.859)">
        <path id="Path_184" data-name="Path 184" d="M271.523,297a2.052,2.052,0,0,0,1.945-1.4l2.738-8.111a2.052,2.052,0,0,0-1.945-2.709H247.287a2.051,2.051,0,0,0-1.9,2.827l3.307,8.111a2.053,2.053,0,1,0,3.8-1.55l-2.154-5.283H271.4l-1.823,5.4a2.054,2.054,0,0,0,1.945,2.71Z" transform="translate(-245.234 -284.781)" fill="#f9c07d"/>
      </g>
      <rect id="Rectangle_33" data-name="Rectangle 33" width="51.493" height="37.99" transform="translate(51.493 46.443) rotate(180)" fill="#1e1240"/>
      <rect id="Rectangle_34" data-name="Rectangle 34" width="51.493" height="37.99" transform="translate(57.395 46.443) rotate(180)" fill="#311e69"/>
      <path id="Path_185" data-name="Path 185" d="M291.129,291.583s-10.891,15.823-25.746,15.632-25.747-15.632-25.747-15.632Z" transform="translate(-233.734 -283.13)" fill="#1e1240"/>
      <path id="Path_186" data-name="Path 186" d="M262.915,301.209h-3.563a1.445,1.445,0,0,0-1.413,1.755l1.136,5.2a1.447,1.447,0,0,0,1.413,1.138h1.547a1.447,1.447,0,0,0,1.427-1.205l.88-5.2A1.447,1.447,0,0,0,262.915,301.209Z" transform="translate(-229.3 -280.794)" fill="#f9c07d"/>
    </g>
    <path id="Path_187" data-name="Path 187" d="M223.207,243.333c-5.424-4.155-11.2-10.282-23.148-.611-8.209,6.64,5.846,51.795,18.528,61.511C218.587,304.233,234.457,251.952,223.207,243.333Z" transform="translate(-168.402 -210.727)" fill="#fff"/>
    <g id="Group_98" data-name="Group 98" transform="translate(36.401 0)">
      <path id="Path_188" data-name="Path 188" d="M222.2,229.049s3.406-3.83,1.4-7.421-8.031-7.516-12.064-4.7-3.359,6.184-3.359,6.184a6.1,6.1,0,0,0-3.344,4.59c-.468,3.35,1.439,10.9,1.439,10.9S220.817,234.679,222.2,229.049Z" transform="translate(-203.069 -215.967)" fill="#311e69"/>
      <path id="Path_189" data-name="Path 189" d="M208.74,229.988l-4.623,10.8c-3.863,8.384,9.084,9.836,9.651,7.308.964-4.3,1.209-13.883,1.209-13.883Z" transform="translate(-203.399 -212.565)" fill="#ff6161"/>
      <path id="Path_190" data-name="Path 190" d="M211.485,226.519l-4.108,8.655a5.846,5.846,0,0,0,3.223,7.487,16.161,16.161,0,0,0,7.055,1.186c2.621.016,4.261-2.293,4.692-5.677a31.844,31.844,0,0,0-.692-10.817C220.475,222.278,214.576,221.075,211.485,226.519Z" transform="translate(-202.527 -214.272)" fill="#ff6161"/>
      <path id="Path_191" data-name="Path 191" d="M207.377,234.81l4.108-8.655a8.656,8.656,0,0,1,1.248-1.7c-.365,1.794-.88,5.7-.471,6.42,1.046,1.852,1.146.286,4.189.58a18.648,18.648,0,0,1,6.077,2.288,26.546,26.546,0,0,1-.18,4.065c-.431,3.384-2.072,5.693-4.692,5.677A16.152,16.152,0,0,1,210.6,242.3,5.845,5.845,0,0,1,207.377,234.81Z" transform="translate(-202.527 -213.908)" fill="#311e69"/>
      <path id="Path_192" data-name="Path 192" d="M214.286,231.673a15.733,15.733,0,0,0,5.135.813s-.169,1.977-1.449,2.508S214.7,234.112,214.286,231.673Z" transform="translate(-200.757 -212.156)" fill="#fff"/>
      <path id="Path_193" data-name="Path 193" d="M218.884,238.242c-2.815-.947-5.566,3.149-10.174-1.652-.859-.9-1.127-2.818-1.244-3.954l-.089.189a5.845,5.845,0,0,0,3.225,7.487,16.152,16.152,0,0,0,7.053,1.186,4.071,4.071,0,0,0,3.647-2.285A13.937,13.937,0,0,1,218.884,238.242Z" transform="translate(-202.527 -211.922)" fill="#1e1240"/>
      <path id="Path_194" data-name="Path 194" d="M211.193,229.588a8.375,8.375,0,0,1,.063-1.772c.142-1.12.092-2.816-1.673-2.209-2.566.884-3.291,6.319-.582,7.124C211.014,233.328,211.322,231.08,211.193,229.588Z" transform="translate(-202.456 -213.659)" fill="#ff6161"/>
    </g>
    <path id="Path_195" data-name="Path 195" d="M205.246,237.393s-.324,2.362.406,3.586c1.322,2.211,6.4,4.8,7.3,3.985l.923-.794a2.669,2.669,0,0,0,.912-1.724l.037-.331s3.221,2.468,3.98,4.383a9.588,9.588,0,0,1,.158,4.661l-6.048-3.335s-3.442,2.11-4.179,4.184l-7.118-7.605S200.812,240.377,205.246,237.393Z" transform="translate(-167.443 -210.768)" fill="#1e1240"/>
    <g id="Group_99" data-name="Group 99" transform="translate(3.851 47.133)">
      <path id="Path_196" data-name="Path 196" d="M192.7,254.7c14.9,5.352,15.076,54.614,24.645,56.527,5.937,1.188,24.416-19.452,35.9-16.9s6.013,15.306,0,23.141-22.594,24.417-44.46,20.087c-27.193-5.386-33.741-63.727-31.008-73.749S187.324,252.766,192.7,254.7Z" transform="translate(-177.205 -253.896)" fill="#311e69"/>
      <path id="Path_197" data-name="Path 197" d="M259.024,297.554c-6.38-6.165-3.729,3.984-7.009,5.549s-7.242,2.4-10.933,6.635-14.759,15.171-21.54,18.587-13.308-2.461-16.451-8.473-3.417-8.884-9.839-12.437-6.287-8.473-6.56-14.759,1.64-21.183-1.23-27.606c-1.6-3.591-2.951-6.817-3.829-8.966a15.509,15.509,0,0,0-3.856,7.189c-2.733,10.022,3.815,68.363,31.008,73.749,21.866,4.331,38.447-12.25,44.46-20.087C257.705,311.123,261.858,302.608,259.024,297.554Z" transform="translate(-177.205 -253.365)" fill="#1e1240"/>
    </g>
    <path id="Path_198" data-name="Path 198" d="M237.923,288.938s3.051-5.127,6.3-6.425,9.41-.584,11.616.649,3.914,2.985,2.9,3.44a5.356,5.356,0,0,1-2.638.129s1.622,1.168,1.622,2.207-1.686.649-1.686.649-4.09-.636-3.7.072,1.492.058,1.688.836-.973,1.56-3.83,1.817c-2.651.24-4.542,2.791-9.085,2.662S235.587,291.08,237.923,288.938Z" transform="translate(-158.917 -199.986)" fill="#ff6161"/>
    <g id="Group_102" data-name="Group 102" transform="translate(29.211 26.834)">
      <g id="Group_101" data-name="Group 101" clip-path="url(#clip-path)">
        <g id="Group_100" data-name="Group 100" transform="translate(12.719 9.424)">
          <path id="Path_199" data-name="Path 199" d="M211.077,250.433a3.632,3.632,0,0,1-2.116-1.1,6.5,6.5,0,0,1-.767-2.977l3.722-1.212,2.213,1.62S214.2,250.111,211.077,250.433Z" transform="translate(-207.764 -245.145)" fill="#fa9135"/>
          <path id="Path_200" data-name="Path 200" d="M212.558,248.276s5.664,8.561,7.127,39.147a132.171,132.171,0,0,0,3.508,24.349l-5.686,6.442-7.227-7.352a117.728,117.728,0,0,1-2.419-24.906c.232-15.54,3.25-33.464,2.525-36.51C210.384,249.446,210.81,246.936,212.558,248.276Z" transform="translate(-207.848 -244.481)" fill="#fa9135"/>
        </g>
      </g>
    </g>
  </g>
  <g id="Group_111" data-name="Group 111" transform="translate(255.719 146.758)">
    <path id="Path_202" data-name="Path 202" d="M371.815,180.12s-.179-4.856-4.487-5.806-10.98,3.393-10.927,7.722-.476,7.764-2.956,8.919c-2.994,1.393-4.238,5.142-3.313,8.143,1.107,3.59,5.688,3.827,5.688,3.827a7.387,7.387,0,0,1-1.24-2.956s2.56,4.065,10.426,4.276,14.57-2.956,15.625-8.183S379.047,182.865,371.815,180.12Z" transform="translate(-322.188 -174.182)" fill="#bceefa"/>
    <path id="Path_203" data-name="Path 203" d="M371.361,198.056c-3.979-.024-5.192,7.772-2.771,12.245,11.728,21.67,54.4,25.208,56.542,15.378C427.663,214.054,388.448,198.16,371.361,198.056Z" transform="translate(-317.937 -168.388)" fill="#ad263d"/>
    <path id="Path_204" data-name="Path 204" d="M384.813,224.742a65.129,65.129,0,0,0,13.919,3.7c.762-7.824-1.916-23.033-1.916-23.033Z" transform="translate(-313.699 -166.603)" fill="#311e69"/>
    <g id="Group_104" data-name="Group 104" transform="translate(49.409 29.668)">
      <path id="Path_205" data-name="Path 205" d="M401.644,205.794c-10.728-4.523-22.689-7.692-30.283-7.738-3.979-.024-5.192,7.772-2.771,12.245,5.157,9.529,15.127,18.748,26.174,21.67,1.044-2.149,3.332-7.683,4.349-9.889C401.5,216.911,401.686,209.132,401.644,205.794Z" transform="translate(-367.346 -198.056)" fill="#fff"/>
    </g>
    <path id="Path_206" data-name="Path 206" d="M379.5,207.035l-2.375,14.422a42.467,42.467,0,0,0,10.329,6.574C386.389,220.319,379.5,207.035,379.5,207.035Z" transform="translate(-315.565 -166.209)" fill="#311e69"/>
    <path id="Path_207" data-name="Path 207" d="M338.743,362.085c8.135-17.19-1.075-35.573-2.813-52.734-1.333-13.159-4.189-29.992,1.767-42.441,4.662-10.811,14.3-18.662,19.637-29.064a26.771,26.771,0,0,0,2.274-6.169,24.084,24.084,0,0,0,.39-8.917c-.555-3.863-3.3-8.791-3.615-12.706-.744-9.147,35.688-8.777,36.394-.117.656,8.039-1.828,15.829-1.858,23.869a33.715,33.715,0,0,0,.226,4.2c.7,5.79,3.805,10.688,5.962,16a141.667,141.667,0,0,1,6.136,20.479,359.568,359.568,0,0,1,7.015,41.634c3.236,27.755.9,49.1-.409,77-.906,19.363-2.567,46.783-14.094,47.828-15.507,1.4-14.253-78.393-12.67-85.677,2.929-13.474-7.422-60.814-11.052-60.972-1.675-.073-.183,37.194-6.684,75.541-5.531,32.624-17.34,70.826-24.389,70.474C328.29,439.685,330.349,379.822,338.743,362.085Z" transform="translate(-326.526 -167.111)" fill="#beeefb"/>
    <path id="Path_208" data-name="Path 208" d="M367.745,291.56c-.331-.7-.68-1.372-1.054-2-4.971-8.285-16.776,1.656-15.327,15.118s2.9,33.138-.621,46.394-8.771,56.847-5.212,59.612c6.174-13.311,12.99-38.5,16.811-61.039C366.073,327.641,367.169,306,367.745,291.56Z" transform="translate(-323.519 -146.916)" fill="#8eaeb7"/>
    <path id="Path_209" data-name="Path 209" d="M397.27,378.333c1.3-27.9,3.645-49.245.409-77-1.449-12.424-3.293-24.835-5.975-37.06-3.059,11.206-9.711,37.817-7.455,49.748,2.9,15.326,8.077,9.113,5.178,31.067s-7.871,55.713-4.349,63.169a101.226,101.226,0,0,0,6.129,10.59C395.639,409.172,396.639,391.807,397.27,378.333Z" transform="translate(-313.947 -152.319)" fill="#8eaeb7"/>
    <path id="Path_210" data-name="Path 210" d="M367.61,314.832c.338-4.03.61-7.906.836-11.587-.1-.015-.175-.022-.175-.022l-30.015,1.847a109.466,109.466,0,0,1,1.9,10.972C346.962,316.612,360.655,317.342,367.61,314.832Z" transform="translate(-324.997 -142.867)" fill="#311e69"/>
    <path id="Path_211" data-name="Path 211" d="M393.271,315.766c4.011-1.419,6.833-2.575,8.822-3.494-.175-4.74-.491-9.6-.987-14.65l-20.572,9.6-8.854-4.66-.1.764c.675,3.954,1.254,7.912,1.671,11.641A27.326,27.326,0,0,0,393.271,315.766Z" transform="translate(-316.91 -144.226)" fill="#311e69"/>
    <path id="Path_212" data-name="Path 212" d="M338.756,268.518c4.662-10.811,14.3-18.662,19.637-29.064a26.771,26.771,0,0,0,2.274-6.169,24.084,24.084,0,0,0,.39-8.917c-.555-3.863-5.3-9.464-5.617-13.38-.744-9.149,11.235-15.229,21.666-14.176,7.9.8,16.024,6.073,16.73,14.733.656,8.039-1.828,15.829-1.858,23.869a33.715,33.715,0,0,0,.226,4.2c.7,5.79,3.805,10.688,5.962,16A141.668,141.668,0,0,1,404.3,276.1a359.568,359.568,0,0,1,7.015,41.634c.465,3.988.8,7.833,1.057,11.6-3.308,3.735-8.649,7.5-16.1,5.86-6.252-1.379-10.258-2.631-13.348-3.248-3.621-.724-5.983-.58-9.216,1.251-.949.538-1.975,1.106-3.057,1.669-5.747,2.985-13.121,5.812-19.506,3.123-3.5-1.473-20.234-2.7-23.562-4.193C333.776,325,332.8,280.967,338.756,268.518Z" transform="translate(-327.586 -168.719)" fill="#fff"/>
    <path id="Path_213" data-name="Path 213" d="M403.819,329.327c-.253-3.763-.593-7.608-1.057-11.6a359.236,359.236,0,0,0-7.015-41.633,141.637,141.637,0,0,0-6.136-20.48c-2.157-5.315-5.259-10.214-5.962-16a33.715,33.715,0,0,1-.226-4.2c.03-8.04,2.514-15.83,1.858-23.869-.706-8.66-8.825-13.935-16.73-14.733-.7-.071-1.4-.107-2.108-.114a30.8,30.8,0,0,1,6.735,8.628c3.936,7.456,9.32,22.574,6.213,25.889s-19.883,2.693-15.947,7.664,16.569,12.427,17.6,26.095c.931,12.28-2.647,51.284-.234,68.552,1.963.506,4.218,1.07,6.9,1.664C395.17,336.831,400.511,333.063,403.819,329.327Z" transform="translate(-319.029 -168.718)" fill="#bcbbbb"/>
    <g id="Group_106" data-name="Group 106" transform="translate(37.902 7.853)">
      <path id="Path_214" data-name="Path 214" d="M360.474,189.42l-.28,11.081c-.039,1.824,4.393,6.57,7.3,4.3.851-.666-.224-3.187-.994-5.091l-2.048-9.547Z" transform="translate(-357.575 -178.337)" fill="#ff6161"/>
      <path id="Path_215" data-name="Path 215" d="M365.521,195.43c-2.369-.761-4.711-4.358-4.711-4.358l3.786.05Z" transform="translate(-357.426 -177.936)" fill="#311e69"/>
      <path id="Path_216" data-name="Path 216" d="M360.655,184.484l-.721,4.246a6.366,6.366,0,0,0,4.894,7.379c3.1.592,6.116-1.157,6.626-5.071.454-3.479-1.982-6.519-2.857-8.107C366.6,179.31,361.842,179.663,360.655,184.484Z" transform="translate(-357.661 -180.501)" fill="#ff6161"/>
      <path id="Path_217" data-name="Path 217" d="M360.633,187.795a5.3,5.3,0,0,1-.564-.98c-.3-.654-.9-1.555-1.65-.631-1.09,1.343.7,4.737,2.442,4.259C362.151,190.086,361.2,188.558,360.633,187.795Z" transform="translate(-358.087 -179.218)" fill="#ff6161"/>
      <path id="Path_218" data-name="Path 218" d="M365.357,188.613a10.654,10.654,0,0,0,3.57-1.178,2.3,2.3,0,0,1-.288,1.709C368.005,189.909,366.508,190.145,365.357,188.613Z" transform="translate(-356.322 -178.819)" fill="#fff"/>
      <g id="Group_105" data-name="Group 105" transform="translate(2.722 10.345)">
        <path id="Path_219" data-name="Path 219" d="M365.117,192.709a8.355,8.355,0,0,0,4.491-1.184,8.629,8.629,0,0,0,1.755-2.7c-.006.065-.006.127-.015.191-.51,3.914-3.529,5.663-6.626,5.071a6.112,6.112,0,0,1-4.445-3.658A7.9,7.9,0,0,0,365.117,192.709Z" transform="translate(-360.277 -188.826)" fill="#ad263d"/>
      </g>
    </g>
    <path id="Path_220" data-name="Path 220" d="M388.271,245.876c-1.609-3.829-3.636-7.47-4.838-11.41l-16.086,16.085S380.114,249.322,388.271,245.876Z" transform="translate(-317.937 -159.552)" fill="#311e69"/>
    <g id="Group_107" data-name="Group 107" transform="translate(62.223 265.374)">
      <path id="Path_221" data-name="Path 221" d="M382.855,394.552c1.941,1.9,9.654,12.915,12.525,13.326a11.218,11.218,0,0,0,3.682-.067c-1.773-1.516-3.644-4.992-5.327-8.763a28,28,0,0,1-2.063-8.25,3.369,3.369,0,0,0-4.04-2.991l-5.325,1.126a4.225,4.225,0,0,0-3.417,3.74,1.437,1.437,0,0,1-.081.43A5.96,5.96,0,0,1,382.855,394.552Z" transform="translate(-377.379 -387.733)" fill="#ff6161"/>
      <path id="Path_222" data-name="Path 222" d="M406.606,411.092a18.311,18.311,0,0,0-6.254-3.677,3.782,3.782,0,0,1-1.01-.652,11.217,11.217,0,0,1-3.682.067c-2.871-.411-10.584-11.426-12.525-13.326a5.96,5.96,0,0,0-4.046-1.449c-.691,1.738-1.751,4.871-1.337,6.888.6,2.914,1.978,11.219,1.579,13.786l3.6.154.393-9.226a18.489,18.489,0,0,1,4.052,3.2,10.084,10.084,0,0,1,1.387,2.723,5.857,5.857,0,0,0,5.258,3.77l11.328.482A1.626,1.626,0,0,0,406.606,411.092Z" transform="translate(-377.658 -386.684)" fill="#beeefb"/>
    </g>
    <g id="Group_108" data-name="Group 108" transform="translate(7.041 262.799)">
      <path id="Path_223" data-name="Path 223" d="M338.33,395.4c2.008,1.828,10.115,12.558,13,12.865a11.239,11.239,0,0,0,3.677-.2c-1.827-1.45-3.821-4.856-5.641-8.566-.9-1.83-1.639-9.884-2.093-13.258-.268-2-2.457,1.757-4.41,2.244l-5.283,1.317a4.224,4.224,0,0,0-3.279,3.861,1.462,1.462,0,0,1-.065.432A5.964,5.964,0,0,1,338.33,395.4Z" transform="translate(-333.013 -385.661)" fill="#ff6161"/>
      <path id="Path_224" data-name="Path 224" d="M362.66,410.483a18.319,18.319,0,0,0-6.382-3.45,3.78,3.78,0,0,1-1.034-.615,11.239,11.239,0,0,1-3.677.2c-2.883-.307-10.99-11.037-13-12.865a5.964,5.964,0,0,0-4.095-1.3c-.629,1.762-1.574,4.932-1.087,6.933.7,2.89,2.381,11.139,2.075,13.72l3.606.024.06-9.234a18.5,18.5,0,0,1,4.165,3.057,10.071,10.071,0,0,1,1.484,2.67,5.857,5.857,0,0,0,5.391,3.579l11.338.073A1.626,1.626,0,0,0,362.66,410.483Z" transform="translate(-333.252 -384.013)" fill="#beeefb"/>
    </g>
    <path id="Path_225" data-name="Path 225" d="M402.485,226.232c2.331-12.9,11.914-51.342,22.762-47.578,3.9,1.355,3.339,7.936,2.3,16.822-1.852,15.8-8.258,37.366-15.43,38.858C400.911,236.668,401.739,230.365,402.485,226.232Z" transform="translate(-309.504 -173.159)" fill="#ad263d"/>
    <g id="Group_110" data-name="Group 110" transform="translate(12.308 35.734)">
      <path id="Path_226" data-name="Path 226" d="M358.746,240.481s6.98,34.528,7.129,41.073l5.8-1.786s-8.29-38.861-9.5-39.287A8.624,8.624,0,0,0,358.746,240.481Z" transform="translate(-332.333 -193.873)" fill="#cfe1e6"/>
      <path id="Path_227" data-name="Path 227" d="M355.887,203.012c7.158-1.066,11.037,9.452,6.024,25.431s-6.966,18.692-3.329,20.961c3.432,2.14,35.6-20.519,39.7-14.045,5.858,9.252-42.064,44.715-55.433,27.443C336.9,255.125,341.08,205.218,355.887,203.012Z" transform="translate(-336.823 -202.937)" fill="#ff6161"/>
      <path id="Path_228" data-name="Path 228" d="M388.123,239.574c-2.8,3.417-15.689,8.854-21.591,10.873s-7.456,5.592-14.135,2.951c-3.972-1.571-8.809-5.767-12.089-8.92.246,5.531,1.086,9.876,2.524,11.733,12.8,16.534,57.254-15.255,55.889-26.117C395.124,231.566,390.7,236.424,388.123,239.574Z" transform="translate(-336.807 -196.347)" fill="#ad263d"/>
      <path id="Path_229" data-name="Path 229" d="M358.863,240.551s-10.194,34.038-10.343,40.583l-6.487-.988s13.4-39.6,14.608-40.023A2.434,2.434,0,0,1,358.863,240.551Z" transform="translate(-336.388 -193.942)" fill="#a9c8d1"/>
      <path id="Path_230" data-name="Path 230" d="M376.834,272.147s9.817,27.618,4.759,31.187-42.227,7.339-43.773-.5,2.62-31.435,6.686-31.138S374.157,273.09,376.834,272.147Z" transform="translate(-337.491 -186.251)" fill="#cfe1e6"/>
      <path id="Path_231" data-name="Path 231" d="M344.506,271.7c1.053.077,3.555.208,6.724.342-1.028,5.256-4.194,21.752-4.444,26.731-.3,5.95,8.033,5.454,16.165,5.851,6.612.322,16.371-2.241,19.787-3.209a3.278,3.278,0,0,1-1.145,1.919c-5.058,3.57-42.227,7.339-43.773-.5S340.44,271.4,344.506,271.7Z" transform="translate(-337.491 -186.251)" fill="#a9c8d1"/>
      <path id="Path_232" data-name="Path 232" d="M343.929,290.7s7.193,3.7,14.432,4.118c6.2.357,22.057-8.226,22.057-8.226l.178.887s-5.776,9.265-22.71,9.085C345.127,296.433,343.929,290.7,343.929,290.7Z" transform="translate(-335.928 -182.636)" fill="#a9c8d1"/>
      <path id="Path_233" data-name="Path 233" d="M382.978,231.394s.548-4.52,2.1-5.31a21.282,21.282,0,0,1,2.78-1.11,1.326,1.326,0,0,1,1.47.507.838.838,0,0,0,.931.334c1-.252,3.911-1.623,4.078-.328.072.56-.582,1.962-.625,3.252a13.146,13.146,0,0,1-.684,4.1c-.534,1.005-6.7,3.424-8.158,2.467S382.978,231.394,382.978,231.394Z" transform="translate(-326.452 -197.605)" fill="#ff6161"/>
      <path id="Path_234" data-name="Path 234" d="M358.43,233.552l-1.471-4.543-12.582-3.185-2.866-.2c-.555,3.6-.93,7.24-1.128,10.723a16.275,16.275,0,0,1,7.334.815c3.091,1.08,7.012.8,9.487.44C357.5,236.485,357.91,235.158,358.43,233.552Z" transform="translate(-336.789 -197.432)" fill="#311e69"/>
      <g id="Group_109" data-name="Group 109" transform="translate(0.469 0)">
        <path id="Path_235" data-name="Path 235" d="M358.207,241.719c.879-2.951,2.351-7.13,4.28-13.277,5.014-15.98,1.135-26.5-6.023-25.431-9.078,1.353-17.39,19.521-18.6,36.008.687.241,4.994-1.121,6.835-.621C349.134,239.6,353.132,242.817,358.207,241.719Z" transform="translate(-337.868 -202.937)" fill="#fff"/>
      </g>
      <path id="Path_236" data-name="Path 236" d="M356.023,241.719c.879-2.951,2.351-7.13,4.28-13.277,5.014-15.98,1.135-26.5-6.023-25.431a8.5,8.5,0,0,0-2.208.671c-.235,3.232-.726,10.077-.957,13.9-.311,5.126-2.019,8.543-3.262,13.825a56.672,56.672,0,0,0-.984,8.632C349.74,241.266,352.641,242.45,356.023,241.719Z" transform="translate(-335.215 -202.937)" fill="#bcbbbb"/>
    </g>
  </g>
  <g id="Group_113" data-name="Group 113" transform="translate(457.442 6.801)">
    <g id="Group_112" data-name="Group 112" transform="translate(0 9.734)">
      <path id="Path_237" data-name="Path 237" d="M489.983,69.389c-.039.413-.067.826-.067,1.243,0,15.786,27.077,18.64,60.477,18.64s60.476-2.854,60.476-18.64c0-.416-.029-.83-.066-1.243Z" transform="translate(-489.916 -69.389)" fill="#fff"/>
    </g>
    <rect id="Rectangle_35" data-name="Rectangle 35" width="120.887" height="9.734" fill="#311e69"/>
  </g>
</svg>
