<svg xmlns="http://www.w3.org/2000/svg" xmlns:xlink="http://www.w3.org/1999/xlink" width="2500" height="2500" viewBox="0 0 2500 2500">
  <defs>
    <linearGradient id="linear-gradient" x1="-65.905" y1="9.408" x2="-64.656" y2="10.511" gradientUnits="objectBoundingBox">
      <stop offset="0" stop-color="#ff80b3"/>
      <stop offset="1" stop-color="#ff80b3"/>
    </linearGradient>
    <clipPath id="clip-path">
      <path id="Rectangle_15" data-name="Rectangle 15" d="M78.1,0h563.5a78.1,78.1,0,0,1,78.1,78.1V1303.388a78.1,78.1,0,0,1-78.1,78.1H78.1a78.1,78.1,0,0,1-78.1-78.1V78.1A78.1,78.1,0,0,1,78.1,0Z" transform="translate(947.617 823.408)" fill="none"/>
    </clipPath>
    <clipPath id="clip-Artboard_8">
      <rect width="2500" height="2500"/>
    </clipPath>
  </defs>
  <g id="Artboard_8" data-name="Artboard 8" clip-path="url(#clip-Artboard_8)">
    <rect width="2500" height="2500" fill="#fff"/>
    <g id="Layer_4" data-name="Layer 4">
      <rect id="Rectangle_1" data-name="Rectangle 1" width="2500" height="2500" fill="#fff"/>
    </g>
    <g id="Layer_5" data-name="Layer 5">
      <ellipse id="Ellipse_1" data-name="Ellipse 1" cx="1009.642" cy="69.427" rx="1009.642" ry="69.427" transform="translate(278.042 2181.066)" fill="#f0fcfe"/>
      <g id="Group_10" data-name="Group 10">
        <path id="Path_1" data-name="Path 1" d="M1640.687,1291.2c59.3-60.5,77.522-51.416,110.986-94.781s92.77-103.869,127.393-72.946,10.978,60.078.081,91.042-22.141,82.684-47.25,103.828-53.145,26.267-67.315,61.968-12.768,76.517-69.328,101.5-90.067,22.824-99.541,16.278S1581.382,1351.708,1640.687,1291.2Z" fill="#ffd245"/>
        <g id="Group_9" data-name="Group 9">
          <g id="Group_1" data-name="Group 1">
            <path id="Path_2" data-name="Path 2" d="M1561.844,1537.377a4.071,4.071,0,0,1-4.173-6.553c1.357-1.612,136.071-161.681,162-211.074,26.362-50.224,128.383-164.963,132.714-169.825a4.072,4.072,0,0,1,6.082,5.415c-1.056,1.185-105.687,118.854-131.586,168.2-26.335,50.171-157.414,205.928-162.98,212.533A4.015,4.015,0,0,1,1561.844,1537.377Z" fill="#eb8537"/>
          </g>
          <g id="Group_2" data-name="Group 2">
            <path id="Path_3" data-name="Path 3" d="M1801.892,1220.277a4.071,4.071,0,0,1-2.273-7.817l62.633-19.656a4.071,4.071,0,1,1,2.442,7.768l-62.634,19.656C1802,1220.247,1801.949,1220.261,1801.892,1220.277Z" fill="#eb8537"/>
          </g>
          <g id="Group_3" data-name="Group 3">
            <path id="Path_4" data-name="Path 4" d="M1851.094,1240.325c-.054.015-.111.03-.166.041L1771,1258.356a4.07,4.07,0,0,1-4.865-3.077,3.987,3.987,0,0,1,3.077-4.866l79.924-17.99a4.071,4.071,0,0,1,1.955,7.9Z" fill="#eb8537"/>
          </g>
          <g id="Group_4" data-name="Group 4">
            <path id="Path_5" data-name="Path 5" d="M1781.23,1245.624a4.141,4.141,0,0,1-1.332.132,4.076,4.076,0,0,1-3.788-4.339l4.618-67.876a4.073,4.073,0,1,1,8.127.55l-4.618,67.876A4.078,4.078,0,0,1,1781.23,1245.624Z" fill="#eb8537"/>
          </g>
          <g id="Group_5" data-name="Group 5">
            <path id="Path_6" data-name="Path 6" d="M1731.837,1309.354a4.068,4.068,0,0,1-5.12-4.207l4.618-67.876a4.073,4.073,0,0,1,8.127.55l-4.618,67.876A4.076,4.076,0,0,1,1731.837,1309.354Z" fill="#eb8537"/>
          </g>
          <g id="Group_6" data-name="Group 6">
            <path id="Path_7" data-name="Path 7" d="M1651,1419.809a4.143,4.143,0,0,1-1.325.193,4.077,4.077,0,0,1-3.984-4.16l1.488-68.017a4.073,4.073,0,1,1,8.144.176l-1.488,68.017A4.075,4.075,0,0,1,1651,1419.809Z" fill="#ada1fc"/>
          </g>
          <g id="Group_7" data-name="Group 7">
            <path id="Path_8" data-name="Path 8" d="M1831.3,1301.889c-.115.03-.235.058-.357.079l-103.952,18.238a4.072,4.072,0,1,1-1.406-8.021l103.951-18.239a4.072,4.072,0,0,1,1.764,7.943Z" fill="#eb8537"/>
          </g>
          <g id="Group_8" data-name="Group 8">
            <path id="Path_9" data-name="Path 9" d="M1684.476,1384.364a4.072,4.072,0,0,1-2.114-7.864l69.493-18.679a4.071,4.071,0,0,1,2.113,7.864Z" fill="#eb8537"/>
          </g>
        </g>
      </g>
      <g id="Group_18" data-name="Group 18">
        <path id="Path_10" data-name="Path 10" d="M1644.262,1790.184c-55.882-16.6-99.741-89.135-63.926-147.454s94.587-81.575,127.208-118.174,84.787-116.472,127.384-137.839,190.136-91.873,225.523-34.515-68.611,114.583-83.169,165.472-7.95,107.5-62.678,130.287-148.484,62.418-168.5,101.645S1673.986,1799.013,1644.262,1790.184Z" fill="#ffd245"/>
        <g id="Group_17" data-name="Group 17">
          <g id="Group_11" data-name="Group 11">
            <path id="Path_11" data-name="Path 11" d="M1594.448,1782.563c-.191-.124-.385-.235-.578-.352,31.835-40.567,89.419-114.372,132.927-172.539,63.485-84.876,286.4-241.828,295.862-248.468a4.072,4.072,0,0,1,4.677,6.668c-2.305,1.617-231.306,162.835-294.017,246.675-43.5,58.161-101.048,131.92-132.931,172.549A48.09,48.09,0,0,0,1594.448,1782.563Z" fill="#eb8537"/>
          </g>
          <g id="Group_12" data-name="Group 12">
            <path id="Path_12" data-name="Path 12" d="M1886.2,1472.721a3.253,3.253,0,0,0,.35-.057l111.842-23.055a4.069,4.069,0,0,0,3.166-4.808,4.029,4.029,0,0,0-4.809-3.166l-104,21.439,38.9-85.526a4.071,4.071,0,1,0-7.411-3.37l-42.215,92.814a4.07,4.07,0,0,0,4.177,5.729Z" fill="#eb8537"/>
          </g>
          <g id="Group_13" data-name="Group 13">
            <path id="Path_13" data-name="Path 13" d="M1820.617,1526.568a4.066,4.066,0,0,0,3.426-2.865l36.889-121.99a4.071,4.071,0,1,0-7.793-2.357l-36.889,121.99a4.07,4.07,0,0,0,2.718,5.075A4.018,4.018,0,0,0,1820.617,1526.568Z" fill="#eb8537"/>
          </g>
          <g id="Group_14" data-name="Group 14">
            <path id="Path_14" data-name="Path 14" d="M1928.485,1556.161a4.071,4.071,0,0,0-.917-8.091l-159.619,17.546-.027,0a4.071,4.071,0,0,0,.915,8.091l159.62-17.546Z" fill="#eb8537"/>
          </g>
          <g id="Group_15" data-name="Group 15">
            <path id="Path_15" data-name="Path 15" d="M1720.408,1629.632l144.991-16.92a4.071,4.071,0,1,0-.944-8.087l-144.991,16.919a4.071,4.071,0,1,0,.944,8.088Z" fill="#eb8537"/>
          </g>
          <g id="Group_16" data-name="Group 16">
            <path id="Path_16" data-name="Path 16" d="M1749.8,1581.3c0-.12.005-.243.017-.366l9.65-105.1a4.072,4.072,0,0,1,8.109.747l-9.649,105.1a4.072,4.072,0,0,1-8.127-.38Z" fill="#eb8537"/>
          </g>
        </g>
      </g>
      <g id="Group_19" data-name="Group 19">
        <path id="Path_17" data-name="Path 17" d="M965.1,1436.418c43.666-12.174,78.715-68,51.633-113.811s-72.475-64.662-97.359-93.545-64.4-91.667-97.238-108.837-146.629-73.92-174.893-29.787,51.846,89.987,62.5,129.743,4.775,83.69,47.029,102.119,114.629,50.473,129.679,81.235S941.876,1442.893,965.1,1436.418Z" fill="#ffd245"/>
        <path id="Path_18" data-name="Path 18" d="M1023.563,1453.626c-2.927-3.835-72.232-94.673-119.054-159.516-14.429-19.983-39.832-45.15-68.562-70.768L809.256,1129.4a4.665,4.665,0,1,0-8.975,2.549l22.733,80.015c-12.358-10.726-25.1-21.408-37.667-31.7l-31.1-71.556a4.665,4.665,0,1,0-8.558,3.717l23.947,55.092c-47.4-38.089-88.747-68.262-92.242-70.806a4.679,4.679,0,0,0-6.513,1.033,4.669,4.669,0,0,0,1.028,6.519c.86.625,42.852,31.242,91.239,70.114l-67.182-15.034a4.56,4.56,0,0,0-3.495.56,4.733,4.733,0,0,0-2.1,2.968,4.665,4.665,0,0,0,3.534,5.573l85.527,19.137c27.562,22.57,55.913,46.957,79.023,69.393l-110.259-14a4.666,4.666,0,0,0-1.206,9.254l122.3,15.532c11.272,11.514,20.8,22.307,27.659,31.808.434.6.874,1.209,1.312,1.814l-101.726-13.61a4.667,4.667,0,0,0-1.238,9.251l110.531,14.786c47.444,65.142,109.75,146.724,110.38,147.547a4.631,4.631,0,0,0,3.089,1.794,4.715,4.715,0,0,0,1.12.016,4.673,4.673,0,0,0,4.123-4.022A4.685,4.685,0,0,0,1023.563,1453.626Z" fill="#eb8537"/>
        <path id="Path_19" data-name="Path 19" d="M958.718,1380.694c-1.91-43.438-3.668-77.58-3.8-80.168a4.692,4.692,0,0,1,1.188-3.453,4.675,4.675,0,0,1,5.675-.99,4.752,4.752,0,0,1,.915.646,4.632,4.632,0,0,1,1.535,3.225c.032.594,1.8,34.621,3.748,78.734A24.4,24.4,0,0,0,958.718,1380.694Z" fill="#ada1fc"/>
        <path id="Path_20" data-name="Path 20" d="M969.935,1394.471c-42.72-8.089-76.358-14.2-78.908-14.66a4.692,4.692,0,0,1-3.089-1.948,4.665,4.665,0,0,1,4.665-7.249c.586.106,34.114,6.176,77.5,14.385A24.425,24.425,0,0,0,969.935,1394.471Z" fill="#eb8537"/>
      </g>
      <g id="Group_23" data-name="Group 23">
        <path id="Path_21" data-name="Path 21" d="M886.7,1069.348s-16.788-47.578-30.641-58.076-34.488-20.33-48.47-1.881,3.06,35.236,15.847,44.927S886.7,1069.348,886.7,1069.348Z" fill="#95e2f7"/>
        <path id="Path_22" data-name="Path 22" d="M913.937,1103.612s-37.255-22.378-52.824-22.716-35.7,2.817-36.089,20.781,20.806,20.822,35.177,21.135S913.937,1103.612,913.937,1103.612Z" fill="#429bcf"/>
        <path id="Path_23" data-name="Path 23" d="M909.816,1094.319s26.326-34.579,28.369-50.017,1.111-35.792-16.7-38.149-22.976,18.4-24.862,32.649S909.816,1094.319,909.816,1094.319Z" fill="#ff7974"/>
        <g id="Group_22" data-name="Group 22">
          <g id="Group_20" data-name="Group 20">
            <path id="Path_24" data-name="Path 24" d="M941.1,1157.507a2.762,2.762,0,0,0,2.208-3.949c-40.168-83.06-79.522-112.482-113.258-133.54a2.76,2.76,0,1,0-2.924,4.683c33.082,20.649,71.686,49.525,111.211,131.263A2.76,2.76,0,0,0,941.1,1157.507Z" fill="#211d40"/>
          </g>
          <g id="Group_21" data-name="Group 21">
            <path id="Path_25" data-name="Path 25" d="M846.135,1102.06a2.763,2.763,0,0,0,2.921,2.193c35.25-2.76,60.527,1.545,60.778,1.59a2.762,2.762,0,0,0,.948-5.441c-1.053-.183-26.219-4.468-62.16-1.653a2.765,2.765,0,0,0-2.487,3.311Z" fill="#211d40"/>
          </g>
        </g>
      </g>
      <g id="Group_29" data-name="Group 29">
        <path id="Path_26" data-name="Path 26" d="M1738.6,1023.569s8.213-54.167,20.849-68.188,32.646-28.712,51.318-11.883,3.916,38.208-7.748,51.151S1738.6,1023.569,1738.6,1023.569Z" fill="#95e2f7"/>
        <path id="Path_27" data-name="Path 27" d="M1710.319,1068.725s43.021-28.189,61.418-29.31,42.346,1.68,43.64,22.906-23.641,25.586-40.621,26.621S1710.319,1068.725,1710.319,1068.725Z" fill="#ff7974"/>
        <path id="Path_28" data-name="Path 28" d="M1709.388,1066.236s-36.892-31.44-42.78-47.78-9.7-38.742,9.153-45.536,29.4,14.6,34.839,29.684S1709.388,1066.236,1709.388,1066.236Z" fill="#429bcf"/>
        <path id="Path_29" data-name="Path 29" d="M1670.863,1134.52s38.438-23.527,54.579-24.014,37.041,2.613,37.6,21.237-21.394,21.771-36.293,22.219S1670.863,1134.52,1670.863,1134.52Z" fill="#95e2f7"/>
        <path id="Path_30" data-name="Path 30" d="M1674.847,1131.111s-28.042-24.635-32.387-37.285-7.021-29.944,7.575-34.957,22.472,11.583,26.482,23.26S1674.847,1131.111,1674.847,1131.111Z" fill="url(#linear-gradient)"/>
        <g id="Group_28" data-name="Group 28">
          <g id="Group_24" data-name="Group 24">
            <path id="Path_31" data-name="Path 31" d="M1706.541,1073.526a2.821,2.821,0,0,1-.944-5.121c26.766-17.466,83.331-11.415,85.726-11.148a2.824,2.824,0,0,1-.624,5.613c-.565-.063-56.948-6.095-82.016,10.262A2.816,2.816,0,0,1,1706.541,1073.526Z" fill="#211d40"/>
          </g>
          <g id="Group_25" data-name="Group 25">
            <path id="Path_32" data-name="Path 32" d="M1657.437,1168.931a2.964,2.964,0,0,1-.462-.143,2.821,2.821,0,0,1-1.557-3.676c32.237-79.608,60.6-116.2,81.31-142.921,3.595-4.639,6.991-9.021,10.067-13.2,20.985-28.526,34.2-44.84,48.22-54.838a2.824,2.824,0,0,1,3.279,4.6c-13.395,9.551-26.322,25.539-46.951,53.585-3.118,4.239-6.535,8.646-10.153,13.316-20.507,26.458-48.595,62.695-80.54,141.579A2.822,2.822,0,0,1,1657.437,1168.931Z" fill="#211d40"/>
          </g>
          <g id="Group_26" data-name="Group 26">
            <path id="Path_33" data-name="Path 33" d="M1705.4,1073.279a2.822,2.822,0,0,1-2.21-2.505c-3.505-39.047-22.654-72.613-22.846-72.949a2.822,2.822,0,1,1,4.889-2.819c.813,1.41,19.964,34.989,23.579,75.262a2.822,2.822,0,0,1-2.559,3.064A2.786,2.786,0,0,1,1705.4,1073.279Z" fill="#211d40"/>
          </g>
          <g id="Group_27" data-name="Group 27">
            <path id="Path_34" data-name="Path 34" d="M1669.259,1141.906a2.823,2.823,0,0,1-.907-5.145c19.121-12.071,73.123-10.531,75.412-10.46a2.823,2.823,0,1,1-.176,5.643c-.544-.016-54.557-1.561-72.223,9.59A2.815,2.815,0,0,1,1669.259,1141.906Z" fill="#211d40"/>
          </g>
        </g>
      </g>
      <g id="Group_52" data-name="Group 52">
        <g id="Group_30" data-name="Group 30">
          <path id="Rectangle_2" data-name="Rectangle 2" d="M101.182,0h563.87A101.182,101.182,0,0,1,766.233,101.182V1328.687a101.181,101.181,0,0,1-101.181,101.181H101.181A101.181,101.181,0,0,1,0,1328.687V101.182A101.182,101.182,0,0,1,101.182,0Z" transform="translate(924.354 799.218)" fill="#64615d"/>
          <path id="Path_79" data-name="Path 79" d="M78.1,0h563.5a78.1,78.1,0,0,1,78.1,78.1V1303.388a78.1,78.1,0,0,1-78.1,78.1H78.1a78.1,78.1,0,0,1-78.1-78.1V78.1A78.1,78.1,0,0,1,78.1,0Z" transform="translate(947.617 823.408)" fill="#95e2f7"/>
        </g>
        <g id="Group_34" data-name="Group 34">
          <g id="Group_31" data-name="Group 31">
            <path id="Path_35" data-name="Path 35" d="M1582.638,880.478h-35.571a3.049,3.049,0,1,1,0-6.1h35.571a3.049,3.049,0,1,1,0,6.1Z" fill="#fff"/>
          </g>
          <g id="Group_32" data-name="Group 32">
            <path id="Path_36" data-name="Path 36" d="M1582.638,896.74h-35.571a3.049,3.049,0,1,1,0-6.1h35.571a3.049,3.049,0,1,1,0,6.1Z" fill="#fff"/>
          </g>
          <g id="Group_33" data-name="Group 33">
            <path id="Path_37" data-name="Path 37" d="M1582.638,911.984h-35.571a3.048,3.048,0,1,1,0-6.1h35.571a3.048,3.048,0,1,1,0,6.1Z" fill="#fff"/>
          </g>
        </g>
        <g id="Group_51" data-name="Group 51">
          <g id="Group_50" data-name="Group 50" clip-path="url(#clip-path)">
            <g id="Group_48" data-name="Group 48">
              <g id="Group_35" data-name="Group 35">
                <rect id="Rectangle_4" data-name="Rectangle 4" width="1118.277" height="52.61" transform="translate(819.668 2091.686) rotate(-19.208)" fill="#fff"/>
              </g>
              <g id="Group_36" data-name="Group 36">
                <rect id="Rectangle_5" data-name="Rectangle 5" width="1118.277" height="21.044" transform="translate(778.732 1942.574) rotate(-19.207)" fill="#fff"/>
              </g>
              <g id="Group_37" data-name="Group 37">
                <rect id="Rectangle_6" data-name="Rectangle 6" width="1118.275" height="21.044" transform="translate(698.842 1713.254) rotate(-19.207)" fill="#fff"/>
              </g>
              <g id="Group_38" data-name="Group 38">
                <rect id="Rectangle_7" data-name="Rectangle 7" width="1118.275" height="21.044" transform="translate(877.051 2319.406) rotate(-19.207)" fill="#fff"/>
              </g>
              <g id="Group_39" data-name="Group 39">
                <path id="Path_38" data-name="Path 38" d="M251.522,1320.475l-17.308-49.682L1290.24,902.9a26.3,26.3,0,0,1,21.332,1.792l489.151,269.057-25.354,46.1L1296.484,956.432Z" fill="#fff"/>
              </g>
              <g id="Group_40" data-name="Group 40">
                <rect id="Rectangle_8" data-name="Rectangle 8" width="21.044" height="631.038" transform="translate(1625.125 1401.703) rotate(-19.207)" fill="#fff"/>
              </g>
              <g id="Group_41" data-name="Group 41">
                <path id="Path_39" data-name="Path 39" d="M1750.867,2230.78,1391.427,1199.024l98.793-165.23,45.155,27-86.18,144.135,351.354,1008.544Z" fill="#fff"/>
              </g>
              <g id="Group_42" data-name="Group 42">
                <rect id="Rectangle_9" data-name="Rectangle 9" width="21.044" height="631.038" transform="translate(1364.058 1492.654) rotate(-19.207)" fill="#fff"/>
              </g>
              <g id="Group_43" data-name="Group 43">
                <rect id="Rectangle_10" data-name="Rectangle 10" width="21.044" height="631.039" transform="translate(1233.525 1538.129) rotate(-19.207)" fill="#fff"/>
              </g>
              <g id="Group_44" data-name="Group 44">
                <rect id="Rectangle_11" data-name="Rectangle 11" width="21.044" height="887.029" transform="translate(1018.774 1341.863) rotate(-19.207)" fill="#fff"/>
              </g>
              <g id="Group_45" data-name="Group 45">
                <rect id="Rectangle_12" data-name="Rectangle 12" width="21.044" height="631.04" transform="translate(972.458 1629.078) rotate(-19.207)" fill="#fff"/>
              </g>
              <g id="Group_46" data-name="Group 46">
                <rect id="Rectangle_13" data-name="Rectangle 13" width="21.044" height="631.04" transform="translate(841.925 1674.553) rotate(-19.207)" fill="#fff"/>
              </g>
              <g id="Group_47" data-name="Group 47">
                <rect id="Rectangle_14" data-name="Rectangle 14" width="776.685" height="21.044" transform="matrix(0.944, -0.329, 0.329, 0.944, 683.397, 1447.555)" fill="#fff"/>
              </g>
            </g>
            <g id="Group_49" data-name="Group 49">
              <path id="Path_40" data-name="Path 40" d="M935.416,2083.441a2.631,2.631,0,0,1-.877-5.112l62-21.92a2.631,2.631,0,0,1,1.754,4.961l-62,21.92A2.643,2.643,0,0,1,935.416,2083.441Zm86.8-30.687a2.631,2.631,0,0,1-.877-5.112l62-21.92a2.63,2.63,0,1,1,1.754,4.96l-62,21.92A2.615,2.615,0,0,1,1022.218,2052.754Zm86.8-30.687a2.631,2.631,0,0,1-.877-5.112l62-21.92a2.63,2.63,0,1,1,1.754,4.96l-62,21.92A2.618,2.618,0,0,1,1109.02,2022.067Zm86.8-30.688a2.631,2.631,0,0,1-.878-5.112l47.968-16.958-3.056-9.24a2.63,2.63,0,0,1,4.994-1.652l3.865,11.687a2.63,2.63,0,0,1-1.62,3.306l-50.4,17.818A2.619,2.619,0,0,1,1195.821,1991.379Zm38.273-54.478a2.628,2.628,0,0,1-2.5-1.806l-20.649-62.437a2.63,2.63,0,0,1,4.994-1.651l20.649,62.436a2.636,2.636,0,0,1-2.5,3.458Zm-28.909-87.411a2.632,2.632,0,0,1-2.5-1.806l-12.367-37.4a2.63,2.63,0,0,1,1.631-3.31l24.9-8.679a2.631,2.631,0,0,1,1.732,4.968l-22.459,7.828,11.554,34.939a2.628,2.628,0,0,1-1.671,3.323A2.582,2.582,0,0,1,1205.185,1849.49Zm37.375-54.734a2.631,2.631,0,0,1-.865-5.116l62.1-21.641a2.63,2.63,0,0,1,1.731,4.968l-62.1,21.641A2.6,2.6,0,0,1,1242.56,1794.756Zm86.939-30.3a2.631,2.631,0,0,1-.866-5.116l62.1-21.642a2.63,2.63,0,1,1,1.731,4.968l-62.1,21.642A2.6,2.6,0,0,1,1329.5,1764.458Zm86.938-30.3a2.632,2.632,0,0,1-.866-5.116l62.1-21.642a2.63,2.63,0,1,1,1.731,4.968l-62.1,21.642A2.62,2.62,0,0,1,1416.437,1734.16Zm86.939-30.3a2.631,2.631,0,0,1-.865-5.116l62.1-21.641a2.631,2.631,0,0,1,1.732,4.968l-62.1,21.641A2.624,2.624,0,0,1,1503.376,1703.861Zm81.233-33.107a2.632,2.632,0,0,1-2.5-1.8l-20.712-62.414a2.63,2.63,0,1,1,4.993-1.657l20.713,62.414a2.635,2.635,0,0,1-2.5,3.461Zm-29-87.382a2.633,2.633,0,0,1-2.5-1.8l-20.712-62.415a2.63,2.63,0,0,1,4.993-1.657l20.713,62.415a2.631,2.631,0,0,1-1.669,3.325A2.6,2.6,0,0,1,1555.612,1583.372Zm-29-87.381a2.632,2.632,0,0,1-2.5-1.8l-20.712-62.415a2.631,2.631,0,0,1,4.994-1.657l20.712,62.415a2.634,2.634,0,0,1-2.5,3.46Z" fill="#da6965"/>
            </g>
          </g>
        </g>
        <path id="Path_41" data-name="Path 41" d="M1503.273,1202.857c-38.592,0-69.877,33.056-69.877,73.834s69.877,140.454,69.877,140.454,69.876-99.677,69.876-140.454S1541.864,1202.857,1503.273,1202.857Zm0,116.461a45.031,45.031,0,1,1,45.031-45.032A45.031,45.031,0,0,1,1503.273,1319.318Z" fill="#ff7974"/>
      </g>
      <g id="Group_53" data-name="Group 53">
        <path id="Path_42" data-name="Path 42" d="M641.889,2165.1s-6.947,25.963-13.846,33.09-14.788,15.368-14.788,15.368,15.507,15.151,36.425,9.577,15.869-16.221,15.869-16.221l1.084-40.535Z" fill="#ff6161"/>
        <path id="Path_43" data-name="Path 43" d="M666.219,2205.921s7.933,7.812,8.714,18.449-.066,16.274-7.364,17.558-21.695-2.726-27.625-.949-16.356,2.741-31.914,2.587-38.856-5.744-37.9-12.73,48.926-23.327,48.926-23.327,15.423,8.178,27.811,6.114S666.219,2205.921,666.219,2205.921Z" fill="#211d40"/>
        <path id="Path_44" data-name="Path 44" d="M717.029,2167.082s-.753,25.963-7.652,33.09-14.789,15.369-14.789,15.369,15.508,15.15,36.426,9.576,15.869-16.221,15.869-16.221l-5.11-40.535Z" fill="#ff6161"/>
        <path id="Path_45" data-name="Path 45" d="M747.552,2207.9s7.934,7.812,8.715,18.449-.066,16.274-7.364,17.558-21.7-2.726-27.625-.948-16.356,2.74-31.914,2.586-38.856-5.744-37.9-12.73,48.926-23.327,48.926-23.327,15.423,8.179,27.811,6.114S747.552,2207.9,747.552,2207.9Z" fill="#211d40"/>
        <path id="Path_46" data-name="Path 46" d="M645.731,1843.975s-41.7,176.489-15.289,338.4l41.679,1.852,29.5-268.374-3.841-77.037Z" fill="#17142c"/>
        <path id="Path_47" data-name="Path 47" d="M751.045,1839.4s6.785,45.672,5.761,65.161-9.345,283.977-9.345,283.977l-37.1-.556S691.3,2092.053,676.589,2005.5a1131.97,1131.97,0,0,1-15.168-163Z" fill="#211d40"/>
        <path id="Path_48" data-name="Path 48" d="M696.423,1631.776c27.268,3.473-17.491,105.691-35,128.525s-94.037-10.314-94.037-10.314l5.936-25.719,53.2-1.9s15.912-34.721,24.343-58.069S677.615,1629.38,696.423,1631.776Z" fill="#dd7e36"/>
        <path id="Path_49" data-name="Path 49" d="M701.619,1624.417c-40.2,11.7-50.013,22.326-57.9,53.626s-8.3,139.684-3.2,165.156,101.349,18.833,110.49,13.883,1.176-43.742,3.292-84.017,14.005-63.4,5.914-99.659S733.677,1615.088,701.619,1624.417Z" fill="#eb8537"/>
        <path id="Path_50" data-name="Path 50" d="M547.968,1740.743h0a8.428,8.428,0,0,1-10.924-4.682l-37.866-94.672a8.428,8.428,0,0,1,4.681-10.924h0a8.428,8.428,0,0,1,10.923,4.682l37.868,94.673A8.429,8.429,0,0,1,547.968,1740.743Z" fill="#429bcf"/>
        <path id="Path_51" data-name="Path 51" d="M524.057,1703.868c5.069-3.831,22.216,1.11,38.512,12.208s16.449,21.033,16.449,21.033l19.505,6.183-8.117,25.6-25.006-7.927s-13.369.5-28.008-8.879-6.318-32.155-6.318-32.155S518.991,1707.7,524.057,1703.868Z" fill="#ff6161"/>
        <path id="Path_52" data-name="Path 52" d="M742.846,1649.991c27.268,3.473-6.162,125.986-23.673,148.821s-135.332-29.918-135.332-29.918l12.8-27.553,95.925,19.42s1.642-50.15,10.073-73.5S724.038,1647.595,742.846,1649.991Z" fill="#dd7e36"/>
        <path id="Path_53" data-name="Path 53" d="M681.58,1596.241l5.5,27.793-10.494,9.359s-5.954,14.461,23.487,12.56,31.939-19.744,31.939-19.744l-8.637-5.7-4.619-30.881Z" fill="#ff6161"/>
        <path id="Path_54" data-name="Path 54" d="M732.265,1546.759c6.279,36.53-18.449,64.129-41.014,70.821s-42.613-27.248-47.9-60.058c-2.31-14.34-4.39-29.6.208-39.365,5.922-12.582,17-20.8,31.734-23.171C701.473,1490.769,726.635,1514.006,732.265,1546.759Z" fill="#ff6161"/>
        <path id="Path_55" data-name="Path 55" d="M725.593,1542.83s5.807-18.671,14.873-16.008,5.849,18.215,1.748,25.415-12.873,7.9-12.873,7.9Z" fill="#ff6161"/>
        <path id="Path_56" data-name="Path 56" d="M712.417,1523.7l10.209,30.06,2.967-10.928s4.271-14.653,12.578-16.526,8.063,12.306,8.063,12.306,8.007-20.05,3.361-38.743-9.334-30.408-22.739-34.827-32.641,1.487-42.608-.817-35.343-19.719-48.216-11.817-18.025,29.1-10.843,41.91,19.027,24.149,19.027,24.149,13.507,2.954,23.243,1.173,22.27-5.72,32-5.76S712.417,1523.7,712.417,1523.7Z" fill="#95e2f7"/>
      </g>
      <g id="Group_57" data-name="Group 57">
        <g id="Group_56" data-name="Group 56">
          <g id="Group_55" data-name="Group 55">
            <g id="Group_54" data-name="Group 54">
              <path id="Path_57" data-name="Path 57" d="M1131.221,787.926a6.653,6.653,0,0,1-4.013-1.5c-10.176-8.3-34.167-28.648-37.139-38.2a21.132,21.132,0,0,1,3.119-19.01c3.992-5.282,10.144-8.089,17.326-7.906l.143,0c12.737.4,19.05,11.139,20.775,17.444a6.69,6.69,0,0,1-12.893,3.58c-.122-.409-2.307-7.46-8.318-7.649l-.048,0c-2.79-.071-4.972.827-6.311,2.6a7.84,7.84,0,0,0-1.016,6.964c1.61,4.312,18.275,19.942,32.822,31.813a6.69,6.69,0,0,1-4.447,11.87Z" fill="#ff7974"/>
            </g>
            <path id="Path_58" data-name="Path 58" d="M1118.718,707.55h75.623l-4.595,93.094h-65.163Z" fill="#ff7974"/>
          </g>
        </g>
        <path id="Path_59" data-name="Path 59" d="M1156.263,598.132s-34.412,9.92-31.623,32.483,27.185,20.282,33.072,25.318,16.214,15.824-.5,42.284c27.854-15.319,23.681-44.61,7.024-54.066s-33.773-6.9-30.736-22.823S1156.263,598.132,1156.263,598.132Z" fill="#95e2f7"/>
      </g>
      <g id="Group_59" data-name="Group 59">
        <path id="Path_60" data-name="Path 60" d="M1001.093,437.285c0-50.951-39.108-87.343-87.346-87.343a86.95,86.95,0,0,0-40.147,9.779A87.338,87.338,0,0,0,715.908,388.18a70.574,70.574,0,0,0-40.539-12.762c-39.194,0-70.967,25.475-70.967,76.426s27.463,69.005,61.027,69.005c0,0,265.721,2.451,273.78,0C970.556,519.414,1001.093,488.237,1001.093,437.285Z" fill="#429bcf"/>
        <g id="Group_58" data-name="Group 58">
          <path id="Path_61" data-name="Path 61" d="M593.916,1791.058h-.055c-13.721-.284-27.379-1.027-40.6-2.209a2.632,2.632,0,0,1-2.386-2.854,2.661,2.661,0,0,1,2.855-2.386c13.1,1.171,26.637,1.908,40.237,2.188a2.631,2.631,0,0,1-.053,5.261Zm-66.552-5.168a2.646,2.646,0,0,1-.364-.025,472.225,472.225,0,0,1-64.69-13.486,2.63,2.63,0,1,1,1.446-5.058,467.007,467.007,0,0,0,63.966,13.332,2.631,2.631,0,0,1-.358,5.237Zm-89.369-21.45a2.629,2.629,0,0,1-.888-.155,337.76,337.76,0,0,1-59.893-28.1,2.63,2.63,0,1,1,2.71-4.508,332.588,332.588,0,0,0,58.959,27.656,2.631,2.631,0,0,1-.888,5.108ZM356.686,1722a2.624,2.624,0,0,1-1.557-.512,248.869,248.869,0,0,1-47.792-45.834,2.631,2.631,0,0,1,4.126-3.265,243.574,243.574,0,0,0,46.785,44.862,2.631,2.631,0,0,1-1.562,4.749Zm-62.369-66.854a2.628,2.628,0,0,1-2.24-1.248,236.009,236.009,0,0,1-26.449-60.7,2.63,2.63,0,0,1,5.067-1.415,230.788,230.788,0,0,0,25.857,59.346,2.63,2.63,0,0,1-2.235,4.014ZM262.4,1569.5a2.631,2.631,0,0,1-2.589-2.183,302.121,302.121,0,0,1-4.235-51.2c0-4.877.109-9.865.322-14.828a2.63,2.63,0,0,1,5.256.226c-.21,4.887-.316,9.8-.317,14.6A296.872,296.872,0,0,0,265,1566.426a2.63,2.63,0,0,1-2.144,3.039A2.569,2.569,0,0,1,262.4,1569.5Zm-1.81-91.689a2.53,2.53,0,0,1-.3-.017,2.63,2.63,0,0,1-2.318-2.909c.4-3.515.852-7.1,1.348-10.664a471.879,471.879,0,0,1,10.865-54.241,2.63,2.63,0,1,1,5.089,1.333,466.588,466.588,0,0,0-10.743,53.635c-.49,3.515-.938,7.058-1.331,10.528A2.63,2.63,0,0,1,260.592,1477.814Zm19.5-89.759a2.632,2.632,0,0,1-2.5-3.437,525.118,525.118,0,0,1,24.238-61.4,2.631,2.631,0,0,1,4.766,2.23,519.656,519.656,0,0,0-24,60.776A2.633,2.633,0,0,1,280.1,1388.055Zm35.781-84.622a2.63,2.63,0,0,1-2.328-3.851c9.793-18.718,20.713-37.323,33.381-56.881a2.63,2.63,0,1,1,4.416,2.859c-12.58,19.42-23.418,37.889-33.136,56.463A2.632,2.632,0,0,1,315.877,1303.433Zm47.894-78.538a2.631,2.631,0,0,1-2.163-4.124c11.529-16.706,24.289-34.084,39.007-53.131a2.63,2.63,0,1,1,4.163,3.216c-14.66,18.972-27.365,36.277-38.84,52.9A2.626,2.626,0,0,1,363.771,1224.9Zm55.171-73.728a2.631,2.631,0,0,1-2.057-4.268c13.933-17.522,28.142-34.849,41.5-51.1a2.631,2.631,0,0,1,4.064,3.342c-13.346,16.229-27.54,33.537-41.448,51.028A2.626,2.626,0,0,1,418.942,1151.167Zm58.189-71.384a2.63,2.63,0,0,1-2.032-4.3c13.214-16.091,27.365-33.418,41.318-51.1a2.631,2.631,0,0,1,4.131,3.259c-13.981,17.719-28.152,35.071-41.384,51.182A2.62,2.62,0,0,1,477.131,1079.783Zm57.489-71.9a2.632,2.632,0,0,1-2.088-4.229c14.478-18.93,27.064-36.306,38.479-53.119a2.63,2.63,0,0,1,4.352,2.956c-11.47,16.9-24.113,34.35-38.652,53.359A2.627,2.627,0,0,1,534.62,1007.88Zm53.009-75.205a2.631,2.631,0,0,1-2.217-4.043c2.692-4.234,5.361-8.522,7.932-12.743a332.166,332.166,0,0,0,22.8-44.782A2.63,2.63,0,1,1,621,873.132a337.206,337.206,0,0,1-23.166,45.493c-2.588,4.251-5.275,8.568-7.986,12.831A2.629,2.629,0,0,1,587.629,932.675Zm40.052-82.606a2.632,2.632,0,0,1-2.506-3.434,267,267,0,0,0,8.089-31.5,148.956,148.956,0,0,1-29.7,4.194,2.63,2.63,0,1,1-.2-5.257,144.284,144.284,0,0,0,30.913-4.618A209.614,209.614,0,0,0,637,782.877a2.631,2.631,0,0,1,5.259.19,213.484,213.484,0,0,1-2.4,24.82,168.351,168.351,0,0,0,25.6-10.107,2.631,2.631,0,1,1,2.317,4.724,172.5,172.5,0,0,1-28.88,11.146,269.68,269.68,0,0,1-8.7,34.592A2.629,2.629,0,0,1,627.681,850.069Zm-50.426-32.328a2.617,2.617,0,0,1-.43-.035,124.3,124.3,0,0,1-60.3-27.664,2.63,2.63,0,0,1,3.37-4.039,119.109,119.109,0,0,0,57.782,26.511,2.631,2.631,0,0,1-.421,5.227Zm112.081-28.188a2.631,2.631,0,0,1-1.479-4.808c2.732-1.852,5.466-3.811,8.13-5.822a211.922,211.922,0,0,0,39.059-38.381,2.63,2.63,0,0,1,4.141,3.245,217.134,217.134,0,0,1-40.03,39.333c-2.733,2.065-5.542,4.077-8.346,5.98A2.623,2.623,0,0,1,689.336,789.553Zm-189.565-17.6a2.628,2.628,0,0,1-2.037-.964,161.2,161.2,0,0,1-10.672-14.7c-9.777-15.174-16.059-30.272-18.669-44.876a2.63,2.63,0,0,1,5.178-.926c2.488,13.915,8.515,28.366,17.913,42.952a155.754,155.754,0,0,0,10.322,14.217,2.631,2.631,0,0,1-2.035,4.3Zm138.872-12.609a2.63,2.63,0,0,1-2.609-2.327c-2.638-22.676-10.114-42.769-22.223-59.721a2.63,2.63,0,1,1,4.28-3.058c12.632,17.684,20.427,38.6,23.168,62.172a2.63,2.63,0,0,1-2.308,2.917A2.937,2.937,0,0,1,638.643,759.348ZM752.075,723.2a2.633,2.633,0,0,1-2.243-4,272.026,272.026,0,0,0,26.581-59.261,2.63,2.63,0,1,1,5.012,1.6,277.327,277.327,0,0,1-27.1,60.407A2.632,2.632,0,0,1,752.075,723.2ZM470.737,687.429a2.669,2.669,0,0,1-.476-.044,2.63,2.63,0,0,1-2.114-3.06C472.626,659.8,490.142,643.4,515,640.458a2.63,2.63,0,1,1,.619,5.223c-22.445,2.658-38.258,17.458-42.3,39.589A2.632,2.632,0,0,1,470.737,687.429Zm127.753-8.623a2.622,2.622,0,0,1-1.77-.685,137.1,137.1,0,0,0-15.637-12.236c-13.658-9.2-27.205-15.418-40.263-18.481a2.63,2.63,0,1,1,1.2-5.122c13.681,3.209,27.812,9.682,42,19.24a142.208,142.208,0,0,1,16.24,12.709,2.631,2.631,0,0,1-1.772,4.575Zm187.461-40.8a2.634,2.634,0,0,1-2.561-3.244,480.61,480.61,0,0,0,10.527-64.523,2.63,2.63,0,1,1,5.235.522,485.966,485.966,0,0,1-10.645,65.225A2.634,2.634,0,0,1,785.951,638.006Zm12.689-91.1c-.055,0-.109,0-.166-.005a2.63,2.63,0,0,1-2.462-2.788c1.191-19.235,1.78-40.076,1.857-65.589A2.63,2.63,0,0,1,800.5,475.9h.007a2.63,2.63,0,0,1,2.623,2.638c-.077,25.618-.67,46.557-1.867,65.9A2.631,2.631,0,0,1,798.64,546.9Z" fill="#121729"/>
        </g>
        <circle id="Ellipse_2" data-name="Ellipse 2" cx="19.38" cy="19.38" r="19.38" transform="matrix(0.232, -0.973, 0.973, 0.232, 778.225, 491.832)" fill="#121729"/>
      </g>
      <g id="Group_64" data-name="Group 64">
        <g id="Group_60" data-name="Group 60">
          <path id="Path_81" data-name="Path 81" d="M0,0H130.843V228.545H0Z" transform="translate(1280.997 2017.016)" fill="#ff7974"/>
          <rect id="Rectangle_17" data-name="Rectangle 17" width="165.671" height="228.545" transform="translate(1411.417 2017.016)" fill="#da6965"/>
          <rect id="Rectangle_18" data-name="Rectangle 18" width="15.639" height="86.439" transform="translate(1486.433 2017.016)" fill="#f8cfcf"/>
          <rect id="Rectangle_19" data-name="Rectangle 19" width="15.639" height="86.439" transform="translate(1338.599 2017.016)" fill="#f4f4f4"/>
        </g>
        <g id="Group_61" data-name="Group 61">
          <rect id="Rectangle_20" data-name="Rectangle 20" width="107.136" height="187.135" transform="translate(1330.532 1833.269)" fill="#ff7974"/>
          <rect id="Rectangle_21" data-name="Rectangle 21" width="135.653" height="187.135" transform="translate(1437.322 1833.269)" fill="#da6965"/>
          <rect id="Rectangle_22" data-name="Rectangle 22" width="15.639" height="86.439" transform="translate(1498.749 1833.269)" fill="#f8cfcf"/>
          <rect id="Rectangle_23" data-name="Rectangle 23" width="15.639" height="86.439" transform="translate(1374.95 1833.269)" fill="#f4f4f4"/>
        </g>
        <g id="Group_62" data-name="Group 62">
          <rect id="Rectangle_24" data-name="Rectangle 24" width="142.417" height="248.761" transform="translate(1639.295 1714.382)" fill="#ff7974"/>
          <rect id="Rectangle_25" data-name="Rectangle 25" width="180.325" height="248.761" transform="translate(1781.251 1714.382)" fill="#da6965"/>
          <rect id="Rectangle_26" data-name="Rectangle 26" width="17.023" height="94.085" transform="translate(1862.902 1714.382)" fill="#f8cfcf"/>
          <path id="Path_80" data-name="Path 80" d="M0,0H17.023V94.085H0Z" transform="translate(1701.992 1714.382)" fill="#f4f4f4"/>
        </g>
        <g id="Group_63" data-name="Group 63">
          <rect id="Rectangle_28" data-name="Rectangle 28" width="163.215" height="285.09" transform="translate(1604.644 1960.471)" fill="#ff7974"/>
          <rect id="Rectangle_29" data-name="Rectangle 29" width="327.928" height="285.09" transform="translate(1767.332 1960.471)" fill="#da6965"/>
          <rect id="Rectangle_30" data-name="Rectangle 30" width="19.509" height="107.825" transform="translate(1920.267 1960.471)" fill="#f8cfcf"/>
          <rect id="Rectangle_31" data-name="Rectangle 31" width="19.509" height="107.825" transform="translate(1676.497 1960.471)" fill="#f4f4f4"/>
        </g>
      </g>
      <g id="Group_66" data-name="Group 66">
        <path id="Path_62" data-name="Path 62" d="M1470.062,434.8c-10.941-12.1-23.207-26.836-53.374-24.886s-42.64,16.227-50.054,30.438-14,51.781-14,51.781-8.292,4.027-12.585,11.239-2.6,20.8-2.6,20.8-8.018,2.787-14.433,16.953,1.337,29.133,1.337,29.133c-6.95,17.107-4.514,33.272,10.611,45.687,26.548,21.791,60.218-5.41,65.734,26.389s92.432-32.818,94-64.848c0,0,7.662-13.7,5.524-27.835s-11.116-20.419-11.116-20.419,6.935-12.784,3.365-23.559-8.821-16.4-8.821-16.4C1481.62,468.264,1478.273,443.879,1470.062,434.8Z" fill="#ffd245"/>
        <path id="Path_63" data-name="Path 63" d="M1330.318,597.611c-1.5-21.906,23.322-40.424,41.586-40.424h84.133c20.81,0,49.305,18.518,47.806,40.424l-19.159,119.753H1349.476Z" fill="#eb8537"/>
        <path id="Path_64" data-name="Path 64" d="M1336.331,577.479s-52.3,92.454-32.586,119.151,55.846,26.874,55.846,26.874l23-39.51-26.281-36.707,15.9-33.736Z" fill="#e68134"/>
        <path id="Path_65" data-name="Path 65" d="M1495.667,576.121c5.182,5.293,57.743,90.653,34.747,117.35s-55.845,33.191-55.845,33.191l-23-42.668,26.281-36.707-16.207-35.339S1490.484,570.829,1495.667,576.121Z" fill="#e68134"/>
        <path id="Path_66" data-name="Path 66" d="M1428.911,710.691l67.673,6.673s81.206-50.055,98.124-10.01-77.823,86.761-101.508,93.436-128.577,13.348-162.412,0-108.275-50.055-87.973-90.1,104.891,6.673,104.891,6.673Z" fill="#429bcf"/>
        <g id="Group_65" data-name="Group 65">
          <path id="Rectangle_32" data-name="Rectangle 32" d="M11.061,0H167.456a11.06,11.06,0,0,1,11.06,11.06V93.269a11.061,11.061,0,0,1-11.061,11.061H11.06A11.06,11.06,0,0,1,0,93.27V11.061A11.061,11.061,0,0,1,11.061,0Z" transform="translate(1327.778 629.71)" fill="#f0fcfe"/>
          <path id="Rectangle_33" data-name="Rectangle 33" d="M4.028,0H181.044a4.029,4.029,0,0,1,4.029,4.029v5.29a4.029,4.029,0,0,1-4.029,4.029H4.028A4.028,4.028,0,0,1,0,9.32V4.028A4.028,4.028,0,0,1,4.028,0Z" transform="translate(1324.499 731.927)" fill="#b0babc"/>
          <path id="Path_67" data-name="Path 67" d="M1427.015,684.772a9.991,9.991,0,1,1-9.979-9.515A9.754,9.754,0,0,1,1427.015,684.772Z" fill="#fff"/>
        </g>
        <path id="Path_68" data-name="Path 68" d="M1514.144,713.7l-126.158,57.448,4.648,30.461s56.072-.848,95.893-12.879,74.049-27.889,91.9-46.629S1543.811,700.192,1514.144,713.7Z" fill="#429bcf"/>
        <path id="Path_69" data-name="Path 69" d="M1452.218,780.125s26.469-8.884,50.592-4.184,31.641,14.122,29.038,24.38-25.7,18.864-42.818,16.932-48.852-11.107-48.852-11.107Z" fill="#211d40"/>
        <path id="Path_70" data-name="Path 70" d="M1384.131,777.752s-26.532-8.682-50.622-3.8-31.539,14.362-28.864,24.6,25.83,18.668,42.937,16.606,45.052-13.547,45.052-13.547Z" fill="#211d40"/>
        <path id="Path_71" data-name="Path 71" d="M1387.466,778.56s-34.772-.873-28.647,16.316,36.546,5.449,36.546,5.449Z" fill="#ff6161"/>
        <path id="Path_72" data-name="Path 72" d="M1448.887,780.958s35.943-1.234,29.941,16-38.3,7.567-38.3,7.567Z" fill="#ff6161"/>
        <path id="Path_73" data-name="Path 73" d="M1325.847,723.62c30.591,12.342,126.561,56.489,126.561,56.489l-3.888,26.755s-53.065.474-101.334-11.315-75.192-27.3-93.175-45.9S1295.256,711.278,1325.847,723.62Z" fill="#429bcf"/>
        <path id="Path_74" data-name="Path 74" d="M1453.1,493.409s8.431-14.6,15.551-10.64,1.46,16.433-3.357,21.711-12.33,4.2-12.33,4.2Z" fill="#ff6161"/>
        <path id="Path_75" data-name="Path 75" d="M1402.911,505.666s-1.681,35.2-2.622,42.083-8.213,8.973-12.965,10.6.123,23.934,31.618,24.477,35.178-21.821,31.99-23.856-14.609-2.6-15.441-10.408,0-23.893,0-23.893Z" fill="#ff6161"/>
        <path id="Path_76" data-name="Path 76" d="M1460.351,447.479s6.318,44.673-.93,65.062-20.94,39.333-36.677,38.771-30.981-15.824-36.629-31.062-2.823-75.523-2.823-75.523Z" fill="#ff6161"/>
        <path id="Path_77" data-name="Path 77" d="M1385.762,494.841s-7.579-15.6-15.175-12.057-2.7,16.752,1.852,22.52,12.341,5.216,12.341,5.216Z" fill="#ff6161"/>
        <path id="Path_78" data-name="Path 78" d="M1438.835,453.924s-19.425,19.411-25.922,23.264-25.4,16.554-29.22,16.62c0,0-22.785-52.462-7.415-62.887s58.447-9.253,70.356-4.072,25.31,19.193,24.84,32.346-8.572,33.277-8.572,33.277S1446.233,480.539,1438.835,453.924Z" fill="#ffd245"/>
      </g>
    </g>
  </g>
</svg>
