<svg xmlns="http://www.w3.org/2000/svg" width="902.023" height="577.28" viewBox="0 0 902.023 577.28">
  <g id="Group_27" data-name="Group 27" transform="translate(-90.371 -114.76)">
    <path id="Path_1" data-name="Path 1" d="M990.331,681.142c0,.636,0,1.276-.009,1.912,0,.435,0,.874-.014,1.309,0,.509-.014,1.015-.024,1.524,0,.323-.014.641-.023.959q-.021.961-.056,1.922c0,.173-.01.341-.014.51q-.042,1.381-.108,2.763H97.733q-.113-1.578-.2-3.161c0-.037,0-.075-.009-.112-.037-.641-.07-1.281-.1-1.922-.024-.449-.047-.907-.066-1.356-.019-.374-.032-.753-.047-1.127q-.2-4.741-.224-9.529c-.009-.561-.009-1.122-.009-1.683a266.265,266.265,0,0,1,48.245-153.107c.271-.4.551-.795.832-1.192a81.645,81.645,0,0,1-20.5-53.135c0-.36,0-.72,0-1.08a81.769,81.769,0,0,1,19.632-53.219,225.308,225.308,0,0,1-13.591-77.372c0-121.1,95.031-219.286,212.259-219.286,70.013,0,132.106,35.027,170.771,89.041a203.761,203.761,0,0,1,316.832,63.631,119.762,119.762,0,0,1,20.422-1.753c69.681,0,126.168,59.863,126.168,133.714,0,46.879-22.769,88.116-57.221,111.992a249.036,249.036,0,0,1,23.924,28.6A241.39,241.39,0,0,1,990.331,681.142Z" transform="translate(-3.411)" fill="#edfbff"/>
    <path id="Path_2" data-name="Path 2" d="M97.07,789.833q0,6.247.283,12.426l892.93.4q.05-2.388.048-4.782a244.376,244.376,0,0,0-45.486-142.185l-21.51-.14v16.282H885.341v-121.9h-36.95v21.59H841.3V436.372H791.379v64.752H777.443V367.229l-46.3,46.322V532.916H693.6v42.056l-41.673.628V647.16H632.577V519.954L556.2,489.837V413.8H524.009V396.908H518.82v16.644h-10.1v144H457.607V621.43l-78.211-36.5L313.215,623.8V337.551H258.938V529.837h-14.63V485.943H194.026V638.214h-24.26v24.129h-16V555.51l-17.054-17.179a83.051,83.051,0,0,0,9.433,96.066A269.649,269.649,0,0,0,97.07,789.833Z" transform="translate(-3.409 -113.381)" fill="#009cd4"/>
    <g id="Group_2" data-name="Group 2" transform="translate(221.838 288.071)">
      <rect id="Rectangle_2" data-name="Rectangle 2" width="564.995" height="2.131" transform="translate(28.445 336.082)" fill="#bcbbbb"/>
      <rect id="Rectangle_3" data-name="Rectangle 3" width="8.895" height="68.195" transform="translate(110.859 332.503)" fill="#bcbbbb"/>
      <rect id="Rectangle_4" data-name="Rectangle 4" width="8.895" height="68.195" transform="translate(496.695 332.503)" fill="#bcbbbb"/>
      <rect id="Rectangle_5" data-name="Rectangle 5" width="555.868" height="302.774" transform="translate(33.745 33.31)" fill="#d6eaf5" opacity="0.57"/>
      <g id="Group_1" data-name="Group 1" transform="translate(33.745 33.31)" style="mix-blend-mode: soft-light;isolation: isolate">
        <path id="Path_3" data-name="Path 3" d="M982.659,535.5v2L426.792,798.751V763.1L911.066,535.5Z" transform="translate(-426.792 -535.503)" fill="#d6eaf5"/>
        <path id="Path_4" data-name="Path 4" d="M982.659,561.674v10.851L426.792,833.769V822.922Z" transform="translate(-426.792 -548.822)" fill="#d6eaf5"/>
      </g>
      <rect id="Rectangle_6" data-name="Rectangle 6" width="620.427" height="33.31" transform="translate(0 0)" fill="#fff"/>
      <rect id="Rectangle_7" data-name="Rectangle 7" width="620.427" height="6.545" transform="translate(0 26.765)" fill="#bcbbbb"/>
      <rect id="Rectangle_8" data-name="Rectangle 8" width="449.994" height="7.159" transform="translate(88.561 328.924)" fill="#e2e2e2"/>
      <rect id="Rectangle_9" data-name="Rectangle 9" width="449.994" height="2.947" transform="translate(88.561 333.136)" fill="#bcbbbb"/>
      <rect id="Rectangle_10" data-name="Rectangle 10" width="14.652" height="367.387" transform="translate(19.091 33.31)" fill="#bcbbbb"/>
      <rect id="Rectangle_11" data-name="Rectangle 11" width="14.652" height="367.387" transform="translate(589.612 33.31)" fill="#bcbbbb"/>
      <rect id="Rectangle_12" data-name="Rectangle 12" width="7.94" height="296.446" transform="translate(205.534 33.31)" fill="#bcbbbb"/>
      <rect id="Rectangle_13" data-name="Rectangle 13" width="7.94" height="296.446" transform="translate(418.173 33.31)" fill="#bcbbbb"/>
      <path id="Path_5" data-name="Path 5" d="M990.272,496.919H802.2a8.546,8.546,0,0,1-8.545-8.545h0a8.545,8.545,0,0,1,8.545-8.545H990.272a8.545,8.545,0,0,1,8.545,8.545h0A8.545,8.545,0,0,1,990.272,496.919Z" transform="translate(-579.751 -473.859)" fill="#bcbbbb"/>
    </g>
    <g id="Group_3" data-name="Group 3" transform="translate(221.838 197.662)">
      <path id="Path_6" data-name="Path 6" d="M365.17,317.322h82.824l-32.867-6.212s4.273-9.629-6.245-8.692c0,0,1.315-11.09-8.545-8.692,0,0-.657-11.076-13.146-10.091s-6.9,14.244-6.9,14.244-13.147-9.09-20.049,0S365.17,317.322,365.17,317.322Z" transform="translate(-358.078 -283.573)" fill="#fff"/>
      <path id="Path_7" data-name="Path 7" d="M1241.75,387.117H1002.992l86.321-13.465s.481-25.967,28.852-15.388c0,0,2.317-19.716,24.24-20.678s20.481,17.793,20.481,17.793,27.89-18.273,44.24-.481-9.617,22.6-9.617,22.6Z" transform="translate(-686.283 -311.043)" fill="#fff"/>
    </g>
    <g id="Group_6" data-name="Group 6" transform="translate(323.863 461.136)">
      <path id="Path_8" data-name="Path 8" d="M676.257,858.332s5.846,24.594,5.443,31.146,10.987-9.978,10.987-9.978Z" transform="translate(-622.028 -839.55)" fill="#55b8e0"/>
      <path id="Path_9" data-name="Path 9" d="M703.213,890.7l-.425-1-11.89,2.47a18.216,18.216,0,0,1,5.729,6.4A43.432,43.432,0,0,0,703.213,890.7Z" transform="translate(-629.479 -855.514)" fill="#ad263d"/>
      <path id="Path_10" data-name="Path 10" d="M709.15,891.741a43.432,43.432,0,0,1-6.585,7.864,9.617,9.617,0,0,1,.991,5.565c-.941,6.989,9.81-3.494,9.81-3.494Z" transform="translate(-635.417 -856.552)" fill="#ff6161"/>
      <path id="Path_11" data-name="Path 11" d="M577.795,866.131h12.065a1.727,1.727,0,0,1,1.587,1.047L603.27,894.75a1.727,1.727,0,0,1-1.587,2.407H589.519a1.727,1.727,0,0,1-1.589-1.051l-11.724-27.572A1.727,1.727,0,0,1,577.795,866.131Z" transform="translate(-571.04 -843.519)" fill="#fff"/>
      <path id="Path_12" data-name="Path 12" d="M603.411,894.75l-11.824-27.572A1.727,1.727,0,0,0,590,866.131H577.935a1.719,1.719,0,0,0-1.593,1.067,1.736,1.736,0,0,1,.451-.059h12.065a1.726,1.726,0,0,1,1.587,1.046l11.824,27.572a1.7,1.7,0,0,1,.006,1.341A1.728,1.728,0,0,0,603.411,894.75Z" transform="translate(-571.18 -843.519)" fill="#322666"/>
      <path id="Path_13" data-name="Path 13" d="M684.279,868.842c-3.889-2.334-7.779.21-11.669,1.478.883,5.318,2.692,13.218,5.89,15.724,1.455,1.141,3.821.507,6.438-.958C688.83,880.1,689.776,872.277,684.279,868.842Z" transform="translate(-620.172 -844.415)" fill="#ff6161"/>
      <path id="Path_14" data-name="Path 14" d="M671.194,854.411s.205,2.156.7,5.107c3.89-1.268,7.779-3.812,11.669-1.478,5.5,3.436,4.551,11.261.659,16.245,6.325-3.541,14.125-11.944,14.125-11.944S698.61,833.177,671.194,854.411Z" transform="translate(-619.452 -833.613)" fill="#ad263d"/>
      <path id="Path_15" data-name="Path 15" d="M587.059,915.234c5.242-7.661,5.645-19.353-4.435-22.982,3.053-.915,6.334-2.064,8.623-4.142-1.2-3.753-20.253,1.411-16.485,19.06a90.1,90.1,0,0,0,4.949,15.078,26.21,26.21,0,0,0,8.906-4.2Q587.824,916.647,587.059,915.234Z" transform="translate(-570.126 -854.117)" fill="#ff6161"/>
      <path id="Path_16" data-name="Path 16" d="M585.351,954.467c.017.04.031.079.048.118a18.95,18.95,0,0,0,9.533-3.133c-.228-.394-.451-.791-.675-1.187A26.208,26.208,0,0,1,585.351,954.467Z" transform="translate(-575.765 -886.336)" fill="#ed7e94"/>
      <path id="Path_17" data-name="Path 17" d="M600.682,917.891q-.275-.725-.529-1.461s4.233-7.459,3.024-14.313-8.87-8.467-8.87-8.467,6.25-.033,5.645-4.15a1.245,1.245,0,0,0-.045-.194c-2.29,2.078-5.571,3.226-8.623,4.142,10.08,3.629,9.677,15.321,4.435,22.982q1.084,2.013,2.233,4A13.563,13.563,0,0,0,600.682,917.891Z" transform="translate(-578.783 -855.313)" fill="#ad263d"/>
      <path id="Path_18" data-name="Path 18" d="M599.813,952.367c-.757-1.566-1.467-3.185-2.1-4.854-2.964,3.653-7.5,5.308-12.264,5.672.8,1.914,1.657,3.86,2.568,5.818A17.776,17.776,0,0,0,599.813,952.367Z" transform="translate(-575.815 -884.935)" fill="#bcbbbb"/>
      <path id="Path_19" data-name="Path 19" d="M646.231,1000.335l-.042-.029-.015.029Z" transform="translate(-606.719 -911.802)" fill="#4abd68"/>
      <path id="Path_20" data-name="Path 20" d="M634.11,936.352l-16.163,31.407.042.029h-.057l-.145.281s-.515-.5-1.375-1.406a65.91,65.91,0,0,1-16-17.762,18.032,18.032,0,0,1-9.732,4.422c5.163,11.09,12,22.534,18.409,30.438a40.618,40.618,0,0,0,8.094,4.187C628.713,973.442,630.979,954.135,634.11,936.352Z" transform="translate(-578.477 -879.255)" fill="#fff"/>
      <path id="Path_21" data-name="Path 21" d="M653.194,936.327l-.006.012c-3.13,17.783-5.4,37.09-16.927,51.6a40.618,40.618,0,0,1-8.094-4.187,50.815,50.815,0,0,0,6.683,7.009s19.353-9.878,22.377-36.892Z" transform="translate(-597.554 -879.243)" fill="#bcbbbb"/>
      <path id="Path_22" data-name="Path 22" d="M626.5,977.373A83.884,83.884,0,0,1,612.56,957.4a16.615,16.615,0,0,1-2.064,2.214A65.909,65.909,0,0,0,626.5,977.373Z" transform="translate(-588.562 -889.965)" fill="#bcbbbb"/>
      <path id="Path_23" data-name="Path 23" d="M713.229,914.058,705.1,911.7l-4.25,3.446c1.24,3.244,1.988,6.752,3.041,10.262C706.81,921.428,710.074,917.8,713.229,914.058Z" transform="translate(-634.546 -866.708)" fill="#ff6161"/>
      <path id="Path_24" data-name="Path 24" d="M681.032,982.462c-5.645,2.822-12.9,4.032-18.547.4a7.41,7.41,0,0,1-2.188-9.758c-1.658,1.718-2.888,3.645-2.775,5.524.327,5.443,6.375,9.677,14.237,8.467a27.138,27.138,0,0,0,4.5,8.522C675.223,990.632,676.208,985.508,681.032,982.462Z" transform="translate(-612.49 -897.96)" fill="#bcbbbb"/>
      <path id="Path_25" data-name="Path 25" d="M745.857,929.34l-.028-.008c-2.215.859-4.416,1.849-5.213,4.242-5.241,15.725-.4,32.255,6.854,46.366,3.225,7.258-.806,14.918-7.257,18.95a26.269,26.269,0,0,1-17.448,3c-.091.285-.187.564-.292.828-2.822,7.056,31.448,5.443,31.448,5.443S763.8,972.481,745.857,929.34Z" transform="translate(-645.464 -875.683)" fill="#bcbbbb"/>
      <path id="Path_26" data-name="Path 26" d="M745.978,1030.79c-8.084,3.415-16.913,4.957-25.831,5.467a24.8,24.8,0,0,1,1.371,3.916c8.848.368,18.133-1.62,25.643-6.252a13.27,13.27,0,0,0-.79-2.348C746.237,1031.314,746.11,1031.05,745.978,1030.79Z" transform="translate(-644.365 -927.316)" fill="#989393"/>
      <path id="Path_27" data-name="Path 27" d="M709.209,955.071c-8.808,3.079-19.51-.1-26.694-5.849,5.645,2.016,12.1,3.629,17.74,1.613a6.87,6.87,0,0,0,2.822-9.676c-4.032-8.064-14.515-3.629-21.772-2.016,7.822-5.476,17.54-6.019,26.212-2.367a42.83,42.83,0,0,1,2.011-9.729c.8-2.393,3-3.382,5.213-4.241l-21.682-6.3c-3.155,3.739-6.419,7.37-9.335,11.347-1.053-3.509-1.8-7.018-3.041-10.262l-10.668,8.649v12.3a36.757,36.757,0,0,0-7.833,5.765,7.41,7.41,0,0,0,2.188,9.758c5.645,3.629,12.9,2.419,18.547-.4-4.823,3.046-5.809,8.171-4.771,13.159a14.908,14.908,0,0,0,5.914,4.581c2.65,1.065,4.688,3.581,6.1,6.7,8.919-.51,17.747-2.052,25.831-5.467A87.715,87.715,0,0,1,709.209,955.071Z" transform="translate(-614.376 -869.155)" fill="#fff"/>
      <path id="Path_28" data-name="Path 28" d="M722.938,1043.419c1.216,4.639,1.287,9.766.148,13.351a26.269,26.269,0,0,0,17.448-3c5.758-3.6,9.584-10.088,8.047-16.6C741.071,1041.8,731.786,1043.787,722.938,1043.419Z" transform="translate(-645.785 -930.561)" fill="#ad263d"/>
      <path id="Path_29" data-name="Path 29" d="M702.119,957.736c7.257-1.613,17.74-6.048,21.772,2.016a6.87,6.87,0,0,1-2.822,9.676c-5.645,2.016-12.1.4-17.74-1.613,7.184,5.747,17.886,8.928,26.694,5.849a54.063,54.063,0,0,1-1.692-18.3C719.659,951.717,709.941,952.26,702.119,957.736Z" transform="translate(-635.19 -887.749)" fill="#bcbbbb"/>
      <path id="Path_30" data-name="Path 30" d="M711.344,1050.653a12.388,12.388,0,0,1,2.036-5.749l-.1.005c-.092-.024-.188-.043-.283-.062a13.464,13.464,0,0,0-2.681,5.8C710.657,1050.651,711,1050.654,711.344,1050.653Z" transform="translate(-639.36 -934.47)" fill="#ed7e94"/>
      <path id="Path_31" data-name="Path 31" d="M686.353,1050.347c3.871.081,7.807.158,11.766.16a13.465,13.465,0,0,1,2.681-5.8C696.714,1043.868,689.707,1046.929,686.353,1050.347Z" transform="translate(-627.166 -934.326)" fill="#ff6161"/>
      <path id="Path_32" data-name="Path 32" d="M697.185,1056.5c-4.307.015-8.59-.074-12.8-.161-3.648,3.719-2.972,7.858,10.5,7.858q1.624,0,3.252-.072A17.5,17.5,0,0,1,697.185,1056.5Z" transform="translate(-625.201 -940.319)" fill="#ad263d"/>
      <path id="Path_33" data-name="Path 33" d="M718.424,1044.308c-2.179.208-3.686.3-4.073.322-2.548,3.693-2.68,8.866-1.084,13.373q2.352-.1,4.7-.331A21.779,21.779,0,0,1,718.424,1044.308Z" transform="translate(-640.331 -934.196)" fill="#bcbbbb"/>
      <path id="Path_34" data-name="Path 34" d="M745.783,929.33c-19.351-1.017,6.387,47.913,6.387,47.913-5.042,5.647-20.973,7.813-28.617,8.543a18.872,18.872,0,0,0-1.254,6c15.019-.37,30.073-2.456,42.908-10.648C760.132,963.382,754.73,945.625,745.783,929.33Z" transform="translate(-645.459 -875.674)" fill="#fff"/>
      <path id="Path_35" data-name="Path 35" d="M745.824,929.347h-.07c8.947,16.295,14.349,34.052,19.423,51.811-12.835,8.192-27.889,10.278-42.908,10.648a24.674,24.674,0,0,0,.795,7.36c23.438-2.287,45.473-13.574,45.473-13.574C763.43,950.649,745.824,929.347,745.824,929.347Z" transform="translate(-645.431 -875.69)" fill="#bcbbbb"/>
      <path id="Path_36" data-name="Path 36" d="M658.618,1246.622a19.054,19.054,0,0,0-4.391.137q2.045,8.207,3.828,16.509c.481.969.741,1.486.741,1.486A120.571,120.571,0,0,0,658.618,1246.622Z" transform="translate(-610.817 -1037.123)" fill="#bcbbbb"/>
      <path id="Path_37" data-name="Path 37" d="M646.772,1248.093c3.539,7.4,6.249,12.892,7.489,15.387q-1.783-8.3-3.828-16.509A12.654,12.654,0,0,0,646.772,1248.093Z" transform="translate(-607.023 -1037.333)" fill="#fff"/>
      <path id="Path_38" data-name="Path 38" d="M645.689,1202.376c-1.241-15.377-4.929-30.548-8.643-42.66a35.484,35.484,0,0,0-8.223.334q7.1,20.962,12.476,42.464A19.054,19.054,0,0,1,645.689,1202.376Z" transform="translate(-597.888 -992.877)" fill="#ad263d"/>
      <path id="Path_39" data-name="Path 39" d="M618.774,1160.5a33.661,33.661,0,0,0-9.7,3.071c6.611,15.281,13.419,29.87,18.511,40.516a12.647,12.647,0,0,1,3.661-1.123Q625.886,1181.439,618.774,1160.5Z" transform="translate(-587.839 -993.328)" fill="#ff6161"/>
      <path id="Path_40" data-name="Path 40" d="M665.8,1098c-14.184-33.241-60.576-44.667-80.7-48.124q12.117,26.846,21.474,54.324a35.477,35.477,0,0,1,8.223-.334,236.974,236.974,0,0,0-9.322-25.489C626.839,1099.348,665.8,1098,665.8,1098Z" transform="translate(-575.635 -937.031)" fill="#ffa42f"/>
      <path id="Path_41" data-name="Path 41" d="M565.831,1047.164c3.331,15.154,12.1,37.6,21.238,58.729a33.658,33.658,0,0,1,9.7-3.071q-9.32-27.532-21.474-54.324C569.46,1047.5,565.831,1047.164,565.831,1047.164Z" transform="translate(-565.831 -935.649)" fill="#ffcc46"/>
      <path id="Path_42" data-name="Path 42" d="M685.851,1261.5c.346-7.7.462-14.776.395-21.269a18.136,18.136,0,0,0-1.832-.05A169.151,169.151,0,0,1,685.851,1261.5Z" transform="translate(-626.18 -1033.878)" fill="#bcbbbb"/>
      <path id="Path_43" data-name="Path 43" d="M678.279,1261.514v-.006a169.152,169.152,0,0,0-1.437-21.319,16.265,16.265,0,0,0-7.307,1.812C674.691,1253.78,678.279,1261.514,678.279,1261.514Z" transform="translate(-618.607 -1033.882)" fill="#fff"/>
      <path id="Path_44" data-name="Path 44" d="M675.678,1193.505c-.2-19.075-1.982-33.124-4.208-43.313a35.52,35.52,0,0,0-7.822-1.834c4.436,14.845,8.229,29.845,10.2,45.1A18.1,18.1,0,0,1,675.678,1193.505Z" transform="translate(-615.611 -987.148)" fill="#ad263d"/>
      <path id="Path_45" data-name="Path 45" d="M631.645,1150.064c6.4,16.593,13.328,32.893,18.607,44.954a16.266,16.266,0,0,1,7.307-1.812c-1.969-15.252-5.762-30.252-10.2-45.1A32.073,32.073,0,0,0,631.645,1150.064Z" transform="translate(-599.325 -986.899)" fill="#ff6161"/>
      <path id="Path_46" data-name="Path 46" d="M670.424,1081.825a33.844,33.844,0,0,0,20.441-13.141c-.174-.364-.282-.567-.282-.567-54.833-22.175-92.733-20.965-92.733-20.965,2.786,13.784,9.36,32.9,16.6,51.65a32.071,32.071,0,0,1,15.716-1.955c-3.57-11.944-7.555-23.788-11.346-35.584C634.54,1070.536,649.861,1085.857,670.424,1081.825Z" transform="translate(-582.126 -935.637)" fill="#ffcc46"/>
      <path id="Path_47" data-name="Path 47" d="M692.151,1096.461c-20.562,4.032-35.884-11.289-51.608-20.562,3.791,11.8,7.777,23.64,11.346,35.584a35.52,35.52,0,0,1,7.822,1.834c-4.075-18.648-9.627-24.381-9.627-24.381s21.366,22.31,43.932,22.31c30.654,0,20.488-23.926,18.575-27.925A33.844,33.844,0,0,1,692.151,1096.461Z" transform="translate(-603.853 -950.273)" fill="#ffa42f"/>
      <path id="Path_48" data-name="Path 48" d="M676.335,839.405s-12.1,7.526-16.4,5.779-4.166-19.487,11.558-24.46S700.66,841.018,702.542,855s-19.219,16.4-19.219,16.4S689.1,851.1,676.335,839.405Z" transform="translate(-612.497 -820.086)" fill="#95e2f7"/>
      <path id="Path_49" data-name="Path 49" d="M583.044,877.218c.261.63.223,1.244-.086,1.372s-.77-.279-1.031-.91-.222-1.244.086-1.372S582.783,876.588,583.044,877.218Z" transform="translate(-573.934 -848.686)" fill="#322666"/>
      <path id="Path_50" data-name="Path 50" d="M580.53,871.779c.261.63.222,1.245-.086,1.372s-.771-.279-1.031-.909-.222-1.244.086-1.372S580.269,871.149,580.53,871.779Z" transform="translate(-572.655 -845.919)" fill="#322666"/>
      <path id="Path_51" data-name="Path 51" d="M679.951,891.2l5.846-2.083s.179,5.04-1.691,5.711S679.951,891.2,679.951,891.2Z" transform="translate(-623.908 -855.218)" fill="#fff"/>
      <g id="Group_4" data-name="Group 4" transform="translate(63.569 51.072)">
        <path id="Path_52" data-name="Path 52" d="M696.822,938.539a.237.237,0,0,1-.064-.009.234.234,0,0,1-.169-.2l-1.31-13.45a.234.234,0,0,1,.21-.256.239.239,0,0,1,.255.21L697,937.685l4.008-5.31a.229.229,0,0,1,.2-.093.234.234,0,0,1,.188.121l2.871,5.255,8.122-13.462a.234.234,0,0,1,.4.241l-8.332,13.811a.257.257,0,0,1-.205.113.236.236,0,0,1-.2-.122l-2.892-5.295-4.151,5.5A.232.232,0,0,1,696.822,938.539Z" transform="translate(-695.278 -924.084)" fill="#bcbbbb"/>
      </g>
      <g id="Group_5" data-name="Group 5" transform="translate(64.157 63.705)">
        <path id="Path_53" data-name="Path 53" d="M716.986,994.524a.233.233,0,0,1-.226-.174c-1.146-4.316-6.771-11.613-11.733-18.051-3.424-4.442-6.658-8.639-7.809-11.106-2.8-6,3.191-14.906,3.447-15.283a.234.234,0,0,1,.387.263c-.061.09-6.1,9.059-3.41,14.822,1.129,2.42,4.348,6.6,7.756,11.018,4.989,6.474,10.644,13.811,11.814,18.217a.234.234,0,0,1-.166.286A.229.229,0,0,1,716.986,994.524Z" transform="translate(-696.474 -949.808)" fill="#bcbbbb"/>
      </g>
      <path id="Path_54" data-name="Path 54" d="M697.081,957.789a.664.664,0,1,1-.664-.664A.664.664,0,0,1,697.081,957.789Z" transform="translate(-631.951 -889.827)" fill="#bcbbbb"/>
      <path id="Path_55" data-name="Path 55" d="M697.081,984.062a.664.664,0,1,1-.664-.663A.664.664,0,0,1,697.081,984.062Z" transform="translate(-631.951 -903.198)" fill="#bcbbbb"/>
      <path id="Path_56" data-name="Path 56" d="M711.04,1003.767a.664.664,0,1,1-.663-.664A.664.664,0,0,1,711.04,1003.767Z" transform="translate(-639.055 -913.226)" fill="#bcbbbb"/>
      <path id="Path_57" data-name="Path 57" d="M724.836,1023.162a.664.664,0,1,1-.664-.664A.664.664,0,0,1,724.836,1023.162Z" transform="translate(-646.075 -923.096)" fill="#bcbbbb"/>
    </g>
    <g id="Group_10" data-name="Group 10" transform="translate(593.074 348.583)">
      <rect id="Rectangle_14" data-name="Rectangle 14" width="65.907" height="83.159" rx="32.954" transform="translate(47.83 48.389)" fill="#95e2f7"/>
      <path id="Path_58" data-name="Path 58" d="M1276.621,689.43h-17.613a23.777,23.777,0,0,0-9.8,2.54,23.586,23.586,0,0,1,18.6,23.127v34.864a24.146,24.146,0,0,1-14.219,22.011,24.212,24.212,0,0,0,5.413.617h17.613a24.148,24.148,0,0,0,24.147-24.148V713.578A24.148,24.148,0,0,0,1276.621,689.43Z" transform="translate(-1182.823 -641.041)" fill="#55b8e0"/>
      <path id="Path_59" data-name="Path 59" d="M1316.083,672.345a22.434,22.434,0,0,1,3.632-7.988l-14.359.769-.16,1.205A17.036,17.036,0,0,0,1316.083,672.345Z" transform="translate(-1211.315 -628.281)" fill="#ad263d"/>
      <path id="Path_60" data-name="Path 60" d="M1303.1,668.377l-2.019,15.206s17.949,12.821,13.719,2.308a18.813,18.813,0,0,1-.811-11.5A17.037,17.037,0,0,1,1303.1,668.377Z" transform="translate(-1209.222 -630.327)" fill="#ff6161"/>
      <path id="Path_61" data-name="Path 61" d="M1303.74,640.773a4.93,4.93,0,0,1,1.923-6.539c3.977-2.141,8.682-2.339,12.571-4.457l-.84-4.229c-40.514-10.858-30.825,13.484-20.9,18.423a30.734,30.734,0,0,0,13.305,3.066A22.371,22.371,0,0,1,1303.74,640.773Z" transform="translate(-1202.455 -607.125)" fill="#ad263d"/>
      <path id="Path_62" data-name="Path 62" d="M1321.646,641.478a4.93,4.93,0,0,0-1.923,6.539,22.372,22.372,0,0,0,6.061,6.264,30.148,30.148,0,0,0,6.824-.63l.77-7.564,2.436-1.025-1.6-8.04C1330.328,639.139,1325.623,639.336,1321.646,641.478Z" transform="translate(-1218.438 -614.369)" fill="#ff6161"/>
      <path id="Path_63" data-name="Path 63" d="M1292.644,614.15s15.641,3.461,22.949-2.821,4.488-21.411-6.41-20.385-8.59,8.846-4.616,11.41c0,0-19.359-7.052-24.616,7.692S1292,627.74,1292,627.74l.641-9.872s-3.846.769-3.59-3.718S1292.644,614.15,1292.644,614.15Z" transform="translate(-1197.962 -590.895)" fill="#322666"/>
      <path id="Path_64" data-name="Path 64" d="M1365.1,1002.508a304.854,304.854,0,0,0,18.534,64.084c.984,1.852,1.531,2.834,1.531,2.834l-30.385-191.35s-.778-1.6-2.069-4C1351.042,917,1357.045,958.878,1365.1,1002.508Z" transform="translate(-1235.353 -735.01)" fill="#3f327a"/>
      <path id="Path_65" data-name="Path 65" d="M1339.251,979.348c-8.055-43.631-14.057-85.5-12.39-128.431-7.234-13.46-30.612-52.314-24.085,21.114,6.88,77.4,46.679,155.719,55.01,171.4A304.853,304.853,0,0,1,1339.251,979.348Z" transform="translate(-1209.505 -711.85)" fill="#322666"/>
      <path id="Path_66" data-name="Path 66" d="M1248.088,905.111a38.864,38.864,0,0,1-1.844-22.892h-1.169s-9.231,8.957-7.308,22.267c0,0-21.539,72.927-20.769,169.083,0,0,.2-.525.587-1.518,2.576-22.238,4.372-44.36,8.964-67.322C1232.7,970.113,1236.934,937.42,1248.088,905.111Z" transform="translate(-1166.42 -739.154)" fill="#322666"/>
      <path id="Path_67" data-name="Path 67" d="M1246.874,882.219a38.865,38.865,0,0,0,1.844,22.892c-11.154,32.308-15.385,65-21.539,99.617-4.592,22.962-6.388,45.084-8.964,67.322,4.882-12.68,38.885-102.258,50.187-166.411,0,0,13.842-4.767,18.073-23.421Z" transform="translate(-1167.05 -739.154)" fill="#3f327a"/>
      <path id="Path_68" data-name="Path 68" d="M1361.486,709.913l16.731,49.928-2.181,17.381-16.473-31.347Z" transform="translate(-1238.983 -651.465)" fill="#ffa42f"/>
      <path id="Path_69" data-name="Path 69" d="M1315.033,694.449l-9.425-3.724-8.986,3.514a14.748,14.748,0,0,0,7.768,4.571C1309.075,699.912,1312.576,697.656,1315.033,694.449Z" transform="translate(-1206.952 -641.7)" fill="#ff6161"/>
      <path id="Path_70" data-name="Path 70" d="M1310.856,704.374c1.9-1.185,3.06-3.1,4.215-5.023l-3.188-1.26c-2.457,3.207-5.958,5.462-10.643,4.36a14.747,14.747,0,0,1-7.768-4.571l-3.039,1.189C1294.7,705.559,1303.972,708.721,1310.856,704.374Z" transform="translate(-1203.802 -645.341)" fill="#ffa42f"/>
      <path id="Path_71" data-name="Path 71" d="M1273.175,765.02c-4.231-16.923,0-36.539-12.693-50-.107,1.283-.19,2.574-.256,3.87l6.553,74.746c12.781,5.1,28.092,5.05,40.6-.675-.021-.228-.042-.466-.062-.708C1291.812,790.733,1277.238,781.271,1273.175,765.02Z" transform="translate(-1188.43 -654.063)" fill="#ffa42f"/>
      <path id="Path_72" data-name="Path 72" d="M1308.544,760.023c3.846-11.923,10.193-22.489,10.193-37.5,0-10.577-8.269-17.5-8.269-17.5l-11.234-4.439c-1.155,1.925-2.32,3.839-4.215,5.023-6.884,4.348-16.155,1.186-20.423-5.3l-15.283,5.977.449,5.121c.067-1.3.149-2.587.256-3.87,12.693,13.462,8.462,33.078,12.693,50,4.063,16.252,18.637,25.713,34.138,27.232C1306.328,778.66,1305.958,768.04,1308.544,760.023Z" transform="translate(-1187.964 -646.573)" fill="#ffcc46"/>
      <path id="Path_73" data-name="Path 73" d="M1273.569,874.406l.307,3.493s19.423,7.5,40.77,0c0,0-.244-1.6-.48-4.168C1301.661,879.457,1286.35,879.506,1273.569,874.406Z" transform="translate(-1195.22 -734.834)" fill="#322666"/>
      <g id="Group_7" data-name="Group 7" transform="translate(71.668 51.001)">
        <path id="Path_74" data-name="Path 74" d="M1263.692,768.928a12.5,12.5,0,0,1-2.5-.219,1.538,1.538,0,0,1,.626-3.012c3.752.78,14.844-1.167,23.6-7.822,6.43-4.887,9.932-11.035,10.41-18.272,1.364-20.665-25.013-41.9-25.28-42.114a1.539,1.539,0,0,1,1.915-2.409c1.14.907,27.9,22.448,26.435,44.725-.531,8.05-4.548,15.146-11.618,20.519C1279.412,766.3,1269.432,768.928,1263.692,768.928Z" transform="translate(-1259.964 -694.747)" fill="#91bcd0"/>
      </g>
      <path id="Path_75" data-name="Path 75" d="M1255.977,787.943c-7.968-23.181-7.409-48.409-3.783-72.471-2.213,8.712-12.79,54.06.385,77.464,0,0,24.029-9.34,33.827-29.926A32.416,32.416,0,0,1,1282,759.6C1274.877,770.6,1266.9,780.858,1255.977,787.943Z" transform="translate(-1181.232 -654.294)" fill="#ffa42f"/>
      <path id="Path_76" data-name="Path 76" d="M1279.768,749.73c-3.551,5.5-8.774,12.616-13.843,15.91,0,0,2.084-53.065-9.647-53.167,0,0-.143.521-.385,1.473-3.626,24.062-4.185,49.29,3.783,72.471,10.924-7.085,18.9-17.344,26.019-28.34A23,23,0,0,1,1279.768,749.73Z" transform="translate(-1184.93 -652.767)" fill="#ffcc46"/>
      <path id="Path_77" data-name="Path 77" d="M1317.481,796.172a42.8,42.8,0,0,0,1.8-4.377,20.386,20.386,0,0,1-9.785-11.16c-.655,1.1-1.449,2.39-2.349,3.784C1309.054,789.263,1312.95,793.245,1317.481,796.172Z" transform="translate(-1212.307 -687.456)" fill="#ffa42f"/>
      <path id="Path_78" data-name="Path 78" d="M1312.1,780.048l-.171.288a20.16,20.16,0,0,0,5.876,8.515c.4-.64.794-1.283,1.19-1.925A17.415,17.415,0,0,1,1312.1,780.048Z" transform="translate(-1214.741 -687.157)" fill="#ad263d"/>
      <path id="Path_79" data-name="Path 79" d="M1314.152,742.468c-2.308,3.846,0,14.616,0,14.616s-.692,1.293-1.875,3.288a17.413,17.413,0,0,0,6.9,6.878q1.41-2.286,2.8-4.582c.769-1.154,5.769-2.308,7.308-5,1.154-3.077-.769-6.539-1.154-9.616,2.333.875,5.549,2.852,8.477,2.419,0-.1.006-.2,0-.31C1336.46,745.93,1316.46,738.622,1314.152,742.468Z" transform="translate(-1214.919 -667.481)" fill="#ff6161"/>
      <path id="Path_80" data-name="Path 80" d="M1334.038,754.962c.385,3.077,2.308,6.539,1.154,9.616-1.539,2.692-6.539,3.846-7.308,5q-1.975,3.262-3.99,6.507a20.164,20.164,0,0,0,3.909,2.646,41.3,41.3,0,0,0,1.428-5.166s13.334-1.3,7.564-15.725c0,0,5.567,3.281,5.721-.459C1339.588,757.814,1336.371,755.837,1334.038,754.962Z" transform="translate(-1220.831 -674.391)" fill="#ad263d"/>
      <path id="Path_81" data-name="Path 81" d="M1380.073,834.619h-9.615l-3.846-41.777h17.308Z" transform="translate(-1242.571 -693.668)" fill="#fff"/>
      <path id="Path_82" data-name="Path 82" d="M1384.347,829.185a6.793,6.793,0,0,0,4.717,5.642c4.834-4.963,5.3-24.594.295-23.173-7.534,2.14-11.456,5.4-12.059,7.335a37.289,37.289,0,0,0,9.063-1.9A24.779,24.779,0,0,0,1384.347,829.185Z" transform="translate(-1248.01 -703.205)" fill="#ff6161"/>
      <path id="Path_83" data-name="Path 83" d="M1384.262,834.893a24.777,24.777,0,0,1,2.016-12.1,37.293,37.293,0,0,1-9.063,1.9,1.446,1.446,0,0,0-.057.742c.385,1.731,6.044,0,6.044,0s-4.336,15.069,2.983,16.189a3.15,3.15,0,0,0,2.793-1.093A6.793,6.793,0,0,1,1384.262,834.893Z" transform="translate(-1247.925 -708.913)" fill="#ad263d"/>
      <path id="Path_84" data-name="Path 84" d="M1360.571,805.8c-1.441-.561-3.379-.942-3.848.791-.77,2.841,3.272,21.086,6.849,14.771l-.023-.248A23.242,23.242,0,0,1,1360.571,805.8Z" transform="translate(-1237.49 -700.025)" fill="#ff6161"/>
      <path id="Path_85" data-name="Path 85" d="M1364.411,806.293a23.241,23.241,0,0,0,2.978,15.314l-1.337-14.523A11.976,11.976,0,0,0,1364.411,806.293Z" transform="translate(-1241.33 -700.514)" fill="#ad263d"/>
      <path id="Path_86" data-name="Path 86" d="M1400.551,1258.867l-11.226,12.153h66.924Z" transform="translate(-1254.13 -930.835)" fill="#ffa42f"/>
      <path id="Path_87" data-name="Path 87" d="M1167.047,1258.867l12.943,12.153h-65.963Z" transform="translate(-1114.027 -930.835)" fill="#ffa42f"/>
      <path id="Path_88" data-name="Path 88" d="M1342.648,666.407a.484.484,0,1,1-.484-.484A.484.484,0,0,1,1342.648,666.407Z" transform="translate(-1229.883 -629.078)" fill="#ed7e94"/>
      <g id="Group_8" data-name="Group 8" transform="translate(151.189 326.346)">
        <path id="Path_89" data-name="Path 89" d="M1436.221,1263.388a.2.2,0,0,1-.054-.007.193.193,0,0,1-.131-.238l1.487-5.136-6.1,4.137a.192.192,0,0,1-.292-.213l1.388-4.784-6,4.118a.192.192,0,0,1-.287-.23l2-4.947-6.046,3.645a.192.192,0,0,1-.2-.329l6.538-3.942a.192.192,0,0,1,.278.237l-1.973,4.889,5.917-4.062a.192.192,0,0,1,.294.212l-1.39,4.789,6.1-4.137a.192.192,0,0,1,.293.213l-1.635,5.647A.193.193,0,0,1,1436.221,1263.388Z" transform="translate(-1421.893 -1255.433)" fill="#3f327a"/>
      </g>
      <g id="Group_9" data-name="Group 9" transform="translate(30.834 326.153)">
        <path id="Path_90" data-name="Path 90" d="M1178.642,1263a.179.179,0,0,0,.053-.007.192.192,0,0,0,.132-.238l-1.486-5.136,6.1,4.137a.193.193,0,0,0,.293-.213l-1.389-4.785,6,4.119a.193.193,0,0,0,.287-.231l-2-4.947,6.046,3.645a.192.192,0,1,0,.2-.329l-6.539-3.942a.192.192,0,0,0-.277.237l1.973,4.889-5.917-4.062a.192.192,0,0,0-.294.212l1.39,4.789-6.1-4.136a.192.192,0,0,0-.293.213l1.634,5.647A.193.193,0,0,0,1178.642,1263Z" transform="translate(-1176.815 -1255.041)" fill="#3f327a"/>
      </g>
    </g>
    <g id="Group_13" data-name="Group 13" transform="translate(447.568 540.53)">
      <g id="Group_11" data-name="Group 11" transform="translate(16.866)">
        <path id="Path_91" data-name="Path 91" d="M877.208,1033.792a1.209,1.209,0,0,1-1.21-1.209V984.175H854.5v48.407a1.21,1.21,0,0,1-2.419,0V982.966a1.209,1.209,0,0,1,1.21-1.21h23.923a1.21,1.21,0,0,1,1.21,1.21v49.617A1.209,1.209,0,0,1,877.208,1033.792Z" transform="translate(-852.076 -981.756)" fill="#3f327a"/>
      </g>
      <path id="Path_92" data-name="Path 92" d="M858.6,1080.1c4.032,14.515-3.629,28.223-.806,43.141,2.822,12.9,6.854,25,16.53,33.868,5.563,5.1,12.058,7.531,18.95,8.756v-83.748a7.862,7.862,0,0,0-7.862-7.862H854.856A12.483,12.483,0,0,1,858.6,1080.1Z" transform="translate(-836.624 -1028.831)" fill="#ffcc46"/>
      <path id="Path_93" data-name="Path 93" d="M860.651,1157.112c-9.676-8.87-13.708-20.965-16.531-33.868-2.822-14.918,4.838-28.626.806-43.141a12.484,12.484,0,0,0-3.742-5.846h-5.33a7.862,7.862,0,0,0-7.862,7.862v87.29H879.6v-3.542C872.709,1164.642,866.214,1162.211,860.651,1157.112Z" transform="translate(-822.953 -1028.831)" fill="#ffa42f"/>
      <path id="Path_94" data-name="Path 94" d="M935.6,1263.767h0a2.52,2.52,0,0,1-2.52-2.52v-14.112a2.52,2.52,0,0,1,2.52-2.52h0a2.52,2.52,0,0,1,2.52,2.52v14.112A2.52,2.52,0,0,1,935.6,1263.767Z" transform="translate(-876.435 -1115.529)" fill="#3f327a"/>
      <path id="Path_95" data-name="Path 95" d="M820.251,1263.767h0a2.52,2.52,0,0,1-2.52-2.52v-14.112a2.52,2.52,0,0,1,2.52-2.52h0a2.52,2.52,0,0,1,2.52,2.52v14.112A2.52,2.52,0,0,1,820.251,1263.767Z" transform="translate(-817.731 -1115.529)" fill="#3f327a"/>
      <g id="Group_12" data-name="Group 12" transform="translate(6.854 72.641)">
        <path id="Path_96" data-name="Path 96" d="M878.928,1130.078H831.889a.2.2,0,0,1,0-.4h47.039a.2.2,0,0,1,0,.4Z" transform="translate(-831.688 -1129.675)" fill="#3f327a"/>
      </g>
      <ellipse id="Ellipse_1" data-name="Ellipse 1" cx="5.443" cy="1.109" rx="5.443" ry="1.109" transform="translate(25.804 68.408)" fill="#3f327a"/>
    </g>
    <g id="Group_25" data-name="Group 25" transform="translate(139.825 264.274)">
      <g id="Group_14" data-name="Group 14" transform="translate(766.185 2.13)">
        <ellipse id="Ellipse_2" data-name="Ellipse 2" cx="21.447" cy="49.026" rx="21.447" ry="49.026" transform="translate(0 7.64)" fill="#fff"/>
        <rect id="Rectangle_15" data-name="Rectangle 15" width="5.362" height="242.905" transform="translate(18.766 107.077)" fill="#bcbbbb"/>
        <path id="Path_97" data-name="Path 97" d="M1793.928,1185.684h-25.2l4.952-87.272a7.66,7.66,0,0,1,7.648-7.227h0a7.66,7.66,0,0,1,7.648,7.227Z" transform="translate(-1760.149 -763.32)" fill="#bcbbbb"/>
        <path id="Path_98" data-name="Path 98" d="M1771.929,628.537h19.788a2.358,2.358,0,0,1,1.876,3.784,14.184,14.184,0,0,1-23.541,0A2.358,2.358,0,0,1,1771.929,628.537Z" transform="translate(-1760.578 -527.872)" fill="#bcbbbb"/>
        <path id="Path_99" data-name="Path 99" d="M1765.5,447.8h26.141a2.585,2.585,0,0,0,2.283-3.8c-1.989-3.681-6.343-8.705-15.291-8.705-8.927,0-13.354,5-15.4,8.68A2.584,2.584,0,0,0,1765.5,447.8Z" transform="translate(-1757.185 -429.526)" fill="#bcbbbb"/>
        <ellipse id="Ellipse_3" data-name="Ellipse 3" cx="7.104" cy="2.882" rx="7.104" ry="2.882" transform="translate(14.476)" fill="#bcbbbb"/>
      </g>
      <g id="Group_17" data-name="Group 17" transform="translate(698.076 328.153)">
        <g id="Group_15" data-name="Group 15">
          <path id="Path_100" data-name="Path 100" d="M1674.356,1186.1a1.922,1.922,0,0,1-1.922-1.922v-92.9h-56.021v92.9a1.922,1.922,0,1,1-3.844,0v-94.823a1.922,1.922,0,0,1,1.922-1.922h59.865a1.922,1.922,0,0,1,1.922,1.922v94.823A1.922,1.922,0,0,1,1674.356,1186.1Z" transform="translate(-1612.569 -1087.433)" fill="#bcbbbb"/>
        </g>
        <rect id="Rectangle_16" data-name="Rectangle 16" width="40.577" height="61.934" transform="translate(11.746 26.696)" fill="#fff"/>
        <g id="Group_16" data-name="Group 16" transform="translate(1.922 34.669)">
          <rect id="Rectangle_17" data-name="Rectangle 17" width="60.51" height="1.708" fill="#bcbbbb"/>
        </g>
      </g>
      <g id="Group_24" data-name="Group 24" transform="translate(0 0)">
        <rect id="Rectangle_18" data-name="Rectangle 18" width="7.717" height="345.075" transform="translate(30.726 79.42)" fill="#bcbbbb"/>
        <rect id="Rectangle_19" data-name="Rectangle 19" width="69.128" height="88.217" fill="#fff"/>
        <rect id="Rectangle_20" data-name="Rectangle 20" width="69.128" height="26.143" transform="translate(0 97.87)" fill="#fff"/>
        <g id="Group_18" data-name="Group 18" transform="translate(12.599 11.731)">
          <path id="Path_101" data-name="Path 101" d="M260.66,502.66H216.73V458.442a6.057,6.057,0,0,1,6.057-6.057H254.6a6.057,6.057,0,0,1,6.057,6.057Z" transform="translate(-216.73 -447.827)" fill="#fea32f"/>
          <rect id="Rectangle_21" data-name="Rectangle 21" width="33.508" height="23.06" rx="10.25" transform="translate(4.881 12.066)" fill="#fff"/>
          <rect id="Rectangle_22" data-name="Rectangle 22" width="12.928" height="8.312" rx="4.156" transform="translate(14.907)" fill="#fff"/>
          <rect id="Rectangle_23" data-name="Rectangle 23" width="7.124" height="12.334" rx="3.562" transform="translate(3.298 50.946)" fill="#fba12e"/>
          <rect id="Rectangle_24" data-name="Rectangle 24" width="7.124" height="12.334" rx="3.562" transform="translate(33.673 50.946)" fill="#fda32f"/>
          <ellipse id="Ellipse_4" data-name="Ellipse 4" cx="3.43" cy="3.486" rx="3.43" ry="3.486" transform="translate(4.881 39.818)" fill="#fff"/>
          <ellipse id="Ellipse_5" data-name="Ellipse 5" cx="3.43" cy="3.486" rx="3.43" ry="3.486" transform="translate(30.87 39.55)" fill="#fff"/>
        </g>
        <g id="Group_23" data-name="Group 23" transform="translate(17.29 102.813)">
          <g id="Group_19" data-name="Group 19">
            <path id="Path_102" data-name="Path 102" d="M235.281,632.927h-3.747q0-1.065-.023-1.343a.7.7,0,0,0-.223-.467.757.757,0,0,0-.543-.189.653.653,0,0,0-.473.179.714.714,0,0,0-.213.462q-.028.283-.028,1.141v2.432a1.969,1.969,0,0,1,.844-.919,2.813,2.813,0,0,1,1.373-.306,3.038,3.038,0,0,1,1.818.566,2.45,2.45,0,0,1,1,1.357,8.535,8.535,0,0,1,.214,2.14V639.2a17.1,17.1,0,0,1-.121,2.385,3.064,3.064,0,0,1-.644,1.447,3.4,3.4,0,0,1-1.438,1.032,5.667,5.667,0,0,1-2.129.368,6.192,6.192,0,0,1-2.477-.424,3.334,3.334,0,0,1-1.489-1.22,3.687,3.687,0,0,1-.612-1.674q-.088-.877-.088-3.4V635.6q0-2.724.079-3.643a3.564,3.564,0,0,1,.644-1.739,3.45,3.45,0,0,1,1.544-1.23,5.814,5.814,0,0,1,2.259-.41,5.657,5.657,0,0,1,2.588.519,3.078,3.078,0,0,1,1.447,1.461A5.663,5.663,0,0,1,235.281,632.927Zm-3.747,4.76a2.425,2.425,0,0,0-.176-1.112.615.615,0,0,0-.575-.3.625.625,0,0,0-.571.287,2.363,2.363,0,0,0-.181,1.126v2.762a3.226,3.226,0,0,0,.171,1.32.6.6,0,0,0,.571.311.759.759,0,0,0,.5-.24q.26-.24.26-1.3Z" transform="translate(-226.283 -628.572)" fill="#fba12e"/>
          </g>
          <g id="Group_20" data-name="Group 20" transform="translate(13.302 7.994)">
            <path id="Path_103" data-name="Path 103" d="M258.295,644.85v2.63h-4.926v-2.63Z" transform="translate(-253.369 -644.85)" fill="#ffa42f"/>
          </g>
          <g id="Group_21" data-name="Group 21" transform="translate(22.021 0.302)">
            <path id="Path_104" data-name="Path 104" d="M277.459,629.186v15.262h-3.747v-8.182a14.636,14.636,0,0,0-.083-2.13.793.793,0,0,0-.459-.542,4.7,4.7,0,0,0-1.674-.184h-.371V631.63a6.79,6.79,0,0,0,4.128-2.444Z" transform="translate(-271.124 -629.186)" fill="#ffa42f"/>
          </g>
          <g id="Group_22" data-name="Group 22" transform="translate(29.645 0.009)">
            <path id="Path_105" data-name="Path 105" d="M294.9,641.543v2.6H286.65l0-2.177q3.664-6.09,4.355-7.537a5.764,5.764,0,0,0,.691-2.258,1.665,1.665,0,0,0-.209-.929.718.718,0,0,0-.636-.307.7.7,0,0,0-.636.339,2.891,2.891,0,0,0-.209,1.348v1.452H286.65v-.556a12.31,12.31,0,0,1,.13-2.022,3.577,3.577,0,0,1,.64-1.456,3.222,3.222,0,0,1,1.326-1.084,4.742,4.742,0,0,1,1.957-.368,4.632,4.632,0,0,1,3.381,1.127,3.829,3.829,0,0,1,1.146,2.852,6.865,6.865,0,0,1-.645,2.771,57.044,57.044,0,0,1-3.8,6.2Z" transform="translate(-286.65 -628.591)" fill="#ffa42f"/>
          </g>
        </g>
      </g>
    </g>
    <g id="Group_26" data-name="Group 26" transform="translate(90.371 688.768)">
      <path id="Path_106" data-name="Path 106" d="M992.395,1285.249a1.66,1.66,0,0,1-1.679,1.636H92.045a1.637,1.637,0,1,1,0-3.273H990.716A1.66,1.66,0,0,1,992.395,1285.249Z" transform="translate(-90.371 -1283.613)" fill="#bcbbbb"/>
    </g>
  </g>
</svg>
